M48
;Layer_Color=9474304
;FILE_FORMAT=2:5
INCH,LZ
;TYPE=PLATED
T1F00S00C0.01181
T2F00S00C0.03543
T3F00S00C0.03740
T4F00S00C0.03937
T5F00S00C0.04724
T6F00S00C0.05118
T7F00S00C0.12598
;TYPE=NON_PLATED
T8F00S00C0.19685
%
T01
X11103Y02677
X11163
X11223
X11283
X11343
X10103Y03067
X08303Y03007
X08253Y03007
X08203Y03007
X08153Y03007
X08103
X08053
X08003
X07953Y03007
X07103Y02997
X07053Y02997
X07003Y02997
X06953Y02997
X06903
X06853
X06803
X06753Y02997
X07073Y04037
Y04107
Y04167
X07223Y04237
Y04287
X07363Y04237
Y04167
Y04107
Y04037
X06973Y04307
X07033Y04377
X06903
Y04527
X07033
X09303Y03177
X09363
X09423
X09483
X09543
X10103Y03187
Y03127
Y03247
Y03307
X10693Y04437
X10743
X10793
X10843
X10893
X10943
X10993
X11103Y03567
Y03517
X11103Y03467
X11103Y03417
X11103Y03367
X11103Y03317
Y03267
X11163
X11223
X11283
X11343
Y03317
X11343Y03367
X11343Y03417
X11343Y03467
X11343Y03517
Y03567
X11283
X11223
X11163
X11013Y05207
X10983Y05977
X10333Y06017
X10233Y05927
Y05737
Y05617
X10103Y05807
X09883Y05837
X09743Y05737
Y05617
X09793Y06087
X10003Y06097
X10083
X10163
X10413Y05387
Y05177
X10763Y05207
X10003Y04947
X09753Y04787
X09313Y04947
Y05167
X09003Y05087
Y04867
X08163
Y05087
X08063Y05567
X07883
X08313
X08453Y06087
X08063
X08883
X09363
X07343Y06037
X07283
X07033Y05647
X06903
Y05437
X07033
Y05247
X06903
Y05067
X07033
Y04887
X06903
Y04707
X07033
X08063Y06257
X08453
X08883
X09363
X09793
X10013Y06867
X10243
T02
X1053358Y0366684
X1067137
X0867702Y0496763
Y0526684
X0825142Y06967
X08153
X0805457
T03
X10703Y05677
Y05777
Y05877
Y05977
T04
X081352Y03957
X08273
X0826713Y0459109
X0816713
X0806713
X0796713
X0760552Y0639887
X0742835
Y0665477
X0760552
X0765221Y0720239
X0755221
X0745221
X0735221
X0725221
X0715221
X0705221
X0775221
X0785221
X0795221
X0805221
X0815221
X0825221
X0835221
X0845221
X0855221
X085504Y0665477
X0837324
Y0639887
X085504
X094756Y0639887
X0965276
Y0665477
X094756
X1042048Y0665477
X1059765
Y0639887
X1042048
T05
X1053247Y0402684
Y0412684
Y0422684
Y0463684
Y0473684
Y0483684
T06
X0890678Y0395747
Y0443779
X09143Y0451653
X0937922Y0443779
X0958678
X09823Y0451653
X1005922Y0443779
Y0395747
X0958678
X0937922
T07
X0780213Y039255
Y0460109
X0860213
Y039255
T08
X0675772Y0724176
X1128102Y0724185
Y0869854
X0675346
M30
