G04 Layer_Color=16711935*
%FSLAX25Y25*%
%MOIN*%
G70*
G01*
G75*
G04:AMPARAMS|DCode=52|XSize=126.11mil|YSize=126.11mil|CornerRadius=33.53mil|HoleSize=0mil|Usage=FLASHONLY|Rotation=90.000|XOffset=0mil|YOffset=0mil|HoleType=Round|Shape=RoundedRectangle|*
%AMROUNDEDRECTD52*
21,1,0.12611,0.05906,0,0,90.0*
21,1,0.05906,0.12611,0,0,90.0*
1,1,0.06706,0.02953,0.02953*
1,1,0.06706,0.02953,-0.02953*
1,1,0.06706,-0.02953,-0.02953*
1,1,0.06706,-0.02953,0.02953*
%
%ADD52ROUNDEDRECTD52*%
%ADD53R,0.07887X0.10642*%
%ADD54C,0.13398*%
%ADD55R,0.07099X0.10642*%
%ADD56C,0.08674*%
G04:AMPARAMS|DCode=57|XSize=86.74mil|YSize=86.74mil|CornerRadius=23.69mil|HoleSize=0mil|Usage=FLASHONLY|Rotation=0.000|XOffset=0mil|YOffset=0mil|HoleType=Round|Shape=RoundedRectangle|*
%AMROUNDEDRECTD57*
21,1,0.08674,0.03937,0,0,0.0*
21,1,0.03937,0.08674,0,0,0.0*
1,1,0.04737,0.01969,-0.01969*
1,1,0.04737,-0.01969,-0.01969*
1,1,0.04737,-0.01969,0.01969*
1,1,0.04737,0.01969,0.01969*
%
%ADD57ROUNDEDRECTD57*%
%ADD58C,0.09855*%
%ADD59O,0.07887X0.08674*%
%ADD60R,0.12611X0.07887*%
%ADD62C,0.20485*%
%ADD63R,0.07887X0.12611*%
%ADD64C,0.10642*%
%ADD65R,0.35000X0.50000*%
%ADD66R,0.20485X0.12611*%
%ADD67R,0.05721X0.08674*%
%ADD68R,0.08674X0.05721*%
%ADD69R,0.04737X0.05524*%
G04:AMPARAMS|DCode=70|XSize=27.29mil|YSize=45.4mil|CornerRadius=4.97mil|HoleSize=0mil|Usage=FLASHONLY|Rotation=180.000|XOffset=0mil|YOffset=0mil|HoleType=Round|Shape=RoundedRectangle|*
%AMROUNDEDRECTD70*
21,1,0.02729,0.03547,0,0,180.0*
21,1,0.01736,0.04540,0,0,180.0*
1,1,0.00993,-0.00868,0.01774*
1,1,0.00993,0.00868,0.01774*
1,1,0.00993,0.00868,-0.01774*
1,1,0.00993,-0.00868,-0.01774*
%
%ADD70ROUNDEDRECTD70*%
%ADD71R,0.06312X0.04934*%
%ADD72R,0.06115X0.13989*%
%ADD73R,0.04934X0.06312*%
%ADD74R,0.08674X0.12611*%
G04:AMPARAMS|DCode=75|XSize=47.37mil|YSize=55.24mil|CornerRadius=5.97mil|HoleSize=0mil|Usage=FLASHONLY|Rotation=180.000|XOffset=0mil|YOffset=0mil|HoleType=Round|Shape=RoundedRectangle|*
%AMROUNDEDRECTD75*
21,1,0.04737,0.04331,0,0,180.0*
21,1,0.03543,0.05524,0,0,180.0*
1,1,0.01194,-0.01772,0.02165*
1,1,0.01194,0.01772,0.02165*
1,1,0.01194,0.01772,-0.02165*
1,1,0.01194,-0.01772,-0.02165*
%
%ADD75ROUNDEDRECTD75*%
%ADD76R,0.05524X0.04737*%
G04:AMPARAMS|DCode=77|XSize=244.22mil|YSize=263.91mil|CornerRadius=15.81mil|HoleSize=0mil|Usage=FLASHONLY|Rotation=0.000|XOffset=0mil|YOffset=0mil|HoleType=Round|Shape=RoundedRectangle|*
%AMROUNDEDRECTD77*
21,1,0.24422,0.23228,0,0,0.0*
21,1,0.21260,0.26391,0,0,0.0*
1,1,0.03162,0.10630,-0.11614*
1,1,0.03162,-0.10630,-0.11614*
1,1,0.03162,-0.10630,0.11614*
1,1,0.03162,0.10630,0.11614*
%
%ADD77ROUNDEDRECTD77*%
G04:AMPARAMS|DCode=78|XSize=63.12mil|YSize=126.11mil|CornerRadius=6.76mil|HoleSize=0mil|Usage=FLASHONLY|Rotation=180.000|XOffset=0mil|YOffset=0mil|HoleType=Round|Shape=RoundedRectangle|*
%AMROUNDEDRECTD78*
21,1,0.06312,0.11260,0,0,180.0*
21,1,0.04961,0.12611,0,0,180.0*
1,1,0.01351,-0.02480,0.05630*
1,1,0.01351,0.02480,0.05630*
1,1,0.01351,0.02480,-0.05630*
1,1,0.01351,-0.02480,-0.05630*
%
%ADD78ROUNDEDRECTD78*%
%ADD79R,0.22453X0.06706*%
G04:AMPARAMS|DCode=80|XSize=19.81mil|YSize=74.93mil|CornerRadius=4.59mil|HoleSize=0mil|Usage=FLASHONLY|Rotation=0.000|XOffset=0mil|YOffset=0mil|HoleType=Round|Shape=RoundedRectangle|*
%AMROUNDEDRECTD80*
21,1,0.01981,0.06575,0,0,0.0*
21,1,0.01063,0.07493,0,0,0.0*
1,1,0.00918,0.00532,-0.03287*
1,1,0.00918,-0.00532,-0.03287*
1,1,0.00918,-0.00532,0.03287*
1,1,0.00918,0.00532,0.03287*
%
%ADD80ROUNDEDRECTD80*%
G04:AMPARAMS|DCode=81|XSize=19.81mil|YSize=74.93mil|CornerRadius=4.59mil|HoleSize=0mil|Usage=FLASHONLY|Rotation=270.000|XOffset=0mil|YOffset=0mil|HoleType=Round|Shape=RoundedRectangle|*
%AMROUNDEDRECTD81*
21,1,0.01981,0.06575,0,0,270.0*
21,1,0.01063,0.07493,0,0,270.0*
1,1,0.00918,-0.03287,-0.00532*
1,1,0.00918,-0.03287,0.00532*
1,1,0.00918,0.03287,0.00532*
1,1,0.00918,0.03287,-0.00532*
%
%ADD81ROUNDEDRECTD81*%
G04:AMPARAMS|DCode=82|XSize=47.37mil|YSize=55.24mil|CornerRadius=5.97mil|HoleSize=0mil|Usage=FLASHONLY|Rotation=90.000|XOffset=0mil|YOffset=0mil|HoleType=Round|Shape=RoundedRectangle|*
%AMROUNDEDRECTD82*
21,1,0.04737,0.04331,0,0,90.0*
21,1,0.03543,0.05524,0,0,90.0*
1,1,0.01194,0.02165,0.01772*
1,1,0.01194,0.02165,-0.01772*
1,1,0.01194,-0.02165,-0.01772*
1,1,0.01194,-0.02165,0.01772*
%
%ADD82ROUNDEDRECTD82*%
%ADD83R,0.12611X0.20485*%
D52*
X1005922Y443779D02*
D03*
X958678D02*
D03*
X1005922Y395747D02*
D03*
X958678D02*
D03*
X982300Y451653D02*
D03*
X937922Y443779D02*
D03*
X890678D02*
D03*
X937922Y395747D02*
D03*
X890678D02*
D03*
X914300Y451653D02*
D03*
D53*
X813520Y395700D02*
D03*
X827300D02*
D03*
D54*
X860213Y392550D02*
D03*
X780213D02*
D03*
Y460109D02*
D03*
X860213D02*
D03*
D55*
X826713Y459109D02*
D03*
X816713D02*
D03*
X806713D02*
D03*
X796713D02*
D03*
D56*
X1067137Y366684D02*
D03*
D57*
X1053358D02*
D03*
D58*
X867702Y526684D02*
D03*
Y496763D02*
D03*
D59*
X815300Y696700D02*
D03*
X805457D02*
D03*
X825142D02*
D03*
D60*
X1053247Y473684D02*
D03*
Y463684D02*
D03*
Y483684D02*
D03*
Y412684D02*
D03*
Y402684D02*
D03*
Y422684D02*
D03*
D62*
X1128102Y724185D02*
D03*
Y869854D02*
D03*
X675346D02*
D03*
X675772Y724176D02*
D03*
D63*
X715221Y720239D02*
D03*
X705221D02*
D03*
X725221D02*
D03*
X735221D02*
D03*
X745221D02*
D03*
X755221D02*
D03*
X765221D02*
D03*
X775221D02*
D03*
X785221D02*
D03*
X795221D02*
D03*
X805221D02*
D03*
X815221D02*
D03*
X825221D02*
D03*
X835221D02*
D03*
X845221D02*
D03*
X855221D02*
D03*
D64*
X965276Y639887D02*
D03*
X947560Y665477D02*
D03*
X965276D02*
D03*
X947560Y639887D02*
D03*
X855040Y639887D02*
D03*
X837324Y665477D02*
D03*
X855040D02*
D03*
X837324Y639887D02*
D03*
X760552D02*
D03*
X742835Y665477D02*
D03*
X760552D02*
D03*
X742835Y639887D02*
D03*
X1059765D02*
D03*
X1042048Y665477D02*
D03*
X1059765D02*
D03*
X1042048Y639887D02*
D03*
D65*
X1120800Y473700D02*
D03*
Y412700D02*
D03*
D66*
X1124300Y686700D02*
D03*
X692300Y311700D02*
D03*
Y343700D02*
D03*
X686300Y667700D02*
D03*
Y625700D02*
D03*
X686284Y582653D02*
D03*
X1124300Y669700D02*
D03*
Y652700D02*
D03*
Y635700D02*
D03*
Y618700D02*
D03*
Y601700D02*
D03*
Y584700D02*
D03*
Y567700D02*
D03*
X813300Y344700D02*
D03*
Y312700D02*
D03*
D67*
X907703Y467695D02*
D03*
X921091Y467702D02*
D03*
X975703Y467695D02*
D03*
X989091Y467702D02*
D03*
D68*
X731294Y610297D02*
D03*
X731302Y596909D02*
D03*
X717295Y610297D02*
D03*
X717302Y596909D02*
D03*
X686528Y424874D02*
D03*
X686536Y411485D02*
D03*
X746308Y424073D02*
D03*
X746300Y437461D02*
D03*
D69*
X706793Y425340D02*
D03*
X710533Y433214D02*
D03*
X714274Y425340D02*
D03*
X993040Y494637D02*
D03*
X989300Y486763D02*
D03*
X985560Y494637D02*
D03*
X925040D02*
D03*
X921300Y486763D02*
D03*
X917560Y494637D02*
D03*
X1049560Y517637D02*
D03*
X1053300Y509763D02*
D03*
X1057040Y517637D02*
D03*
D70*
X718533Y406926D02*
D03*
X722274Y406926D02*
D03*
X714793D02*
D03*
Y415627D02*
D03*
X722274D02*
D03*
D71*
X697533Y425312D02*
D03*
Y417241D02*
D03*
X714300Y386665D02*
D03*
Y394735D02*
D03*
X722300Y386665D02*
D03*
Y394735D02*
D03*
X958300Y365665D02*
D03*
Y373735D02*
D03*
X1006300Y365665D02*
D03*
Y373735D02*
D03*
X975300Y494735D02*
D03*
Y486665D02*
D03*
X938300Y373735D02*
D03*
Y365665D02*
D03*
X890300Y373735D02*
D03*
Y365665D02*
D03*
X908300Y486665D02*
D03*
Y494735D02*
D03*
Y508665D02*
D03*
Y516735D02*
D03*
X1067300Y531735D02*
D03*
Y523665D02*
D03*
X694284Y597617D02*
D03*
Y605688D02*
D03*
X826300Y437665D02*
D03*
Y445735D02*
D03*
X805300D02*
D03*
Y437665D02*
D03*
X705284Y597617D02*
D03*
Y605688D02*
D03*
X722284Y578617D02*
D03*
Y586688D02*
D03*
X732284Y578617D02*
D03*
Y586688D02*
D03*
X762300Y607665D02*
D03*
Y615735D02*
D03*
X1067300Y516735D02*
D03*
Y508665D02*
D03*
X1042300Y597735D02*
D03*
Y589665D02*
D03*
X1052300Y589665D02*
D03*
Y597735D02*
D03*
X975956Y583657D02*
D03*
Y591728D02*
D03*
X845300Y702735D02*
D03*
Y694665D02*
D03*
X904300Y724735D02*
D03*
Y716665D02*
D03*
X816300Y437665D02*
D03*
Y445735D02*
D03*
X979300Y647735D02*
D03*
Y639665D02*
D03*
X869300Y647735D02*
D03*
Y639665D02*
D03*
X774300Y647735D02*
D03*
Y639665D02*
D03*
X982300Y321665D02*
D03*
Y329735D02*
D03*
D72*
X706587Y373700D02*
D03*
X730013D02*
D03*
D73*
X754335Y413700D02*
D03*
X746265D02*
D03*
X1070335Y555700D02*
D03*
X1062265D02*
D03*
X728335Y625700D02*
D03*
X720265D02*
D03*
X1039335Y483700D02*
D03*
X1031265D02*
D03*
X1039335Y463700D02*
D03*
X1031265D02*
D03*
X1039335Y402700D02*
D03*
X1031265D02*
D03*
X1053265Y497700D02*
D03*
X1061335D02*
D03*
X1090335Y567700D02*
D03*
X1082265D02*
D03*
X1090335Y577700D02*
D03*
X1082265D02*
D03*
X1007265Y561700D02*
D03*
X1015335D02*
D03*
X997335Y573700D02*
D03*
X989265D02*
D03*
X997335Y561700D02*
D03*
X989265D02*
D03*
X1015335Y573700D02*
D03*
X1007265D02*
D03*
X1051265Y625700D02*
D03*
X1059335D02*
D03*
X867265Y720700D02*
D03*
X875335D02*
D03*
X1061283Y443684D02*
D03*
X1053212D02*
D03*
D74*
X1103717Y312700D02*
D03*
X1080883D02*
D03*
X1103717Y293700D02*
D03*
X1080883D02*
D03*
D75*
X925040Y516637D02*
D03*
X921300Y508763D02*
D03*
X917560Y516637D02*
D03*
D76*
X713221Y586393D02*
D03*
X705347Y582653D02*
D03*
X713221Y578913D02*
D03*
X743347Y611913D02*
D03*
X751221Y615653D02*
D03*
X743347Y619393D02*
D03*
D77*
X1053300Y328952D02*
D03*
D78*
X1044245Y303558D02*
D03*
X1062355D02*
D03*
D79*
X985568Y544700D02*
D03*
X1019032D02*
D03*
D80*
X1017127Y625629D02*
D03*
X995473D02*
D03*
X997442D02*
D03*
X999410D02*
D03*
X1001379D02*
D03*
X1005316D02*
D03*
X1007284D02*
D03*
X1009253D02*
D03*
X1011221D02*
D03*
X1013190D02*
D03*
X1015158D02*
D03*
Y591771D02*
D03*
X1013190D02*
D03*
X1011221D02*
D03*
X1009253D02*
D03*
X1007284D02*
D03*
X1005316D02*
D03*
X1003347D02*
D03*
X1001379D02*
D03*
X999410D02*
D03*
X997442D02*
D03*
X995473D02*
D03*
X1017127D02*
D03*
X1003347Y625629D02*
D03*
D81*
X1023229Y599842D02*
D03*
Y601810D02*
D03*
Y603779D02*
D03*
Y607716D02*
D03*
Y609684D02*
D03*
Y611653D02*
D03*
Y613621D02*
D03*
X989371Y619527D02*
D03*
Y617558D02*
D03*
Y613621D02*
D03*
Y611653D02*
D03*
Y609684D02*
D03*
Y605747D02*
D03*
Y603779D02*
D03*
X1023229Y597873D02*
D03*
Y605747D02*
D03*
Y615590D02*
D03*
Y617558D02*
D03*
Y619527D02*
D03*
X989371Y597873D02*
D03*
Y615590D02*
D03*
Y607716D02*
D03*
Y601810D02*
D03*
Y599842D02*
D03*
D82*
X893237Y716960D02*
D03*
X885363Y720700D02*
D03*
X893237Y724440D02*
D03*
D83*
X1122300Y342700D02*
D03*
Y303700D02*
D03*
M02*
