G04 Layer_Physical_Order=2*
G04 Layer_Color=12517376*
%FSLAX25Y25*%
%MOIN*%
G70*
G01*
G75*
%ADD10C,0.01000*%
%ADD11C,0.01200*%
%ADD12C,0.04000*%
%ADD13C,0.02000*%
G04:AMPARAMS|DCode=14|XSize=118.11mil|YSize=118.11mil|CornerRadius=29.53mil|HoleSize=0mil|Usage=FLASHONLY|Rotation=90.000|XOffset=0mil|YOffset=0mil|HoleType=Round|Shape=RoundedRectangle|*
%AMROUNDEDRECTD14*
21,1,0.11811,0.05906,0,0,90.0*
21,1,0.05906,0.11811,0,0,90.0*
1,1,0.05906,0.02953,0.02953*
1,1,0.05906,0.02953,-0.02953*
1,1,0.05906,-0.02953,-0.02953*
1,1,0.05906,-0.02953,0.02953*
%
%ADD14ROUNDEDRECTD14*%
%ADD15R,0.07087X0.09843*%
%ADD16C,0.12598*%
%ADD17R,0.06299X0.09843*%
%ADD18C,0.07874*%
G04:AMPARAMS|DCode=19|XSize=78.74mil|YSize=78.74mil|CornerRadius=19.69mil|HoleSize=0mil|Usage=FLASHONLY|Rotation=0.000|XOffset=0mil|YOffset=0mil|HoleType=Round|Shape=RoundedRectangle|*
%AMROUNDEDRECTD19*
21,1,0.07874,0.03937,0,0,0.0*
21,1,0.03937,0.07874,0,0,0.0*
1,1,0.03937,0.01969,-0.01969*
1,1,0.03937,-0.01969,-0.01969*
1,1,0.03937,-0.01969,0.01969*
1,1,0.03937,0.01969,0.01969*
%
%ADD19ROUNDEDRECTD19*%
%ADD20C,0.09055*%
%ADD21O,0.07087X0.07874*%
%ADD22R,0.11811X0.07087*%
%ADD23R,0.07874X0.05118*%
%ADD24C,0.19685*%
%ADD25R,0.07087X0.11811*%
%ADD26C,0.09843*%
%ADD27C,0.02362*%
%ADD28R,0.19685X0.11811*%
%ADD29R,0.04921X0.07874*%
%ADD30R,0.07874X0.04921*%
%ADD31R,0.03937X0.04724*%
G04:AMPARAMS|DCode=32|XSize=19.29mil|YSize=37.4mil|CornerRadius=0.97mil|HoleSize=0mil|Usage=FLASHONLY|Rotation=180.000|XOffset=0mil|YOffset=0mil|HoleType=Round|Shape=RoundedRectangle|*
%AMROUNDEDRECTD32*
21,1,0.01929,0.03547,0,0,180.0*
21,1,0.01736,0.03740,0,0,180.0*
1,1,0.00193,-0.00868,0.01774*
1,1,0.00193,0.00868,0.01774*
1,1,0.00193,0.00868,-0.01774*
1,1,0.00193,-0.00868,-0.01774*
%
%ADD32ROUNDEDRECTD32*%
%ADD33R,0.05512X0.04134*%
%ADD34R,0.05315X0.13189*%
%ADD35R,0.04134X0.05512*%
%ADD36R,0.07874X0.11811*%
G04:AMPARAMS|DCode=37|XSize=39.37mil|YSize=47.24mil|CornerRadius=1.97mil|HoleSize=0mil|Usage=FLASHONLY|Rotation=180.000|XOffset=0mil|YOffset=0mil|HoleType=Round|Shape=RoundedRectangle|*
%AMROUNDEDRECTD37*
21,1,0.03937,0.04331,0,0,180.0*
21,1,0.03543,0.04724,0,0,180.0*
1,1,0.00394,-0.01772,0.02165*
1,1,0.00394,0.01772,0.02165*
1,1,0.00394,0.01772,-0.02165*
1,1,0.00394,-0.01772,-0.02165*
%
%ADD37ROUNDEDRECTD37*%
%ADD38R,0.04724X0.03937*%
G04:AMPARAMS|DCode=39|XSize=236.22mil|YSize=255.9mil|CornerRadius=11.81mil|HoleSize=0mil|Usage=FLASHONLY|Rotation=0.000|XOffset=0mil|YOffset=0mil|HoleType=Round|Shape=RoundedRectangle|*
%AMROUNDEDRECTD39*
21,1,0.23622,0.23228,0,0,0.0*
21,1,0.21260,0.25590,0,0,0.0*
1,1,0.02362,0.10630,-0.11614*
1,1,0.02362,-0.10630,-0.11614*
1,1,0.02362,-0.10630,0.11614*
1,1,0.02362,0.10630,0.11614*
%
%ADD39ROUNDEDRECTD39*%
G04:AMPARAMS|DCode=40|XSize=55.12mil|YSize=118.11mil|CornerRadius=2.76mil|HoleSize=0mil|Usage=FLASHONLY|Rotation=180.000|XOffset=0mil|YOffset=0mil|HoleType=Round|Shape=RoundedRectangle|*
%AMROUNDEDRECTD40*
21,1,0.05512,0.11260,0,0,180.0*
21,1,0.04961,0.11811,0,0,180.0*
1,1,0.00551,-0.02480,0.05630*
1,1,0.00551,0.02480,0.05630*
1,1,0.00551,0.02480,-0.05630*
1,1,0.00551,-0.02480,-0.05630*
%
%ADD40ROUNDEDRECTD40*%
%ADD41R,0.21654X0.05906*%
G04:AMPARAMS|DCode=42|XSize=11.81mil|YSize=66.93mil|CornerRadius=0.59mil|HoleSize=0mil|Usage=FLASHONLY|Rotation=0.000|XOffset=0mil|YOffset=0mil|HoleType=Round|Shape=RoundedRectangle|*
%AMROUNDEDRECTD42*
21,1,0.01181,0.06575,0,0,0.0*
21,1,0.01063,0.06693,0,0,0.0*
1,1,0.00118,0.00532,-0.03287*
1,1,0.00118,-0.00532,-0.03287*
1,1,0.00118,-0.00532,0.03287*
1,1,0.00118,0.00532,0.03287*
%
%ADD42ROUNDEDRECTD42*%
G04:AMPARAMS|DCode=43|XSize=11.81mil|YSize=66.93mil|CornerRadius=0.59mil|HoleSize=0mil|Usage=FLASHONLY|Rotation=270.000|XOffset=0mil|YOffset=0mil|HoleType=Round|Shape=RoundedRectangle|*
%AMROUNDEDRECTD43*
21,1,0.01181,0.06575,0,0,270.0*
21,1,0.01063,0.06693,0,0,270.0*
1,1,0.00118,-0.03287,-0.00532*
1,1,0.00118,-0.03287,0.00532*
1,1,0.00118,0.03287,0.00532*
1,1,0.00118,0.03287,-0.00532*
%
%ADD43ROUNDEDRECTD43*%
G04:AMPARAMS|DCode=44|XSize=39.37mil|YSize=47.24mil|CornerRadius=1.97mil|HoleSize=0mil|Usage=FLASHONLY|Rotation=90.000|XOffset=0mil|YOffset=0mil|HoleType=Round|Shape=RoundedRectangle|*
%AMROUNDEDRECTD44*
21,1,0.03937,0.04331,0,0,90.0*
21,1,0.03543,0.04724,0,0,90.0*
1,1,0.00394,0.02165,0.01772*
1,1,0.00394,0.02165,-0.01772*
1,1,0.00394,-0.02165,-0.01772*
1,1,0.00394,-0.02165,0.01772*
%
%ADD44ROUNDEDRECTD44*%
%ADD45R,0.11811X0.19685*%
%ADD46C,0.06000*%
%ADD47C,0.10000*%
%ADD48C,0.02500*%
%ADD49C,0.05000*%
%ADD50C,0.03000*%
G36*
X1122380Y880200D02*
X1121138Y879439D01*
X1119724Y878231D01*
X1118517Y876818D01*
X1117546Y875233D01*
X1116834Y873515D01*
X1116400Y871707D01*
X1116254Y869854D01*
X1116400Y868001D01*
X1116834Y866193D01*
X1117546Y864475D01*
X1118517Y862890D01*
X1119724Y861476D01*
X1121138Y860269D01*
X1122723Y859298D01*
X1124441Y858586D01*
X1126248Y858152D01*
X1128102Y858006D01*
X1129955Y858152D01*
X1131763Y858586D01*
X1133480Y859298D01*
X1135066Y860269D01*
X1136479Y861476D01*
X1137687Y862890D01*
X1138658Y864475D01*
X1139369Y866193D01*
X1139804Y868001D01*
X1140300Y867957D01*
Y726081D01*
X1139804Y726038D01*
X1139369Y727846D01*
X1138658Y729564D01*
X1137687Y731149D01*
X1136479Y732562D01*
X1135066Y733770D01*
X1133480Y734741D01*
X1131763Y735453D01*
X1129955Y735886D01*
X1128102Y736032D01*
X1126248Y735886D01*
X1124441Y735453D01*
X1122723Y734741D01*
X1121138Y733770D01*
X1119724Y732562D01*
X1118517Y731149D01*
X1117546Y729564D01*
X1116834Y727846D01*
X1116400Y726038D01*
X1116254Y724185D01*
X1116400Y722331D01*
X1116834Y720524D01*
X1117546Y718806D01*
X1118517Y717221D01*
X1119724Y715807D01*
X1121138Y714600D01*
X1122723Y713629D01*
X1124441Y712917D01*
X1126248Y712483D01*
X1128102Y712337D01*
X1129955Y712483D01*
X1131763Y712917D01*
X1133480Y713629D01*
X1135066Y714600D01*
X1136479Y715807D01*
X1137687Y717221D01*
X1138658Y718806D01*
X1139369Y720524D01*
X1139804Y722331D01*
X1140300Y722288D01*
Y263700D01*
X902300D01*
X659300Y263700D01*
Y880700D01*
X669483D01*
X669624Y880200D01*
X668382Y879439D01*
X666968Y878231D01*
X665761Y876818D01*
X664790Y875233D01*
X664078Y873515D01*
X663644Y871707D01*
X663498Y869854D01*
X663644Y868001D01*
X664078Y866193D01*
X664790Y864475D01*
X665761Y862890D01*
X666968Y861476D01*
X668382Y860269D01*
X669967Y859298D01*
X671685Y858586D01*
X673493Y858152D01*
X675346Y858006D01*
X677199Y858152D01*
X679007Y858586D01*
X680725Y859298D01*
X682310Y860269D01*
X683723Y861476D01*
X684931Y862890D01*
X685902Y864475D01*
X686614Y866193D01*
X687048Y868001D01*
X687194Y869854D01*
X687048Y871707D01*
X686614Y873515D01*
X685902Y875233D01*
X684931Y876818D01*
X683723Y878231D01*
X682310Y879439D01*
X681068Y880200D01*
X681209Y880700D01*
X1122239D01*
X1122380Y880200D01*
D02*
G37*
%LPC*%
G36*
X819032Y402590D02*
X808008D01*
Y388810D01*
X808509D01*
Y352574D01*
X801489D01*
Y336826D01*
X825111D01*
Y352574D01*
X818531D01*
Y388810D01*
X819032D01*
Y402590D01*
D02*
G37*
G36*
X1121316Y354511D02*
X1114426D01*
Y343684D01*
X1121316D01*
Y354511D01*
D02*
G37*
G36*
X1130174Y341716D02*
X1123284D01*
Y330889D01*
X1130174D01*
Y341716D01*
D02*
G37*
G36*
X825111Y320574D02*
X814284D01*
Y313684D01*
X825111D01*
Y320574D01*
D02*
G37*
G36*
X1121316Y341716D02*
X1114426D01*
Y330889D01*
X1121316D01*
Y341716D01*
D02*
G37*
G36*
X1130174Y354511D02*
X1123284D01*
Y343684D01*
X1130174D01*
Y354511D01*
D02*
G37*
G36*
X780213Y400858D02*
X778592Y400698D01*
X777034Y400225D01*
X775597Y399458D01*
X774339Y398424D01*
X773305Y397165D01*
X772538Y395729D01*
X772065Y394171D01*
X771905Y392550D01*
X772065Y390929D01*
X772538Y389371D01*
X773305Y387934D01*
X774339Y386676D01*
X775597Y385642D01*
X777034Y384875D01*
X778592Y384402D01*
X780213Y384242D01*
X781834Y384402D01*
X783392Y384875D01*
X784829Y385642D01*
X786087Y386676D01*
X787121Y387934D01*
X787888Y389371D01*
X788361Y390929D01*
X788521Y392550D01*
X788361Y394171D01*
X787888Y395729D01*
X787121Y397165D01*
X786087Y398424D01*
X784829Y399458D01*
X783392Y400225D01*
X781834Y400698D01*
X780213Y400858D01*
D02*
G37*
G36*
X860213D02*
X858592Y400698D01*
X857034Y400225D01*
X855597Y399458D01*
X854339Y398424D01*
X853305Y397165D01*
X852538Y395729D01*
X852065Y394171D01*
X851905Y392550D01*
X852065Y390929D01*
X852538Y389371D01*
X853305Y387934D01*
X854339Y386676D01*
X855597Y385642D01*
X857034Y384875D01*
X858592Y384402D01*
X860213Y384242D01*
X861834Y384402D01*
X863392Y384875D01*
X864828Y385642D01*
X866087Y386676D01*
X867121Y387934D01*
X867888Y389371D01*
X868361Y390929D01*
X868521Y392550D01*
X868361Y394171D01*
X867888Y395729D01*
X867121Y397165D01*
X866087Y398424D01*
X864828Y399458D01*
X863392Y400225D01*
X861834Y400698D01*
X860213Y400858D01*
D02*
G37*
G36*
X940875Y403664D02*
X934969D01*
X933685Y403495D01*
X932487Y402999D01*
X931459Y402210D01*
X930671Y401182D01*
X930175Y399985D01*
X930006Y398700D01*
Y392794D01*
X930175Y391510D01*
X930671Y390313D01*
X931459Y389285D01*
X932487Y388496D01*
X933685Y388000D01*
X933919Y387969D01*
Y377771D01*
X933576D01*
Y370200D01*
X933576Y369700D01*
X933089Y369667D01*
X895511D01*
X895024Y369700D01*
X895024Y370200D01*
Y372357D01*
X895166Y372699D01*
X895303Y373735D01*
X895166Y374771D01*
X895024Y375114D01*
Y377771D01*
X894681D01*
Y387969D01*
X894915Y388000D01*
X896113Y388496D01*
X897141Y389285D01*
X897929Y390313D01*
X898425Y391510D01*
X898594Y392794D01*
Y398700D01*
X898425Y399985D01*
X897929Y401182D01*
X897141Y402210D01*
X896113Y402999D01*
X894915Y403495D01*
X893631Y403664D01*
X887725D01*
X886440Y403495D01*
X885243Y402999D01*
X884215Y402210D01*
X883426Y401182D01*
X882931Y399985D01*
X882761Y398700D01*
Y392794D01*
X882931Y391510D01*
X883426Y390313D01*
X884215Y389285D01*
X885243Y388496D01*
X886440Y388000D01*
X886675Y387969D01*
Y377771D01*
X885576D01*
Y370200D01*
X885576Y369700D01*
X885576Y369200D01*
Y361629D01*
X895024D01*
Y361662D01*
X909297D01*
Y358358D01*
X906642Y355703D01*
X836958D01*
X831303Y361358D01*
Y388810D01*
X832812D01*
Y402590D01*
X821788D01*
Y388810D01*
X823297D01*
Y359700D01*
X823434Y358664D01*
X823833Y357699D01*
X824470Y356870D01*
X832470Y348870D01*
X833299Y348234D01*
X834264Y347834D01*
X835300Y347697D01*
X908300D01*
X909336Y347834D01*
X910301Y348234D01*
X911130Y348870D01*
X916130Y353870D01*
X916766Y354699D01*
X917166Y355664D01*
X917303Y356700D01*
Y361662D01*
X933576D01*
Y361629D01*
X943024D01*
Y369200D01*
X943024Y369700D01*
X943024Y370200D01*
Y377771D01*
X941925D01*
Y387969D01*
X942159Y388000D01*
X943357Y388496D01*
X944385Y389285D01*
X945173Y390313D01*
X945669Y391510D01*
X945839Y392794D01*
Y398700D01*
X945669Y399985D01*
X945173Y401182D01*
X944385Y402210D01*
X943357Y402999D01*
X942159Y403495D01*
X940875Y403664D01*
D02*
G37*
G36*
X1072974Y365700D02*
X1068121D01*
Y360847D01*
X1068295Y360864D01*
X1069408Y361202D01*
X1070434Y361750D01*
X1071333Y362488D01*
X1072071Y363387D01*
X1072620Y364413D01*
X1072957Y365527D01*
X1072974Y365700D01*
D02*
G37*
G36*
X1068121Y372521D02*
Y367669D01*
X1072974D01*
X1072957Y367842D01*
X1072620Y368955D01*
X1072071Y369981D01*
X1071333Y370880D01*
X1070434Y371618D01*
X1069408Y372167D01*
X1068295Y372504D01*
X1068121Y372521D01*
D02*
G37*
G36*
X812316Y320574D02*
X801489D01*
Y313684D01*
X812316D01*
Y320574D01*
D02*
G37*
G36*
X704111Y310716D02*
X693284D01*
Y303826D01*
X704111D01*
Y310716D01*
D02*
G37*
G36*
X742363Y623330D02*
X739016D01*
Y620377D01*
X742363D01*
Y623330D01*
D02*
G37*
G36*
X1050280Y630424D02*
X1047229D01*
Y626684D01*
X1050280D01*
Y630424D01*
D02*
G37*
G36*
X1048874Y638902D02*
X1043032D01*
Y633061D01*
X1043399Y633097D01*
X1044697Y633491D01*
X1045894Y634130D01*
X1046943Y634991D01*
X1047804Y636040D01*
X1048444Y637237D01*
X1048838Y638536D01*
X1048874Y638902D01*
D02*
G37*
G36*
X749662Y638902D02*
X743820D01*
Y633060D01*
X744186Y633097D01*
X745485Y633491D01*
X746682Y634130D01*
X747731Y634991D01*
X748592Y636040D01*
X749231Y637237D01*
X749625Y638536D01*
X749662Y638902D01*
D02*
G37*
G36*
X812316Y311716D02*
X801489D01*
Y304826D01*
X812316D01*
Y311716D01*
D02*
G37*
G36*
X691316Y319574D02*
X680489D01*
Y312684D01*
X691316D01*
Y319574D01*
D02*
G37*
G36*
X704111D02*
X693284D01*
Y312684D01*
X704111D01*
Y319574D01*
D02*
G37*
G36*
X693300Y596633D02*
X689560D01*
Y593582D01*
X693300D01*
Y596633D01*
D02*
G37*
G36*
X825111Y311716D02*
X814284D01*
Y304826D01*
X825111D01*
Y311716D01*
D02*
G37*
G36*
X699009Y596633D02*
X695268D01*
Y593582D01*
X699009D01*
Y596633D01*
D02*
G37*
G36*
X685551Y410501D02*
X680630D01*
Y407056D01*
X685551D01*
Y410501D01*
D02*
G37*
G36*
X696549Y416257D02*
X692809D01*
Y416233D01*
X692441Y415914D01*
X692309Y415914D01*
X687520D01*
Y412469D01*
X692441D01*
Y412887D01*
X692809Y413206D01*
X692941Y413206D01*
X696549D01*
Y416257D01*
D02*
G37*
G36*
X702258D02*
X698518D01*
Y413206D01*
X702258D01*
Y416257D01*
D02*
G37*
G36*
X780213Y468417D02*
X778592Y468257D01*
X777034Y467784D01*
X775597Y467017D01*
X774339Y465983D01*
X773305Y464724D01*
X772538Y463288D01*
X772065Y461730D01*
X771905Y460109D01*
X772065Y458488D01*
X772538Y456930D01*
X773305Y455493D01*
X774339Y454235D01*
X775597Y453201D01*
X777034Y452434D01*
X778592Y451961D01*
X780213Y451801D01*
X781834Y451961D01*
X783392Y452434D01*
X784829Y453201D01*
X786087Y454235D01*
X787121Y455493D01*
X787888Y456930D01*
X788361Y458488D01*
X788521Y460109D01*
X788361Y461730D01*
X787888Y463288D01*
X787121Y464724D01*
X786087Y465983D01*
X784829Y467017D01*
X783392Y467784D01*
X781834Y468257D01*
X780213Y468417D01*
D02*
G37*
G36*
X1065371Y496716D02*
X1062320D01*
Y492976D01*
X1065371D01*
Y496716D01*
D02*
G37*
G36*
X860213Y468417D02*
X858592Y468257D01*
X857034Y467784D01*
X855597Y467017D01*
X854339Y465983D01*
X853305Y464724D01*
X852538Y463288D01*
X852065Y461730D01*
X851905Y460109D01*
X852065Y458488D01*
X852538Y456930D01*
X853305Y455493D01*
X854339Y454235D01*
X855597Y453201D01*
X857034Y452434D01*
X858592Y451961D01*
X860213Y451801D01*
X861834Y451961D01*
X863392Y452434D01*
X864828Y453201D01*
X866087Y454235D01*
X867121Y455493D01*
X867888Y456930D01*
X868361Y458488D01*
X868521Y460109D01*
X868361Y461730D01*
X867888Y463288D01*
X867121Y464724D01*
X866087Y465983D01*
X864828Y467017D01*
X863392Y467784D01*
X861834Y468257D01*
X860213Y468417D01*
D02*
G37*
G36*
X1065318Y448409D02*
X1062267D01*
Y444668D01*
X1065318D01*
Y448409D01*
D02*
G37*
G36*
X745316Y441890D02*
X740395D01*
Y438445D01*
X745316D01*
Y441890D01*
D02*
G37*
G36*
X752206Y436477D02*
X747285D01*
Y433032D01*
X752206D01*
Y436477D01*
D02*
G37*
G36*
Y441890D02*
X747285D01*
Y438445D01*
X752206D01*
Y441890D01*
D02*
G37*
G36*
X745316Y436477D02*
X740395D01*
Y433032D01*
X745316D01*
Y436477D01*
D02*
G37*
G36*
X1065318Y442700D02*
X1062267D01*
Y438960D01*
X1065318D01*
Y442700D01*
D02*
G37*
G36*
X996977Y498968D02*
X994024D01*
Y495621D01*
X996977D01*
Y498968D01*
D02*
G37*
G36*
X924056Y521010D02*
X923269D01*
X922424Y520842D01*
X921707Y520364D01*
X921550Y520128D01*
X921050D01*
X920893Y520364D01*
X920176Y520842D01*
X919331Y521010D01*
X915788D01*
X914943Y520842D01*
X914227Y520364D01*
X913972Y519982D01*
X913024D01*
Y520771D01*
X903576D01*
Y512700D01*
X903576D01*
Y512700D01*
X903576D01*
Y511291D01*
X902098D01*
X901888Y511451D01*
X901122Y511768D01*
X900300Y511877D01*
X899478Y511768D01*
X898712Y511451D01*
X898054Y510946D01*
X897549Y510288D01*
X897231Y509522D01*
X897123Y508700D01*
X897231Y507878D01*
X897549Y507112D01*
X898054Y506454D01*
X898712Y505949D01*
X899478Y505631D01*
X900300Y505523D01*
X901122Y505631D01*
X901888Y505949D01*
X902098Y506109D01*
X903576D01*
Y504694D01*
X872639D01*
X871864Y504592D01*
X871142Y504293D01*
X870521Y503817D01*
X869661Y502957D01*
X868975Y503165D01*
X867702Y503291D01*
X866428Y503165D01*
X865204Y502794D01*
X864075Y502190D01*
X863086Y501379D01*
X862274Y500389D01*
X861671Y499261D01*
X861300Y498036D01*
X861174Y496763D01*
X861300Y495490D01*
X861671Y494265D01*
X862274Y493137D01*
X863086Y492147D01*
X864075Y491336D01*
X865204Y490732D01*
X866428Y490361D01*
X867702Y490236D01*
X868975Y490361D01*
X870199Y490732D01*
X871328Y491336D01*
X872317Y492147D01*
X873129Y493137D01*
X873732Y494265D01*
X874104Y495490D01*
X874229Y496763D01*
X874104Y498036D01*
X874022Y498304D01*
X874320Y498706D01*
X903576D01*
Y491200D01*
X903576Y490700D01*
X903576Y490200D01*
Y489255D01*
X902144D01*
X901888Y489451D01*
X901122Y489769D01*
X900300Y489877D01*
X899478Y489769D01*
X898712Y489451D01*
X898054Y488946D01*
X897549Y488288D01*
X897231Y487522D01*
X897123Y486700D01*
X897231Y485878D01*
X897549Y485112D01*
X898054Y484454D01*
X898712Y483949D01*
X899478Y483632D01*
X900300Y483523D01*
X901122Y483632D01*
X901888Y483949D01*
X902051Y484074D01*
X903576D01*
Y482629D01*
X913024D01*
Y490200D01*
X913024Y490700D01*
X913024Y491136D01*
X913123Y491234D01*
X913623Y491027D01*
Y490306D01*
X917363D01*
Y487262D01*
X917297Y486763D01*
Y473608D01*
X916662D01*
Y461797D01*
X925521D01*
Y463699D01*
X930640D01*
X933919Y460420D01*
Y451557D01*
X933685Y451526D01*
X932487Y451030D01*
X931459Y450241D01*
X930671Y449213D01*
X930175Y448016D01*
X930006Y446732D01*
Y440826D01*
X930175Y439541D01*
X930671Y438344D01*
X931459Y437316D01*
X932487Y436527D01*
X933685Y436031D01*
X934969Y435862D01*
X940875D01*
X942159Y436031D01*
X943357Y436527D01*
X944385Y437316D01*
X945173Y438344D01*
X945669Y439541D01*
X945839Y440826D01*
Y446732D01*
X945669Y448016D01*
X945173Y449213D01*
X944385Y450241D01*
X943357Y451030D01*
X942159Y451526D01*
X941925Y451557D01*
Y462078D01*
X941788Y463114D01*
X941389Y464079D01*
X940752Y464908D01*
X935128Y470533D01*
X934299Y471169D01*
X933334Y471568D01*
X932298Y471705D01*
X925521D01*
Y473608D01*
X925303D01*
Y486763D01*
X925237Y487262D01*
Y490306D01*
X928977D01*
Y493653D01*
X925040D01*
Y494637D01*
X924056D01*
Y498968D01*
X921437D01*
X921267Y499468D01*
X921417Y499583D01*
X923417Y501583D01*
X923893Y502203D01*
X924192Y502925D01*
X924294Y503700D01*
Y504810D01*
X924633Y505036D01*
X925111Y505753D01*
X925279Y506598D01*
Y510928D01*
X925111Y511773D01*
X925078Y511823D01*
X925314Y512264D01*
X926812D01*
X927657Y512432D01*
X928373Y512911D01*
X928852Y513627D01*
X929020Y514472D01*
Y515653D01*
X925040D01*
Y516637D01*
X924056D01*
Y521010D01*
D02*
G37*
G36*
X1048576Y521968D02*
X1045623D01*
Y518621D01*
X1048576D01*
Y521968D01*
D02*
G37*
G36*
X685551Y415914D02*
X680630D01*
Y412469D01*
X685551D01*
Y415914D01*
D02*
G37*
G36*
X692441Y410501D02*
X687520D01*
Y407056D01*
X692441D01*
Y410501D01*
D02*
G37*
G36*
X722300Y426877D02*
X721478Y426768D01*
X720712Y426451D01*
X720054Y425946D01*
X719549Y425288D01*
X719232Y424522D01*
X719123Y423700D01*
X719232Y422878D01*
X719549Y422112D01*
X719683Y421937D01*
Y418540D01*
X719460Y418207D01*
X719300Y417401D01*
Y413854D01*
X719460Y413048D01*
X719917Y412365D01*
X720600Y411908D01*
X721406Y411748D01*
X723142D01*
X723947Y411908D01*
X724630Y412365D01*
X725087Y413048D01*
X725247Y413854D01*
Y417401D01*
X725087Y418207D01*
X724864Y418540D01*
Y421868D01*
X725051Y422112D01*
X725368Y422878D01*
X725477Y423700D01*
X725368Y424522D01*
X725051Y425288D01*
X724546Y425946D01*
X723888Y426451D01*
X723122Y426768D01*
X722300Y426877D01*
D02*
G37*
G36*
X926812Y521010D02*
X926024D01*
Y517621D01*
X929020D01*
Y518802D01*
X928852Y519647D01*
X928373Y520364D01*
X927657Y520842D01*
X926812Y521010D01*
D02*
G37*
G36*
X992056Y498968D02*
X981623D01*
Y497631D01*
X980024D01*
Y498771D01*
X970576D01*
Y491200D01*
X970576Y490700D01*
X970576Y490200D01*
Y482629D01*
X972709D01*
Y480498D01*
X972549Y480288D01*
X972231Y479522D01*
X972123Y478700D01*
X972231Y477878D01*
X972549Y477112D01*
X973054Y476454D01*
X973712Y475949D01*
X974478Y475632D01*
X975300Y475523D01*
X976122Y475632D01*
X976888Y475949D01*
X977546Y476454D01*
X978051Y477112D01*
X978368Y477878D01*
X978477Y478700D01*
X978368Y479522D01*
X978051Y480288D01*
X977891Y480498D01*
Y482629D01*
X980024D01*
Y490200D01*
X980024Y490700D01*
X980024Y491289D01*
X980378Y491643D01*
X981623D01*
Y490306D01*
X985363D01*
Y487262D01*
X985297Y486763D01*
Y473608D01*
X984662D01*
Y461797D01*
X993521D01*
Y463699D01*
X998640D01*
X1001919Y460420D01*
Y451557D01*
X1001685Y451526D01*
X1000487Y451030D01*
X999459Y450241D01*
X998671Y449213D01*
X998175Y448016D01*
X998006Y446732D01*
Y440826D01*
X998175Y439541D01*
X998671Y438344D01*
X999459Y437316D01*
X1000487Y436527D01*
X1001685Y436031D01*
X1002969Y435862D01*
X1008875D01*
X1010159Y436031D01*
X1011357Y436527D01*
X1012385Y437316D01*
X1013173Y438344D01*
X1013669Y439541D01*
X1013838Y440826D01*
Y446732D01*
X1013669Y448016D01*
X1013173Y449213D01*
X1012385Y450241D01*
X1011357Y451030D01*
X1010159Y451526D01*
X1009925Y451557D01*
Y462078D01*
X1009788Y463114D01*
X1009389Y464079D01*
X1008752Y464908D01*
X1003128Y470533D01*
X1002299Y471169D01*
X1001334Y471568D01*
X1000298Y471705D01*
X993521D01*
Y473608D01*
X993303D01*
Y486763D01*
X993237Y487262D01*
Y490306D01*
X996977D01*
Y493653D01*
X993040D01*
Y494637D01*
X992056D01*
Y498968D01*
D02*
G37*
G36*
X928977D02*
X926024D01*
Y495621D01*
X928977D01*
Y498968D01*
D02*
G37*
G36*
X1062320Y502424D02*
Y498684D01*
X1065371D01*
Y502424D01*
X1062320D01*
D02*
G37*
G36*
X1072024Y507680D02*
X1068284D01*
Y504629D01*
X1072024D01*
Y507680D01*
D02*
G37*
G36*
X1066316D02*
X1062576D01*
Y504629D01*
X1066316D01*
Y507680D01*
D02*
G37*
G36*
X741851Y672303D02*
X741485Y672267D01*
X740186Y671873D01*
X738989Y671234D01*
X737940Y670372D01*
X737079Y669323D01*
X736439Y668126D01*
X736045Y666828D01*
X736009Y666461D01*
X741851D01*
Y672303D01*
D02*
G37*
G36*
X698111Y666716D02*
X687284D01*
Y659826D01*
X698111D01*
Y666716D01*
D02*
G37*
G36*
X743820Y672303D02*
Y666461D01*
X749662D01*
X749625Y666828D01*
X749231Y668126D01*
X748592Y669323D01*
X747731Y670372D01*
X746682Y671234D01*
X745485Y671873D01*
X744186Y672267D01*
X743820Y672303D01*
D02*
G37*
G36*
X1043032D02*
Y666461D01*
X1048874D01*
X1048838Y666828D01*
X1048444Y668126D01*
X1047804Y669323D01*
X1046943Y670372D01*
X1045894Y671234D01*
X1044697Y671873D01*
X1043399Y672267D01*
X1043032Y672303D01*
D02*
G37*
G36*
X1041064D02*
X1040697Y672267D01*
X1039399Y671873D01*
X1038202Y671234D01*
X1037153Y670372D01*
X1036292Y669323D01*
X1035652Y668126D01*
X1035258Y666828D01*
X1035222Y666461D01*
X1041064D01*
Y672303D01*
D02*
G37*
G36*
X685316Y666716D02*
X674489D01*
Y659826D01*
X685316D01*
Y666716D01*
D02*
G37*
G36*
X741851Y664493D02*
X736009D01*
X736045Y664126D01*
X736439Y662828D01*
X737079Y661631D01*
X737940Y660582D01*
X738989Y659721D01*
X740186Y659081D01*
X741485Y658687D01*
X741851Y658651D01*
Y664493D01*
D02*
G37*
G36*
X1048874Y664493D02*
X1043032D01*
Y658651D01*
X1043399Y658687D01*
X1044697Y659081D01*
X1045894Y659721D01*
X1046943Y660582D01*
X1047804Y661631D01*
X1048444Y662828D01*
X1048838Y664126D01*
X1048874Y664493D01*
D02*
G37*
G36*
X954386Y664493D02*
X948544D01*
Y658651D01*
X948911Y658687D01*
X950209Y659081D01*
X951406Y659721D01*
X952455Y660582D01*
X953316Y661631D01*
X953956Y662828D01*
X954350Y664126D01*
X954386Y664493D01*
D02*
G37*
G36*
X946576D02*
X940734D01*
X940770Y664126D01*
X941164Y662828D01*
X941803Y661631D01*
X942665Y660582D01*
X943714Y659721D01*
X944911Y659081D01*
X946209Y658687D01*
X946576Y658651D01*
Y664493D01*
D02*
G37*
G36*
X844150Y664493D02*
X838308D01*
Y658651D01*
X838674Y658687D01*
X839973Y659081D01*
X841170Y659721D01*
X842219Y660582D01*
X843080Y661631D01*
X843720Y662828D01*
X844114Y664126D01*
X844150Y664493D01*
D02*
G37*
G36*
X836339Y672303D02*
X835973Y672267D01*
X834674Y671873D01*
X833477Y671234D01*
X832428Y670372D01*
X831567Y669323D01*
X830927Y668126D01*
X830534Y666828D01*
X830497Y666461D01*
X836339D01*
Y672303D01*
D02*
G37*
G36*
X850024Y693680D02*
X846284D01*
Y690629D01*
X850024D01*
Y693680D01*
D02*
G37*
G36*
X844316D02*
X840576D01*
Y690629D01*
X844316D01*
Y693680D01*
D02*
G37*
G36*
X804473Y695716D02*
X799976D01*
X800088Y694867D01*
X800643Y693527D01*
X801526Y692375D01*
X802678Y691492D01*
X804019Y690936D01*
X804473Y690876D01*
Y695716D01*
D02*
G37*
G36*
X675772Y736023D02*
X673919Y735878D01*
X672111Y735443D01*
X670393Y734732D01*
X668808Y733761D01*
X667394Y732553D01*
X666187Y731140D01*
X665216Y729555D01*
X664504Y727837D01*
X664070Y726029D01*
X663924Y724176D01*
X664070Y722323D01*
X664504Y720515D01*
X665216Y718797D01*
X666187Y717212D01*
X667394Y715798D01*
X668808Y714591D01*
X670393Y713620D01*
X672111Y712908D01*
X673919Y712474D01*
X675772Y712328D01*
X677625Y712474D01*
X679433Y712908D01*
X681151Y713620D01*
X682736Y714591D01*
X684149Y715798D01*
X685357Y717212D01*
X686328Y718797D01*
X687040Y720515D01*
X687474Y722323D01*
X687619Y724176D01*
X687474Y726029D01*
X687040Y727837D01*
X686328Y729555D01*
X685357Y731140D01*
X684149Y732553D01*
X682736Y733761D01*
X681151Y734732D01*
X679433Y735443D01*
X677625Y735878D01*
X675772Y736023D01*
D02*
G37*
G36*
X804473Y702524D02*
X804019Y702464D01*
X802678Y701908D01*
X801526Y701025D01*
X800643Y699873D01*
X800088Y698533D01*
X799976Y697684D01*
X804473D01*
Y702524D01*
D02*
G37*
G36*
X691316Y310716D02*
X680489D01*
Y303826D01*
X691316D01*
Y310716D01*
D02*
G37*
G36*
X946576Y672303D02*
X946209Y672267D01*
X944911Y671873D01*
X943714Y671234D01*
X942665Y670372D01*
X941803Y669323D01*
X941164Y668126D01*
X940770Y666828D01*
X940734Y666462D01*
X946576D01*
Y672303D01*
D02*
G37*
G36*
X838308Y672303D02*
Y666461D01*
X844150D01*
X844114Y666828D01*
X843720Y668126D01*
X843080Y669323D01*
X842219Y670372D01*
X841170Y671234D01*
X839973Y671873D01*
X838674Y672267D01*
X838308Y672303D01*
D02*
G37*
G36*
X948544Y672303D02*
Y666462D01*
X954386D01*
X954350Y666828D01*
X953956Y668126D01*
X953316Y669323D01*
X952455Y670372D01*
X951406Y671234D01*
X950209Y671873D01*
X948911Y672267D01*
X948544Y672303D01*
D02*
G37*
G36*
X698111Y675574D02*
X687284D01*
Y668684D01*
X698111D01*
Y675574D01*
D02*
G37*
G36*
X685316D02*
X674489D01*
Y668684D01*
X685316D01*
Y675574D01*
D02*
G37*
G36*
X1041064Y664493D02*
X1035222D01*
X1035258Y664126D01*
X1035652Y662828D01*
X1036292Y661631D01*
X1037153Y660582D01*
X1038202Y659721D01*
X1039399Y659081D01*
X1040697Y658687D01*
X1041064Y658651D01*
Y664493D01*
D02*
G37*
G36*
X743820Y646713D02*
Y640871D01*
X749662D01*
X749625Y641237D01*
X749231Y642536D01*
X748592Y643733D01*
X747731Y644782D01*
X746682Y645643D01*
X745485Y646283D01*
X744186Y646677D01*
X743820Y646713D01*
D02*
G37*
G36*
X741851Y646713D02*
X741485Y646677D01*
X740186Y646283D01*
X738989Y645643D01*
X737940Y644782D01*
X737079Y643733D01*
X736439Y642536D01*
X736045Y641237D01*
X736009Y640871D01*
X741851D01*
Y646713D01*
D02*
G37*
G36*
X1041064D02*
X1040697Y646677D01*
X1039399Y646283D01*
X1038202Y645643D01*
X1037153Y644782D01*
X1036292Y643733D01*
X1035652Y642536D01*
X1035258Y641237D01*
X1035222Y640871D01*
X1041064D01*
Y646713D01*
D02*
G37*
G36*
X946576Y646713D02*
X946209Y646677D01*
X944911Y646283D01*
X943714Y645643D01*
X942665Y644782D01*
X941803Y643733D01*
X941164Y642536D01*
X940770Y641237D01*
X940734Y640871D01*
X946576D01*
Y646713D01*
D02*
G37*
G36*
X1043032Y646713D02*
Y640871D01*
X1048874D01*
X1048838Y641237D01*
X1048444Y642536D01*
X1047804Y643733D01*
X1046943Y644782D01*
X1045894Y645643D01*
X1044697Y646283D01*
X1043399Y646677D01*
X1043032Y646713D01*
D02*
G37*
G36*
X946576Y638902D02*
X940734D01*
X940770Y638536D01*
X941164Y637237D01*
X941803Y636040D01*
X942665Y634991D01*
X943714Y634130D01*
X944911Y633491D01*
X946209Y633097D01*
X946576Y633061D01*
Y638902D01*
D02*
G37*
G36*
X844150Y638903D02*
X838308D01*
Y633061D01*
X838674Y633097D01*
X839973Y633491D01*
X841170Y634130D01*
X842219Y634991D01*
X843080Y636040D01*
X843720Y637237D01*
X844114Y638536D01*
X844150Y638903D01*
D02*
G37*
G36*
X836339D02*
X830497D01*
X830534Y638536D01*
X830927Y637237D01*
X831567Y636040D01*
X832428Y634991D01*
X833477Y634130D01*
X834674Y633491D01*
X835973Y633097D01*
X836339Y633061D01*
Y638903D01*
D02*
G37*
G36*
X1041064Y638902D02*
X1035222D01*
X1035258Y638536D01*
X1035652Y637237D01*
X1036292Y636040D01*
X1037153Y634991D01*
X1038202Y634130D01*
X1039399Y633491D01*
X1040697Y633097D01*
X1041064Y633061D01*
Y638902D01*
D02*
G37*
G36*
X741851Y638902D02*
X736009D01*
X736045Y638536D01*
X736439Y637237D01*
X737079Y636040D01*
X737940Y634991D01*
X738989Y634130D01*
X740186Y633491D01*
X741485Y633097D01*
X741851Y633061D01*
Y638902D01*
D02*
G37*
G36*
X954386Y638902D02*
X948544D01*
Y633061D01*
X948911Y633097D01*
X950209Y633491D01*
X951406Y634130D01*
X952455Y634991D01*
X953316Y636040D01*
X953956Y637237D01*
X954350Y638536D01*
X954386Y638902D01*
D02*
G37*
G36*
X948544Y646713D02*
Y640871D01*
X954386D01*
X954350Y641237D01*
X953956Y642536D01*
X953316Y643733D01*
X952455Y644782D01*
X951406Y645643D01*
X950209Y646283D01*
X948911Y646677D01*
X948544Y646713D01*
D02*
G37*
G36*
X779024Y651771D02*
X775284D01*
Y648720D01*
X779024D01*
Y651771D01*
D02*
G37*
G36*
X874024D02*
X870284D01*
Y648720D01*
X874024D01*
Y651771D01*
D02*
G37*
G36*
X984024D02*
X980284D01*
Y648720D01*
X984024D01*
Y651771D01*
D02*
G37*
G36*
X749662Y664493D02*
X743820D01*
Y658651D01*
X744186Y658687D01*
X745485Y659081D01*
X746682Y659721D01*
X747731Y660582D01*
X748592Y661631D01*
X749231Y662828D01*
X749625Y664126D01*
X749662Y664493D01*
D02*
G37*
G36*
X836339Y664493D02*
X830497D01*
X830534Y664126D01*
X830927Y662828D01*
X831567Y661631D01*
X832428Y660582D01*
X833477Y659721D01*
X834674Y659081D01*
X835973Y658687D01*
X836339Y658651D01*
Y664493D01*
D02*
G37*
G36*
X978316Y651771D02*
X974576D01*
Y648720D01*
X978316D01*
Y651771D01*
D02*
G37*
G36*
X838308Y646713D02*
Y640871D01*
X844150D01*
X844114Y641237D01*
X843720Y642536D01*
X843080Y643733D01*
X842219Y644782D01*
X841170Y645643D01*
X839973Y646283D01*
X838674Y646677D01*
X838308Y646713D01*
D02*
G37*
G36*
X836339Y646713D02*
X835973Y646677D01*
X834674Y646283D01*
X833477Y645643D01*
X832428Y644782D01*
X831567Y643733D01*
X830927Y642536D01*
X830534Y641237D01*
X830497Y640871D01*
X836339D01*
Y646713D01*
D02*
G37*
G36*
X1010300Y767694D02*
X717300D01*
X716525Y767592D01*
X715803Y767293D01*
X715183Y766817D01*
X703103Y754738D01*
X702628Y754118D01*
X702328Y753396D01*
X702226Y752621D01*
Y734665D01*
X701677Y734244D01*
X700881Y733206D01*
X700380Y731997D01*
X700209Y730700D01*
Y728113D01*
X699709D01*
Y712364D01*
X794236D01*
Y720238D01*
Y728113D01*
X790232D01*
Y728700D01*
X790061Y729997D01*
X789561Y731206D01*
X788764Y732244D01*
X788215Y732665D01*
Y738380D01*
X795540Y745706D01*
X809418D01*
X809610Y745244D01*
X803103Y738738D01*
X802628Y738118D01*
X802328Y737395D01*
X802227Y736621D01*
Y732395D01*
X801677Y731973D01*
X800881Y730935D01*
X800380Y729727D01*
X800209Y728430D01*
Y728113D01*
X796205D01*
Y720238D01*
Y712364D01*
X810209D01*
Y711700D01*
X810380Y710403D01*
X810881Y709194D01*
X811677Y708156D01*
X811974Y707928D01*
Y701489D01*
X811369Y701025D01*
X810682Y700129D01*
X810076D01*
X809389Y701025D01*
X808237Y701908D01*
X806896Y702464D01*
X806442Y702524D01*
Y696700D01*
Y690876D01*
X806896Y690936D01*
X808237Y691492D01*
X809389Y692375D01*
X810076Y693271D01*
X810682D01*
X811369Y692375D01*
X812520Y691492D01*
X813861Y690936D01*
X815300Y690747D01*
X816739Y690936D01*
X818080Y691492D01*
X819231Y692375D01*
X819918Y693271D01*
X820524D01*
X821212Y692375D01*
X822363Y691492D01*
X823704Y690936D01*
X825142Y690747D01*
X826581Y690936D01*
X827922Y691492D01*
X829074Y692375D01*
X829957Y693527D01*
X830513Y694867D01*
X830702Y696306D01*
Y697094D01*
X830513Y698533D01*
X830288Y699073D01*
X830566Y699489D01*
X840222D01*
X840576Y699136D01*
X840576Y698700D01*
X840576Y698200D01*
Y695649D01*
X850024D01*
Y698200D01*
X850024Y698700D01*
X850024Y699200D01*
Y706771D01*
X848467D01*
Y708928D01*
X848764Y709156D01*
X849561Y710194D01*
X850061Y711403D01*
X850188Y712364D01*
X860732D01*
Y716992D01*
X863229D01*
Y715976D01*
X870800D01*
X871300Y715976D01*
Y715976D01*
X871300D01*
Y715976D01*
X879371D01*
Y717454D01*
X881579D01*
X881637Y717367D01*
X882353Y716889D01*
X883198Y716721D01*
X887528D01*
X888373Y716889D01*
X888423Y716922D01*
X888864Y716686D01*
Y715188D01*
X889032Y714343D01*
X889511Y713627D01*
X890227Y713148D01*
X891072Y712980D01*
X892253D01*
Y716960D01*
X894221D01*
Y712980D01*
X895402D01*
X896247Y713148D01*
X896964Y713627D01*
X897442Y714343D01*
X897610Y715188D01*
Y716146D01*
X898072Y716337D01*
X899576Y714833D01*
Y712629D01*
X909024D01*
Y720700D01*
X909024D01*
Y720700D01*
X909024D01*
Y728771D01*
X906891D01*
Y730963D01*
X910037Y734109D01*
X994668D01*
X994783Y733994D01*
Y641534D01*
X994321Y641342D01*
X994132Y641532D01*
X993595Y641944D01*
X992970Y642202D01*
X992300Y642291D01*
X984378D01*
X984024Y642644D01*
X984024Y643700D01*
X984024Y644200D01*
Y646751D01*
X979300D01*
X974576D01*
Y644200D01*
X974576Y643700D01*
X974206Y643385D01*
X971219D01*
X971033Y643733D01*
X970288Y644641D01*
Y660723D01*
X971033Y661631D01*
X971673Y662828D01*
X972066Y664126D01*
X972200Y665477D01*
X972066Y666828D01*
X971673Y668126D01*
X971033Y669323D01*
X970172Y670372D01*
X969123Y671234D01*
X967926Y671873D01*
X966627Y672267D01*
X965276Y672400D01*
X963926Y672267D01*
X962627Y671873D01*
X961430Y671234D01*
X960381Y670372D01*
X959520Y669323D01*
X958880Y668126D01*
X958486Y666828D01*
X958353Y665477D01*
X958486Y664126D01*
X958880Y662828D01*
X959520Y661631D01*
X960265Y660723D01*
Y644641D01*
X959520Y643733D01*
X958880Y642536D01*
X958486Y641237D01*
X958353Y639887D01*
X958486Y638536D01*
X958880Y637237D01*
X959520Y636040D01*
X960381Y634991D01*
X961430Y634130D01*
X962627Y633491D01*
X963926Y633097D01*
X965276Y632964D01*
X966627Y633097D01*
X967926Y633491D01*
X969123Y634130D01*
X970172Y634991D01*
X971033Y636040D01*
X971219Y636388D01*
X974576D01*
Y635629D01*
X984024D01*
Y637109D01*
X991227D01*
X994851Y633485D01*
Y629978D01*
X994528Y629914D01*
X994178Y629680D01*
X993944Y629330D01*
X993862Y628917D01*
Y622342D01*
X993944Y621929D01*
X994178Y621578D01*
X994528Y621344D01*
X994566Y621337D01*
X994730Y620794D01*
X994206Y620270D01*
X993663Y620434D01*
X993656Y620471D01*
X993422Y620822D01*
X993071Y621056D01*
X992658Y621138D01*
X991372D01*
X991203Y621359D01*
X990666Y621770D01*
X990041Y622029D01*
X989371Y622117D01*
X874546D01*
X871669Y624995D01*
Y635629D01*
X874024D01*
Y643200D01*
X874024Y643700D01*
X874024Y644200D01*
Y646751D01*
X869300D01*
X864576D01*
X864576Y643486D01*
X864222Y643133D01*
X861117D01*
X860797Y643733D01*
X860052Y644641D01*
Y660723D01*
X860797Y661631D01*
X861436Y662828D01*
X861830Y664126D01*
X861963Y665477D01*
X861830Y666828D01*
X861436Y668126D01*
X860797Y669323D01*
X859935Y670372D01*
X858886Y671234D01*
X857689Y671873D01*
X856391Y672267D01*
X855040Y672400D01*
X853689Y672267D01*
X852391Y671873D01*
X851194Y671234D01*
X850145Y670372D01*
X849284Y669323D01*
X848644Y668126D01*
X848250Y666828D01*
X848117Y665477D01*
X848250Y664126D01*
X848644Y662828D01*
X849284Y661631D01*
X850029Y660723D01*
Y644641D01*
X849284Y643733D01*
X848644Y642536D01*
X848250Y641237D01*
X848117Y639887D01*
X848250Y638536D01*
X848644Y637237D01*
X849284Y636040D01*
X850145Y634991D01*
X851194Y634130D01*
X852391Y633491D01*
X853689Y633097D01*
X855040Y632964D01*
X856391Y633097D01*
X857689Y633491D01*
X858886Y634130D01*
X859935Y634991D01*
X860797Y636040D01*
X861117Y636640D01*
X864576D01*
Y635629D01*
X866487D01*
Y623922D01*
X866576Y623251D01*
X866834Y622627D01*
X867246Y622090D01*
X868725Y620611D01*
X868534Y620149D01*
X780515D01*
X776669Y623995D01*
Y635629D01*
X779024D01*
Y643200D01*
X779024Y643700D01*
X779024Y644200D01*
Y646751D01*
X774300D01*
X769576D01*
X769576Y643486D01*
X769222Y643133D01*
X766629D01*
X766308Y643733D01*
X765563Y644641D01*
Y660723D01*
X766308Y661631D01*
X766948Y662828D01*
X767342Y664126D01*
X767475Y665477D01*
X767342Y666828D01*
X766948Y668126D01*
X766308Y669323D01*
X765447Y670372D01*
X764398Y671234D01*
X763201Y671873D01*
X761903Y672267D01*
X760552Y672400D01*
X759201Y672267D01*
X757903Y671873D01*
X756706Y671234D01*
X755657Y670372D01*
X754796Y669323D01*
X754156Y668126D01*
X753762Y666828D01*
X753629Y665477D01*
X753762Y664126D01*
X754156Y662828D01*
X754796Y661631D01*
X755541Y660723D01*
Y644641D01*
X754796Y643733D01*
X754156Y642536D01*
X753762Y641237D01*
X753629Y639887D01*
X753762Y638536D01*
X754156Y637237D01*
X754796Y636040D01*
X755657Y634991D01*
X756706Y634130D01*
X757903Y633491D01*
X759201Y633097D01*
X760552Y632964D01*
X761903Y633097D01*
X763201Y633491D01*
X764398Y634130D01*
X765447Y634991D01*
X766308Y636040D01*
X766629Y636640D01*
X769576D01*
Y635629D01*
X771487D01*
Y622922D01*
X771576Y622252D01*
X771834Y621627D01*
X772246Y621090D01*
X774694Y618642D01*
X774503Y618180D01*
X767024D01*
Y619771D01*
X757576D01*
Y618208D01*
X755552D01*
Y619590D01*
X747678D01*
Y623330D01*
X744332D01*
Y619393D01*
X743347D01*
Y618409D01*
X739016D01*
Y615456D01*
Y614503D01*
X737200D01*
Y614726D01*
X733980D01*
X733909Y615264D01*
X733650Y615889D01*
X733238Y616426D01*
X730910Y618753D01*
Y620976D01*
X732371D01*
Y630424D01*
X724800D01*
X724300Y630424D01*
X723800Y630424D01*
X716229D01*
Y628694D01*
X701300D01*
Y636700D01*
X672300D01*
Y614700D01*
X701300D01*
Y622706D01*
X716229D01*
Y620976D01*
X717658D01*
Y619722D01*
X715452Y617516D01*
X715041Y616980D01*
X714782Y616355D01*
X714693Y615684D01*
Y614726D01*
X711389D01*
Y608279D01*
X710009D01*
Y609724D01*
X700560D01*
Y608279D01*
X699009D01*
Y609724D01*
X689560D01*
Y602153D01*
X689560Y601653D01*
X689560Y601153D01*
Y598601D01*
X694284D01*
X699009D01*
Y601153D01*
X699009Y601653D01*
X699009Y602153D01*
Y603097D01*
X700206D01*
X700560Y602744D01*
X700560Y601653D01*
X700560Y601153D01*
Y593582D01*
X702694D01*
Y586590D01*
X701300D01*
Y592700D01*
X672300D01*
Y571700D01*
X701300D01*
Y578716D01*
X708890D01*
Y574976D01*
X717552D01*
X717560Y574582D01*
X719308D01*
X719392Y573941D01*
X719691Y573219D01*
X720167Y572599D01*
X722183Y570583D01*
X722803Y570107D01*
X723525Y569808D01*
X724300Y569706D01*
X740300D01*
X741075Y569808D01*
X741797Y570107D01*
X742417Y570583D01*
X746417Y574583D01*
X746893Y575203D01*
X747192Y575925D01*
X747294Y576700D01*
Y597460D01*
X748540Y598706D01*
X760300D01*
X761075Y598808D01*
X761797Y599107D01*
X762417Y599583D01*
X764417Y601583D01*
X764893Y602203D01*
X765192Y602925D01*
X765285Y603629D01*
X767024D01*
Y604670D01*
X775265D01*
X776040Y604773D01*
X776762Y605072D01*
X777382Y605547D01*
X779540Y607706D01*
X792060D01*
X794306Y605460D01*
Y465999D01*
X791595D01*
Y452219D01*
X793719D01*
Y440287D01*
X793821Y439512D01*
X794120Y438790D01*
X794596Y438170D01*
X797183Y435583D01*
X797803Y435107D01*
X798102Y434983D01*
X798525Y434808D01*
X799300Y434706D01*
X800576D01*
Y433629D01*
X810024D01*
Y434670D01*
X811576D01*
Y433629D01*
X821024D01*
Y434670D01*
X821576D01*
Y433629D01*
X831024D01*
Y434166D01*
X833370D01*
X833822Y434226D01*
X834275Y434285D01*
X835119Y434635D01*
X835843Y435191D01*
X841774Y441121D01*
X842330Y441846D01*
X842679Y442690D01*
X842798Y443595D01*
Y529251D01*
X848749Y535202D01*
X937851D01*
X943826Y529226D01*
X944551Y528670D01*
X945395Y528321D01*
X946300Y528202D01*
X1062222D01*
X1062576Y527848D01*
X1062576Y527200D01*
Y520631D01*
X1060977D01*
Y521968D01*
X1050544D01*
Y517637D01*
X1049560D01*
Y516653D01*
X1045623D01*
Y513306D01*
X1047300D01*
Y489196D01*
X1045373D01*
Y487703D01*
X1043371D01*
Y488424D01*
X1035800D01*
X1035300Y488424D01*
X1035267Y488911D01*
Y515735D01*
X1035131Y516771D01*
X1034731Y517737D01*
X1034095Y518566D01*
X1028130Y524530D01*
X1027301Y525167D01*
X1026336Y525566D01*
X1025300Y525703D01*
X940958D01*
X936130Y530530D01*
X935301Y531167D01*
X934336Y531566D01*
X933300Y531703D01*
X871826D01*
X871328Y532112D01*
X870199Y532715D01*
X868975Y533086D01*
X867702Y533212D01*
X866428Y533086D01*
X865204Y532715D01*
X864075Y532112D01*
X863086Y531300D01*
X862274Y530311D01*
X861671Y529182D01*
X861300Y527958D01*
X861174Y526684D01*
X861300Y525411D01*
X861671Y524186D01*
X862274Y523058D01*
X863086Y522069D01*
X864075Y521257D01*
X865204Y520654D01*
X866428Y520282D01*
X867702Y520157D01*
X868975Y520282D01*
X870199Y520654D01*
X871328Y521257D01*
X872317Y522069D01*
X873129Y523058D01*
X873471Y523697D01*
X931642D01*
X936470Y518870D01*
X937299Y518233D01*
X938264Y517834D01*
X939300Y517697D01*
X1023642D01*
X1027262Y514077D01*
Y488424D01*
X1027229D01*
Y478976D01*
X1027262D01*
Y468424D01*
X1027229D01*
Y458976D01*
X1027262D01*
Y407424D01*
X1027229D01*
Y397976D01*
X1034800D01*
X1035300Y397976D01*
X1035800Y397976D01*
X1043371D01*
Y396771D01*
X1043300Y396700D01*
X1044300D01*
Y370687D01*
X1028974D01*
X1023303Y376358D01*
Y420700D01*
X1023166Y421736D01*
X1022766Y422701D01*
X1022130Y423530D01*
X1012130Y433530D01*
X1011301Y434166D01*
X1010336Y434566D01*
X1009300Y434703D01*
X986303D01*
Y443875D01*
X986537Y443905D01*
X987735Y444401D01*
X988763Y445190D01*
X989552Y446218D01*
X990047Y447415D01*
X990217Y448700D01*
Y454605D01*
X990047Y455890D01*
X989552Y457087D01*
X988763Y458115D01*
X987735Y458904D01*
X986537Y459400D01*
X985253Y459569D01*
X979347D01*
X978063Y459400D01*
X976865Y458904D01*
X975837Y458115D01*
X975049Y457087D01*
X974553Y455890D01*
X974384Y454605D01*
Y448700D01*
X974553Y447415D01*
X975049Y446218D01*
X975837Y445190D01*
X976865Y444401D01*
X978063Y443905D01*
X978297Y443875D01*
Y434703D01*
X962681D01*
Y436000D01*
X962915Y436031D01*
X964113Y436527D01*
X965141Y437316D01*
X965929Y438344D01*
X966425Y439541D01*
X966594Y440826D01*
Y446732D01*
X966425Y448016D01*
X965929Y449213D01*
X965141Y450241D01*
X964113Y451030D01*
X962915Y451526D01*
X962681Y451557D01*
Y460420D01*
X965952Y463692D01*
X971274D01*
Y461789D01*
X980132D01*
Y473600D01*
X971274D01*
Y471697D01*
X964295D01*
X963258Y471561D01*
X962293Y471161D01*
X961464Y470525D01*
X955848Y464908D01*
X955212Y464079D01*
X954812Y463114D01*
X954675Y462078D01*
Y451557D01*
X954440Y451526D01*
X953243Y451030D01*
X952215Y450241D01*
X951427Y449213D01*
X950931Y448016D01*
X950762Y446732D01*
Y440826D01*
X950931Y439541D01*
X951427Y438344D01*
X952215Y437316D01*
X953243Y436527D01*
X954440Y436031D01*
X954675Y436000D01*
Y434703D01*
X918303D01*
Y443875D01*
X918538Y443905D01*
X919735Y444401D01*
X920763Y445190D01*
X921552Y446218D01*
X922047Y447415D01*
X922217Y448700D01*
Y454605D01*
X922047Y455890D01*
X921552Y457087D01*
X920763Y458115D01*
X919735Y458904D01*
X918538Y459400D01*
X917253Y459569D01*
X911347D01*
X910063Y459400D01*
X908865Y458904D01*
X907837Y458115D01*
X907049Y457087D01*
X906553Y455890D01*
X906384Y454605D01*
Y448700D01*
X906553Y447415D01*
X907049Y446218D01*
X907837Y445190D01*
X908865Y444401D01*
X910063Y443905D01*
X910297Y443875D01*
Y434703D01*
X893924D01*
Y435901D01*
X894915Y436031D01*
X896113Y436527D01*
X897141Y437316D01*
X897929Y438344D01*
X898425Y439541D01*
X898594Y440826D01*
Y446732D01*
X898425Y448016D01*
X897929Y449213D01*
X897141Y450241D01*
X896113Y451030D01*
X894915Y451526D01*
X894681Y451557D01*
Y460420D01*
X897952Y463692D01*
X903274D01*
Y461789D01*
X912132D01*
Y473600D01*
X903274D01*
Y471697D01*
X896294D01*
X895259Y471561D01*
X894293Y471161D01*
X893464Y470525D01*
X887848Y464908D01*
X887212Y464079D01*
X886812Y463114D01*
X886675Y462078D01*
Y451557D01*
X886440Y451526D01*
X885243Y451030D01*
X884215Y450241D01*
X883426Y449213D01*
X882931Y448016D01*
X882761Y446732D01*
Y440826D01*
X882931Y439541D01*
X883426Y438344D01*
X884215Y437316D01*
X885243Y436527D01*
X886440Y436031D01*
X887432Y435901D01*
Y431721D01*
X887297Y430700D01*
X887432Y429679D01*
Y420423D01*
X883955Y416946D01*
X758371D01*
Y418424D01*
X750800D01*
X750300Y418424D01*
X749800Y418424D01*
X748893D01*
Y419643D01*
X752214D01*
Y428502D01*
X740403D01*
Y426291D01*
X738098D01*
X737888Y426451D01*
X737122Y426768D01*
X736300Y426877D01*
X735478Y426768D01*
X734712Y426451D01*
X734054Y425946D01*
X733549Y425288D01*
X733231Y424522D01*
X733123Y423700D01*
X733231Y422878D01*
X733549Y422112D01*
X734054Y421454D01*
X734712Y420949D01*
X735478Y420632D01*
X736300Y420523D01*
X737122Y420632D01*
X737888Y420949D01*
X738098Y421109D01*
X740403D01*
Y419643D01*
X743712D01*
Y418424D01*
X742229D01*
Y408976D01*
X749800D01*
X750300Y408976D01*
X750800Y408976D01*
X758371D01*
Y410454D01*
X885300D01*
X886140Y410564D01*
X886923Y410889D01*
X887595Y411405D01*
X892973Y416783D01*
X893489Y417455D01*
X893679Y417913D01*
X893814Y418238D01*
X893924Y419078D01*
Y426697D01*
X1007642D01*
X1015297Y419042D01*
Y374700D01*
X1015434Y373664D01*
X1015833Y372699D01*
X1016470Y371870D01*
X1024485Y363854D01*
X1025314Y363218D01*
X1026280Y362818D01*
X1027316Y362682D01*
X1044300D01*
Y346700D01*
X1035300D01*
Y284700D01*
X1098706D01*
Y283193D01*
X1097224Y281711D01*
X991376D01*
X987311Y285776D01*
Y318700D01*
X987141Y319997D01*
X987024Y320278D01*
Y325700D01*
X987024D01*
Y325700D01*
X987024D01*
Y333771D01*
X986303D01*
Y361662D01*
X1001576D01*
Y361629D01*
X1011024D01*
Y369200D01*
X1011024Y369700D01*
X1011024Y370200D01*
Y377771D01*
X1009925D01*
Y387969D01*
X1010159Y388000D01*
X1011357Y388496D01*
X1012385Y389285D01*
X1013173Y390313D01*
X1013669Y391510D01*
X1013838Y392794D01*
Y398700D01*
X1013669Y399985D01*
X1013173Y401182D01*
X1012385Y402210D01*
X1011357Y402999D01*
X1010159Y403495D01*
X1008875Y403664D01*
X1002969D01*
X1001685Y403495D01*
X1000487Y402999D01*
X999459Y402210D01*
X998671Y401182D01*
X998175Y399985D01*
X998006Y398700D01*
Y392794D01*
X998175Y391510D01*
X998671Y390313D01*
X999459Y389285D01*
X1000487Y388496D01*
X1001685Y388000D01*
X1001919Y387969D01*
Y377771D01*
X1001576D01*
Y370200D01*
X1001576Y369700D01*
X1001089Y369667D01*
X963511D01*
X963024Y369700D01*
X963024Y370200D01*
Y377771D01*
X962681D01*
Y387969D01*
X962915Y388000D01*
X964113Y388496D01*
X965141Y389285D01*
X965929Y390313D01*
X966425Y391510D01*
X966594Y392794D01*
Y398700D01*
X966425Y399985D01*
X965929Y401182D01*
X965141Y402210D01*
X964113Y402999D01*
X962915Y403495D01*
X961631Y403664D01*
X955725D01*
X954440Y403495D01*
X953243Y402999D01*
X952215Y402210D01*
X951427Y401182D01*
X950931Y399985D01*
X950762Y398700D01*
Y392794D01*
X950931Y391510D01*
X951427Y390313D01*
X952215Y389285D01*
X953243Y388496D01*
X954440Y388000D01*
X954675Y387969D01*
Y377771D01*
X953576D01*
Y370200D01*
X953576Y369700D01*
X953576Y369200D01*
Y361629D01*
X963024D01*
Y361662D01*
X978297D01*
Y333771D01*
X977576D01*
Y333703D01*
X754958D01*
X751303Y337358D01*
Y368700D01*
X751166Y369736D01*
X750767Y370701D01*
X750130Y371530D01*
X745130Y376530D01*
X744301Y377167D01*
X743336Y377566D01*
X742300Y377703D01*
X734639D01*
Y382263D01*
X727348D01*
X727024Y382629D01*
Y390200D01*
X727024Y390700D01*
X727024Y391200D01*
Y398771D01*
X724864D01*
Y404014D01*
X725079Y404336D01*
X726526D01*
X727197Y404424D01*
X727822Y404683D01*
X728358Y405094D01*
X731132Y407868D01*
X731544Y408405D01*
X731802Y409029D01*
X731891Y409700D01*
Y430700D01*
X731802Y431370D01*
X731544Y431995D01*
X731132Y432532D01*
X728132Y435532D01*
X727595Y435944D01*
X726970Y436202D01*
X726300Y436291D01*
X714470D01*
Y437544D01*
X706596D01*
Y429670D01*
X702856D01*
Y427930D01*
X702258D01*
Y429348D01*
X700599D01*
X700321Y429763D01*
X700368Y429878D01*
X700477Y430700D01*
X700368Y431522D01*
X700051Y432288D01*
X699546Y432946D01*
X698888Y433451D01*
X698122Y433769D01*
X697300Y433877D01*
X696478Y433769D01*
X695712Y433451D01*
X695054Y432946D01*
X694549Y432288D01*
X694232Y431522D01*
X694123Y430700D01*
X694232Y429878D01*
X694279Y429763D01*
X694001Y429348D01*
X692915D01*
X692809Y429348D01*
Y429348D01*
X692433Y429303D01*
Y429303D01*
X680622D01*
Y420444D01*
X692309D01*
X692433Y420444D01*
X692809Y420144D01*
Y418226D01*
X702258D01*
Y420777D01*
X702258Y421277D01*
X702258Y421777D01*
Y422749D01*
X702856D01*
Y421009D01*
X710730D01*
Y421009D01*
X712203D01*
Y418540D01*
X711980Y418207D01*
X711820Y417401D01*
Y413854D01*
X711980Y413048D01*
X712436Y412365D01*
X713119Y411908D01*
X713925Y411748D01*
X715661D01*
X716467Y411908D01*
X717150Y412365D01*
X717606Y413048D01*
X717767Y413854D01*
Y417401D01*
X717606Y418207D01*
X717384Y418540D01*
Y421009D01*
X718211D01*
Y429670D01*
X714470D01*
Y431109D01*
X725227D01*
X726709Y429627D01*
Y410773D01*
X725534Y409598D01*
X725001Y409633D01*
X724630Y410189D01*
X723947Y410645D01*
X723142Y410805D01*
X721406D01*
X720600Y410645D01*
X720403Y410514D01*
X720207Y410645D01*
X719518Y410782D01*
Y409592D01*
X719460Y409506D01*
X719300Y408700D01*
Y406926D01*
X717767D01*
Y408700D01*
X717607Y409506D01*
X717549Y409592D01*
Y410782D01*
X716860Y410645D01*
X716663Y410514D01*
X716467Y410645D01*
X715661Y410805D01*
X713925D01*
X713119Y410645D01*
X712436Y410189D01*
X711980Y409506D01*
X711820Y408700D01*
Y405153D01*
X711980Y404347D01*
X712203Y404014D01*
Y398771D01*
X709576D01*
Y391200D01*
X709576Y390700D01*
X709576Y390200D01*
Y382629D01*
X709252Y382263D01*
X701961D01*
Y377703D01*
X696300D01*
X695264Y377566D01*
X694299Y377167D01*
X693470Y376530D01*
X689470Y372530D01*
X688834Y371701D01*
X688434Y370736D01*
X688297Y369700D01*
Y351574D01*
X680489D01*
Y335826D01*
X704111D01*
Y351574D01*
X696303D01*
Y368042D01*
X697958Y369697D01*
X701961D01*
Y365137D01*
X711213D01*
Y371109D01*
X712300D01*
X712970Y371198D01*
X713595Y371456D01*
X714132Y371868D01*
X716132Y373868D01*
X716544Y374405D01*
X716802Y375029D01*
X716891Y375700D01*
Y382629D01*
X719709D01*
Y375700D01*
X719798Y375029D01*
X720056Y374405D01*
X720468Y373868D01*
X722468Y371868D01*
X723005Y371456D01*
X723630Y371198D01*
X724300Y371109D01*
X725387D01*
Y365137D01*
X734639D01*
Y369697D01*
X740642D01*
X743297Y367042D01*
Y335700D01*
X743434Y334664D01*
X743833Y333699D01*
X744470Y332870D01*
X750470Y326870D01*
X751299Y326234D01*
X752264Y325834D01*
X753300Y325697D01*
X977576D01*
Y320278D01*
X977459Y319997D01*
X977289Y318700D01*
Y283700D01*
X977459Y282403D01*
X977960Y281194D01*
X978756Y280156D01*
X985756Y273156D01*
X986794Y272360D01*
X988003Y271859D01*
X989300Y271689D01*
X1099300D01*
X1100597Y271859D01*
X1101806Y272360D01*
X1102844Y273156D01*
X1107261Y277574D01*
X1108057Y278612D01*
X1108558Y279820D01*
X1108729Y281117D01*
Y284700D01*
X1134300D01*
Y321700D01*
X1071300D01*
Y346700D01*
X1061300D01*
Y364016D01*
X1061800Y364142D01*
X1062203Y363387D01*
X1062941Y362488D01*
X1063840Y361750D01*
X1064866Y361202D01*
X1065979Y360864D01*
X1066153Y360847D01*
Y366684D01*
Y372521D01*
X1065979Y372504D01*
X1064866Y372167D01*
X1063840Y371618D01*
X1062941Y370880D01*
X1062203Y369981D01*
X1061800Y369227D01*
X1061300Y369352D01*
Y396644D01*
X1061300D01*
X1061300Y396994D01*
X1061121Y397172D01*
Y407172D01*
Y411700D01*
X1053247D01*
X1045373D01*
Y408196D01*
Y407424D01*
X1035800D01*
X1035300Y407424D01*
X1035267Y407911D01*
Y458489D01*
X1035300Y458976D01*
X1035800Y458976D01*
X1043371D01*
Y459697D01*
X1044300D01*
Y422700D01*
X1045019Y422702D01*
X1045373Y422348D01*
Y417172D01*
Y413668D01*
X1053247D01*
X1061121D01*
Y417172D01*
Y428196D01*
X1058223D01*
Y438960D01*
X1060299D01*
Y443684D01*
Y448409D01*
X1058259D01*
Y458173D01*
X1061121D01*
Y468173D01*
Y472700D01*
X1053247D01*
X1045373D01*
Y467703D01*
X1043371D01*
Y468424D01*
X1035800D01*
X1035300Y468424D01*
X1035267Y468911D01*
Y478489D01*
X1035300Y478976D01*
X1035800Y478976D01*
X1043371D01*
Y479697D01*
X1045373D01*
Y478172D01*
Y474669D01*
X1053247D01*
X1061121D01*
Y478172D01*
Y489196D01*
X1056511D01*
Y492622D01*
X1056864Y492976D01*
X1057300Y492976D01*
X1057800Y492976D01*
X1060351D01*
Y497700D01*
Y502424D01*
X1057800D01*
X1057300Y502424D01*
X1056900Y502424D01*
X1056546Y502778D01*
Y505432D01*
X1057237D01*
Y513306D01*
X1060977D01*
Y514643D01*
X1062222D01*
X1062576Y514289D01*
X1062576Y512700D01*
X1062576Y512200D01*
Y509649D01*
X1072024D01*
Y512200D01*
X1072024Y512700D01*
X1072024Y513200D01*
Y519629D01*
Y527200D01*
X1072024Y527883D01*
X1072378Y528237D01*
X1083335D01*
X1084241Y528356D01*
X1085085Y528706D01*
X1085809Y529262D01*
X1092809Y536262D01*
X1093365Y536986D01*
X1093715Y537830D01*
X1093834Y538735D01*
Y562976D01*
X1094371D01*
Y572424D01*
X1093582D01*
Y572976D01*
X1094371D01*
Y582424D01*
X1093582D01*
Y594665D01*
X1093471Y595505D01*
X1093147Y596288D01*
X1092631Y596960D01*
X1089596Y599996D01*
X1088923Y600511D01*
X1088140Y600836D01*
X1087300Y600946D01*
X1076206D01*
Y602227D01*
X1064394D01*
Y600946D01*
X1057024D01*
Y601771D01*
X1047576D01*
Y600946D01*
X1047024D01*
Y601771D01*
X1037576D01*
Y600464D01*
X1036645D01*
X1036530Y600636D01*
X1036380Y600964D01*
X1036477Y601700D01*
X1036368Y602522D01*
X1036278Y602741D01*
X1036556Y603157D01*
X1101180D01*
X1104709Y599627D01*
Y570700D01*
X1104798Y570029D01*
X1105056Y569405D01*
X1105468Y568868D01*
X1108468Y565868D01*
X1109005Y565456D01*
X1109630Y565198D01*
X1110300Y565109D01*
Y557700D01*
X1138300D01*
Y679700D01*
Y695700D01*
X1110300D01*
Y689217D01*
X1026194D01*
X1025888Y689451D01*
X1025122Y689769D01*
X1024300Y689877D01*
X1023478Y689769D01*
X1022712Y689451D01*
X1022054Y688946D01*
X1021549Y688288D01*
X1021231Y687522D01*
X1021123Y686700D01*
X1021231Y685878D01*
X1021549Y685112D01*
X1022054Y684454D01*
X1022712Y683949D01*
X1023478Y683632D01*
X1024300Y683523D01*
X1025122Y683632D01*
X1025888Y683949D01*
X1026194Y684183D01*
X1110300D01*
Y679700D01*
Y672291D01*
X1108300D01*
X1107629Y672202D01*
X1107005Y671944D01*
X1106468Y671532D01*
X1102468Y667532D01*
X1102056Y666995D01*
X1101798Y666370D01*
X1101709Y665700D01*
Y625631D01*
X1096227Y620149D01*
X1059066D01*
X1058875Y620611D01*
X1059239Y620976D01*
X1063371D01*
Y629064D01*
X1064104Y630020D01*
X1064605Y631228D01*
X1064776Y632526D01*
Y635133D01*
X1065521Y636040D01*
X1066161Y637237D01*
X1066555Y638536D01*
X1066688Y639887D01*
X1066555Y641237D01*
X1066161Y642536D01*
X1065521Y643733D01*
X1064776Y644641D01*
Y660723D01*
X1065521Y661631D01*
X1066161Y662828D01*
X1066555Y664126D01*
X1066688Y665477D01*
X1066555Y666828D01*
X1066161Y668126D01*
X1065521Y669323D01*
X1064660Y670372D01*
X1063611Y671234D01*
X1062414Y671873D01*
X1061115Y672267D01*
X1059765Y672400D01*
X1058414Y672267D01*
X1057115Y671873D01*
X1055918Y671234D01*
X1054869Y670372D01*
X1054008Y669323D01*
X1053368Y668126D01*
X1052975Y666828D01*
X1052841Y665477D01*
X1052975Y664126D01*
X1053368Y662828D01*
X1054008Y661631D01*
X1054753Y660723D01*
Y644641D01*
X1054008Y643733D01*
X1053368Y642536D01*
X1052975Y641237D01*
X1052841Y639887D01*
X1052975Y638536D01*
X1053368Y637237D01*
X1054008Y636040D01*
X1054753Y635133D01*
Y632526D01*
X1054924Y631228D01*
X1055085Y630840D01*
X1054807Y630424D01*
X1052249D01*
Y625700D01*
X1051265D01*
Y624716D01*
X1047229D01*
Y622117D01*
X1023229D01*
X1022559Y622029D01*
X1021934Y621770D01*
X1021397Y621359D01*
X1021228Y621138D01*
X1019942D01*
X1019528Y621056D01*
X1019178Y620822D01*
X1018944Y620471D01*
X1018862Y620058D01*
Y618995D01*
X1018944Y618582D01*
X1018970Y618542D01*
X1018944Y618503D01*
X1018862Y618090D01*
Y617027D01*
X1018944Y616614D01*
X1018970Y616574D01*
X1018944Y616535D01*
X1018862Y616121D01*
Y615058D01*
X1018944Y614645D01*
X1018970Y614606D01*
X1018944Y614566D01*
X1018862Y614153D01*
Y613090D01*
X1018944Y612677D01*
X1018971Y612637D01*
X1018944Y612598D01*
X1018862Y612184D01*
Y611121D01*
X1018944Y610708D01*
X1018970Y610669D01*
X1018944Y610629D01*
X1018862Y610216D01*
Y609153D01*
X1018944Y608740D01*
X1018970Y608700D01*
X1018944Y608661D01*
X1018862Y608247D01*
Y607184D01*
X1018944Y606771D01*
X1018970Y606732D01*
X1018944Y606692D01*
X1018862Y606279D01*
Y605216D01*
X1018944Y604803D01*
X1018970Y604763D01*
X1018944Y604724D01*
X1018862Y604310D01*
Y603247D01*
X1018944Y602834D01*
X1018970Y602795D01*
X1018944Y602755D01*
X1018862Y602342D01*
Y602090D01*
X1018480Y601835D01*
X1018032Y601164D01*
X1017892Y600464D01*
X998064D01*
Y616800D01*
X998373Y617109D01*
X1000273D01*
X1000943Y617198D01*
X1001568Y617456D01*
X1002105Y617868D01*
X1003211Y618974D01*
X1003622Y619511D01*
X1003881Y620135D01*
X1004414Y620348D01*
X1004784Y620274D01*
X1005847D01*
X1006638Y620432D01*
X1007309Y620880D01*
X1007564Y621262D01*
X1007816D01*
X1008229Y621344D01*
X1008269Y621371D01*
X1008308Y621344D01*
X1008721Y621262D01*
X1009784D01*
X1010198Y621344D01*
X1010237Y621371D01*
X1010277Y621344D01*
X1010690Y621262D01*
X1011753D01*
X1012166Y621344D01*
X1012206Y621371D01*
X1012245Y621344D01*
X1012658Y621262D01*
X1013721D01*
X1014134Y621344D01*
X1014174Y621371D01*
X1014213Y621344D01*
X1014627Y621262D01*
X1015690D01*
X1016103Y621344D01*
X1016142Y621371D01*
X1016182Y621344D01*
X1016595Y621262D01*
X1017658D01*
X1018071Y621344D01*
X1018422Y621578D01*
X1018656Y621929D01*
X1018738Y622342D01*
Y623628D01*
X1018959Y623797D01*
X1019370Y624334D01*
X1019629Y624959D01*
X1019717Y625629D01*
Y757873D01*
X1019629Y758544D01*
X1019370Y759169D01*
X1018959Y759705D01*
X1013193Y765471D01*
X1013192Y765475D01*
X1012893Y766197D01*
X1012417Y766817D01*
X1011797Y767293D01*
X1011075Y767592D01*
X1010300Y767694D01*
D02*
G37*
G36*
X868316Y651771D02*
X864576D01*
Y648720D01*
X868316D01*
Y651771D01*
D02*
G37*
G36*
X773316D02*
X769576D01*
Y648720D01*
X773316D01*
Y651771D01*
D02*
G37*
%LPD*%
G36*
X971232Y588192D02*
X971232Y587692D01*
X971232Y587192D01*
Y584641D01*
X975956D01*
X980680D01*
Y587192D01*
X980680Y587692D01*
X980680Y588192D01*
Y589180D01*
X993862D01*
Y588483D01*
X993944Y588070D01*
X994178Y587720D01*
X994528Y587486D01*
X994942Y587404D01*
X995193D01*
X995448Y587022D01*
X996119Y586574D01*
X996820Y586434D01*
Y580883D01*
X995504Y579567D01*
X995092Y579031D01*
X994841Y578424D01*
X993300Y578424D01*
X992800Y578424D01*
X990249D01*
Y573700D01*
Y568976D01*
X992800D01*
X993300Y568976D01*
X993800Y568976D01*
X997442D01*
X997633Y568514D01*
X995556Y566436D01*
X995548Y566424D01*
X993300Y566424D01*
X992800Y566424D01*
X990249D01*
Y561700D01*
Y556976D01*
X992800D01*
X993300Y556976D01*
X993800Y556976D01*
X994341D01*
Y549976D01*
X993987Y549621D01*
X972772D01*
Y539779D01*
X998363D01*
Y545529D01*
X999300Y546466D01*
X999453Y546583D01*
X999928Y547203D01*
X1000228Y547925D01*
X1000330Y548700D01*
Y556976D01*
X1001371D01*
Y565133D01*
X1002363Y566125D01*
X1003229Y565259D01*
Y556976D01*
X1004270D01*
Y548700D01*
X1004373Y547925D01*
X1004672Y547203D01*
X1005147Y546583D01*
X1005300Y546466D01*
X1006237Y545529D01*
Y539779D01*
X1031828D01*
Y549621D01*
X1010613D01*
X1010259Y549976D01*
Y556622D01*
X1010612Y556976D01*
X1011300Y556976D01*
X1011800Y556976D01*
X1014351D01*
Y561700D01*
Y566424D01*
X1011800D01*
X1011300Y566424D01*
X1010800Y566424D01*
X1009136D01*
X1009044Y566562D01*
X1007093Y568514D01*
X1007284Y568976D01*
X1011300D01*
Y568976D01*
X1011300D01*
Y568976D01*
X1019371D01*
Y570706D01*
X1022298D01*
X1022478Y570632D01*
X1023300Y570523D01*
X1024122Y570632D01*
X1024888Y570949D01*
X1025546Y571454D01*
X1026051Y572112D01*
X1026369Y572878D01*
X1026477Y573700D01*
X1026369Y574522D01*
X1026051Y575288D01*
X1025546Y575946D01*
X1024888Y576451D01*
X1024122Y576768D01*
X1023300Y576877D01*
X1022478Y576768D01*
X1022298Y576694D01*
X1019371D01*
Y578424D01*
X1013154D01*
X1012908Y578924D01*
X1013051Y579112D01*
X1013191Y579450D01*
X1013800Y579613D01*
X1014005Y579456D01*
X1014629Y579198D01*
X1015300Y579109D01*
X1024227D01*
X1030468Y572868D01*
X1031005Y572456D01*
X1031629Y572198D01*
X1032300Y572109D01*
X1056227D01*
X1062468Y565868D01*
X1063005Y565456D01*
X1063630Y565198D01*
X1064300Y565109D01*
X1064394D01*
Y563172D01*
X1067709D01*
Y560778D01*
X1067356Y560424D01*
X1066300Y560424D01*
X1065800Y560424D01*
X1063249D01*
Y555700D01*
Y550976D01*
X1065800D01*
X1066300Y550976D01*
X1066800Y550976D01*
X1074371D01*
Y560424D01*
X1072891D01*
Y563172D01*
X1076206D01*
Y565109D01*
X1078229D01*
Y562976D01*
X1085800D01*
X1086300Y562976D01*
Y562976D01*
X1086300D01*
Y562976D01*
X1086837D01*
Y540184D01*
X1081886Y535234D01*
X1072024D01*
Y535771D01*
X1062576D01*
Y535198D01*
X947749D01*
X941774Y541174D01*
X941049Y541730D01*
X940205Y542079D01*
X939753Y542139D01*
X939300Y542198D01*
X847300D01*
X846395Y542079D01*
X845551Y541730D01*
X844826Y541174D01*
X836826Y533174D01*
X836270Y532449D01*
X835921Y531605D01*
X835861Y531153D01*
X835802Y530700D01*
Y445044D01*
X831920Y441163D01*
X831024D01*
Y441700D01*
X831024D01*
Y441700D01*
X831024D01*
Y449771D01*
X829304D01*
Y452219D01*
X831831D01*
Y465999D01*
X829288D01*
X829215Y466548D01*
X828957Y467173D01*
X828545Y467709D01*
X825481Y470773D01*
Y590218D01*
X830546Y595283D01*
X971232D01*
Y588192D01*
D02*
G37*
G36*
X1037576Y594929D02*
X1037576Y593700D01*
X1037576Y593200D01*
Y590649D01*
X1047024D01*
Y593200D01*
X1047024Y593944D01*
X1047300Y594089D01*
X1047576Y593944D01*
Y593700D01*
X1047576Y593200D01*
Y590649D01*
X1052300D01*
X1057024D01*
Y593200D01*
X1057024Y593700D01*
X1057024Y594100D01*
X1057378Y594454D01*
X1064394D01*
Y593173D01*
X1076206D01*
Y594454D01*
X1085955D01*
X1087089Y593320D01*
Y582778D01*
X1086736Y582424D01*
X1086300Y582424D01*
Y582424D01*
X1086300D01*
Y582424D01*
X1078229D01*
Y580291D01*
X1076206D01*
Y582228D01*
X1064394D01*
Y580291D01*
X1034373D01*
X1028132Y586532D01*
X1027595Y586944D01*
X1026970Y587202D01*
X1026300Y587291D01*
X1018679D01*
X1018549Y587507D01*
X1018469Y587791D01*
X1018656Y588070D01*
X1018738Y588483D01*
Y595058D01*
X1018922Y595283D01*
X1020638D01*
Y594405D01*
X1020549Y594288D01*
X1020232Y593522D01*
X1020123Y592700D01*
X1020232Y591878D01*
X1020549Y591112D01*
X1021054Y590454D01*
X1021712Y589949D01*
X1022478Y589632D01*
X1023300Y589523D01*
X1024122Y589632D01*
X1024888Y589949D01*
X1025546Y590454D01*
X1026051Y591112D01*
X1026369Y591878D01*
X1026477Y592700D01*
X1026369Y593522D01*
X1026051Y594288D01*
X1025820Y594590D01*
Y595283D01*
X1037222D01*
X1037576Y594929D01*
D02*
G37*
G36*
X725729Y617680D02*
X725817Y617010D01*
X726076Y616385D01*
X726488Y615848D01*
X727148Y615188D01*
X726957Y614726D01*
X725389D01*
Y605868D01*
X737200D01*
Y609322D01*
X739016D01*
Y607976D01*
X742225D01*
X742376Y607700D01*
X742412Y607476D01*
X739468Y604532D01*
X739056Y603995D01*
X738798Y603371D01*
X738709Y602700D01*
Y581773D01*
X738144Y581208D01*
X737009D01*
Y582653D01*
X737009D01*
Y582653D01*
X737009D01*
Y590724D01*
X727560D01*
Y589279D01*
X727009D01*
Y590724D01*
X717560D01*
X717552Y590330D01*
X708890D01*
Y586590D01*
X707875D01*
Y593582D01*
X710009D01*
Y601153D01*
X710009Y601653D01*
X710009Y602153D01*
Y603097D01*
X713239D01*
X714499Y601838D01*
X714291Y601338D01*
X711397D01*
Y592479D01*
X723208D01*
Y601338D01*
X719875D01*
Y602716D01*
X719787Y603386D01*
X719528Y604011D01*
X719116Y604548D01*
X718258Y605406D01*
X718449Y605868D01*
X723200D01*
Y614726D01*
X720643D01*
X720452Y615188D01*
X722081Y616817D01*
X722492Y617353D01*
X722751Y617978D01*
X722839Y618649D01*
Y620622D01*
X723193Y620976D01*
X724300Y620976D01*
X724800Y620976D01*
X725729D01*
Y617680D01*
D02*
G37*
G36*
X985070Y610551D02*
X985004Y610216D01*
Y609153D01*
X985086Y608740D01*
X985112Y608700D01*
X985086Y608661D01*
X985004Y608247D01*
Y607184D01*
X985070Y606849D01*
X984799Y606369D01*
X823379D01*
X822708Y606281D01*
X822083Y606022D01*
X821547Y605611D01*
X812468Y596532D01*
X812056Y595995D01*
X811798Y595370D01*
X811709Y594700D01*
Y513773D01*
X810468Y512532D01*
X810056Y511995D01*
X809798Y511371D01*
X809709Y510700D01*
Y488454D01*
X809798Y487783D01*
X810056Y487158D01*
X810468Y486622D01*
X812222Y484868D01*
X812758Y484456D01*
X813383Y484198D01*
X814054Y484109D01*
X814502D01*
X814712Y483949D01*
X815478Y483632D01*
X816300Y483523D01*
X817122Y483632D01*
X817294Y483703D01*
X817709Y483425D01*
Y470773D01*
X814881Y467945D01*
X814469Y467408D01*
X814211Y466784D01*
X814122Y466113D01*
Y465999D01*
X807697D01*
Y459109D01*
Y452219D01*
X814122D01*
Y449771D01*
X811576D01*
Y442200D01*
X811576Y441700D01*
X811576D01*
Y441700D01*
X811576D01*
Y440659D01*
X810378D01*
X810024Y441012D01*
X810024Y441700D01*
X810024Y442200D01*
Y444751D01*
X805300D01*
X800576D01*
Y442200D01*
X800576Y441700D01*
Y441366D01*
X800076Y441159D01*
X799707Y441527D01*
Y452219D01*
X805729D01*
Y459109D01*
Y465999D01*
X800294D01*
Y606700D01*
X800192Y607475D01*
X799893Y608197D01*
X799417Y608817D01*
X797666Y610569D01*
X797857Y611031D01*
X984799D01*
X985070Y610551D01*
D02*
G37*
G36*
X1004694Y738643D02*
Y688044D01*
X1004194Y687945D01*
X1004051Y688288D01*
X1003546Y688946D01*
X1002888Y689451D01*
X1002122Y689769D01*
X1001300Y689877D01*
X1000478Y689769D01*
X1000233Y689667D01*
X999817Y689945D01*
Y735036D01*
X999625Y735999D01*
X999080Y736816D01*
X997812Y738083D01*
X997468Y738532D01*
X996932Y738944D01*
X996307Y739202D01*
X995636Y739291D01*
X908964D01*
X908293Y739202D01*
X907668Y738944D01*
X907132Y738532D01*
X902468Y733868D01*
X902056Y733332D01*
X901798Y732707D01*
X901709Y732036D01*
Y728771D01*
X899576D01*
Y724669D01*
X899114Y724477D01*
X897610Y725981D01*
Y726212D01*
X897442Y727057D01*
X896964Y727773D01*
X896247Y728252D01*
X895402Y728420D01*
X891072D01*
X890227Y728252D01*
X889511Y727773D01*
X889032Y727057D01*
X888864Y726212D01*
Y724714D01*
X888423Y724478D01*
X888373Y724511D01*
X887528Y724679D01*
X883198D01*
X882353Y724511D01*
X881637Y724033D01*
X881579Y723946D01*
X879371D01*
Y725424D01*
X871800D01*
X871300Y725424D01*
Y725424D01*
X871300D01*
Y725424D01*
X863229D01*
Y723485D01*
X860732D01*
Y728113D01*
X836205D01*
Y720238D01*
Y712364D01*
X840253D01*
X840380Y711403D01*
X840881Y710194D01*
X841677Y709156D01*
X841974Y708928D01*
Y706771D01*
X840576D01*
Y705982D01*
X828467D01*
Y707928D01*
X828764Y708156D01*
X829561Y709194D01*
X830061Y710403D01*
X830232Y711700D01*
Y712364D01*
X834236D01*
Y720238D01*
Y728113D01*
X810232D01*
Y728430D01*
X810061Y729727D01*
X809561Y730935D01*
X808764Y731973D01*
X808215Y732395D01*
Y735380D01*
X814540Y741706D01*
X1001630D01*
X1004694Y738643D01*
D02*
G37*
%LPC*%
G36*
X980680Y582673D02*
X976941D01*
Y579622D01*
X980680D01*
Y582673D01*
D02*
G37*
G36*
X1061280Y560424D02*
X1058229D01*
Y556684D01*
X1061280D01*
Y560424D01*
D02*
G37*
G36*
X988280Y560716D02*
X985229D01*
Y556976D01*
X988280D01*
Y560716D01*
D02*
G37*
G36*
X1061280Y554716D02*
X1058229D01*
Y550976D01*
X1061280D01*
Y554716D01*
D02*
G37*
G36*
X1019371Y560716D02*
X1016320D01*
Y556976D01*
X1019371D01*
Y560716D01*
D02*
G37*
G36*
X988280Y578424D02*
X985229D01*
Y574684D01*
X988280D01*
Y578424D01*
D02*
G37*
G36*
X974972Y582673D02*
X971232D01*
Y579622D01*
X974972D01*
Y582673D01*
D02*
G37*
G36*
X988280Y572716D02*
X985229D01*
Y568976D01*
X988280D01*
Y572716D01*
D02*
G37*
G36*
Y566424D02*
X985229D01*
Y562684D01*
X988280D01*
Y566424D01*
D02*
G37*
G36*
X1016320D02*
Y562684D01*
X1019371D01*
Y566424D01*
X1016320D01*
D02*
G37*
G36*
X1047024Y588680D02*
X1043284D01*
Y585629D01*
X1047024D01*
Y588680D01*
D02*
G37*
G36*
X1041316D02*
X1037576D01*
Y585629D01*
X1041316D01*
Y588680D01*
D02*
G37*
G36*
X1051316Y588680D02*
X1047576D01*
Y585629D01*
X1051316D01*
Y588680D01*
D02*
G37*
G36*
X1057024D02*
X1053284D01*
Y585629D01*
X1057024D01*
Y588680D01*
D02*
G37*
G36*
X730318Y601338D02*
X725397D01*
Y597893D01*
X730318D01*
Y601338D01*
D02*
G37*
G36*
X737208D02*
X732287D01*
Y597893D01*
X737208D01*
Y601338D01*
D02*
G37*
G36*
X730318Y595924D02*
X725397D01*
Y592479D01*
X730318D01*
Y595924D01*
D02*
G37*
G36*
X737208D02*
X732287D01*
Y592479D01*
X737208D01*
Y595924D01*
D02*
G37*
G36*
X804316Y449771D02*
X800576D01*
Y446720D01*
X804316D01*
Y449771D01*
D02*
G37*
G36*
X810024D02*
X806284D01*
Y446720D01*
X810024D01*
Y449771D01*
D02*
G37*
%LPD*%
D10*
X1024300Y686700D02*
X1124300D01*
X995636Y736700D02*
X997300Y735036D01*
Y639141D02*
Y735036D01*
X1003347Y625629D02*
Y637653D01*
X1001300Y639700D02*
X1003347Y637653D01*
X1001300Y639700D02*
Y686700D01*
X999410Y625629D02*
Y637030D01*
X997300Y639141D02*
X999410Y637030D01*
X1003347Y568700D02*
Y591771D01*
X1001379Y568700D02*
Y591771D01*
X997335Y564657D02*
X1001379Y568700D01*
X997335Y561700D02*
Y564657D01*
X1003347Y568700D02*
X1007265Y564783D01*
Y561700D02*
Y564783D01*
X1011300Y544700D02*
X1019032D01*
X985568D02*
X993300D01*
D11*
X720249Y618649D02*
Y625700D01*
X997442Y625629D02*
Y634558D01*
X992300Y639700D02*
X997442Y634558D01*
X979335Y639700D02*
X992300D01*
X975913Y591771D02*
X995473D01*
X1023229Y597873D02*
X1040143D01*
X697300Y425340D02*
Y430700D01*
X746303Y423695D02*
X746308Y423700D01*
X746303Y413705D02*
Y423695D01*
X722274Y415627D02*
Y423674D01*
X722300Y423700D01*
X710533Y433214D02*
X711020Y433700D01*
X726300D01*
X729300Y430700D01*
Y409700D02*
Y430700D01*
X726526Y406926D02*
X729300Y409700D01*
X722274Y406926D02*
X726526D01*
X714274Y425340D02*
X714793Y424820D01*
Y415627D02*
Y424820D01*
X686528Y424874D02*
X686967Y425312D01*
X697533D01*
X697561Y425340D01*
X706793D01*
X722274Y394762D02*
X722300Y394735D01*
X722274Y394762D02*
Y406926D01*
X714300Y394735D02*
X714793Y395229D01*
Y406926D01*
X724300Y373700D02*
X730013D01*
X722300Y375700D02*
X724300Y373700D01*
X722300Y375700D02*
Y386665D01*
X706587Y373700D02*
X712300D01*
X714300Y375700D01*
Y386665D01*
X1108300Y669700D02*
X1124300D01*
X814054Y486700D02*
X816300D01*
X812300Y488454D02*
X814054Y486700D01*
X812300Y488454D02*
Y510700D01*
X975300Y478700D02*
Y486665D01*
X999410Y579810D02*
Y591771D01*
X997335Y577735D02*
X999410Y579810D01*
X997335Y573700D02*
Y577735D01*
X1007300Y573735D02*
Y577700D01*
X1005316Y579684D02*
X1007300Y577700D01*
X1005316Y579684D02*
Y591771D01*
X1010300Y580700D02*
Y581700D01*
X1007284Y584716D02*
X1010300Y581700D01*
X1007284Y584716D02*
Y591771D01*
X823379Y603779D02*
X989371D01*
X814300Y594700D02*
X823379Y603779D01*
X814300Y512700D02*
Y594700D01*
X900300Y486700D02*
X900335Y486665D01*
X908300D01*
X900300Y508700D02*
X908265D01*
X1025300Y581700D02*
X1032300Y574700D01*
X1015300Y581700D02*
X1025300D01*
X1011221Y585779D02*
X1015300Y581700D01*
X1011221Y585779D02*
Y591771D01*
X1002300Y604700D02*
Y605700D01*
X998442Y600842D02*
X1002300Y604700D01*
X1031221Y603779D02*
X1033300Y601700D01*
X1023229Y603779D02*
X1031221D01*
X812300Y510700D02*
X814300Y512700D01*
X817300Y511700D02*
Y593700D01*
X816300Y510700D02*
X817300Y511700D01*
X816300Y508700D02*
Y510700D01*
X817300Y593700D02*
X825410Y601810D01*
X908265Y508700D02*
X908300Y508665D01*
X917461Y516735D02*
X917560Y516637D01*
X820300Y469700D02*
Y592239D01*
X827903Y599842D01*
X826713Y446322D02*
X827300Y445735D01*
X822891Y591291D02*
X829473Y597873D01*
X822891Y469700D02*
Y591291D01*
X761312Y615590D02*
X989371D01*
X750312D02*
X761312D01*
X774078Y622922D02*
Y639887D01*
X869078Y623922D02*
Y639887D01*
X1059300Y624700D02*
Y632061D01*
X773300Y611700D02*
X775221Y613621D01*
X756300Y611700D02*
X773300D01*
X717284Y597271D02*
Y602716D01*
X1104300Y665700D02*
X1108300Y669700D01*
X1104300Y624558D02*
Y665700D01*
X1097300Y617558D02*
X1104300Y624558D01*
X1111300Y652700D02*
X1124300D01*
X1107300Y648700D02*
X1111300Y652700D01*
X1107300Y622700D02*
Y648700D01*
X1100190Y615590D02*
X1107300Y622700D01*
X1023229Y615590D02*
X1100190D01*
X1113056Y635700D02*
X1124300D01*
X1110300Y632944D02*
X1113056Y635700D01*
X1110300Y620700D02*
Y632944D01*
X1103221Y613621D02*
X1110300Y620700D01*
X1023229Y613621D02*
X1103221D01*
X1110300Y567700D02*
X1124300D01*
X1107300Y570700D02*
X1110300Y567700D01*
X1107300Y570700D02*
Y600700D01*
X1102253Y605747D02*
X1107300Y600700D01*
X1023229Y605747D02*
X1102253D01*
X1112300Y584700D02*
X1124300D01*
X1110300Y586700D02*
X1112300Y584700D01*
X1110300Y586700D02*
Y602700D01*
X1105284Y607716D02*
X1110300Y602700D01*
X1023229Y607716D02*
X1105284D01*
X1113300Y618700D02*
X1124300D01*
X1106253Y611653D02*
X1113300Y618700D01*
X1107316Y609684D02*
X1115300Y601700D01*
X1023229Y611653D02*
X1106253D01*
X1023229Y609684D02*
X1107316D01*
X1023229Y617558D02*
X1097300D01*
X1064300Y567700D02*
X1070300D01*
X1057300Y574700D02*
X1064300Y567700D01*
X1032300Y574700D02*
X1057300D01*
X1015300Y584700D02*
X1026300D01*
X1013190Y586810D02*
X1015300Y584700D01*
X1013190Y586810D02*
Y591771D01*
X1026300Y584700D02*
X1033300Y577700D01*
X1070300D02*
X1082265D01*
X1070300Y565700D02*
Y567700D01*
Y555735D02*
Y565700D01*
Y555735D02*
X1070335Y555700D01*
X1070300Y567700D02*
X1082265D01*
X1033300Y577700D02*
X1070300D01*
X998442Y599842D02*
Y600842D01*
X1040143Y597873D02*
X1040300Y597716D01*
X1023229Y593771D02*
X1023300Y592700D01*
X1023229Y593771D02*
Y597873D01*
X995473Y617873D02*
X997300Y619700D01*
X750300Y605700D02*
X756300Y611700D01*
X722284Y586688D02*
X732284D01*
X721989Y586393D02*
X722284Y586688D01*
X713221Y586393D02*
X721989D01*
X705284Y582716D02*
Y597617D01*
X694284Y605688D02*
X705284D01*
X714312D01*
X717284Y602716D01*
Y612035D02*
Y615684D01*
X720249Y618649D01*
X731406Y611913D02*
Y614594D01*
X728320Y617680D02*
X731406Y614594D01*
X728320Y617680D02*
Y622653D01*
X731284Y612035D02*
X731406Y611913D01*
X743347D01*
X744300Y605700D02*
X750300D01*
X741300Y602700D02*
X744300Y605700D01*
X741300Y580700D02*
Y602700D01*
X739217Y578617D02*
X741300Y580700D01*
X732284Y578617D02*
X739217D01*
X751221Y615653D02*
X751257Y615617D01*
X761284D01*
X761312Y615590D01*
X775221Y613621D02*
X989371D01*
X1007284Y625629D02*
Y739716D01*
X1002300Y744700D02*
X1007284Y739716D01*
X1009253Y625629D02*
Y742747D01*
X1003300Y748700D02*
X1009253Y742747D01*
X1011221Y625629D02*
Y745779D01*
X1004300Y752700D02*
X1011221Y745779D01*
X1013190Y625629D02*
Y749810D01*
X1006300Y756700D02*
X1013190Y749810D01*
X1015158Y625629D02*
Y753842D01*
X1017127Y625629D02*
Y757873D01*
X1010300Y764700D02*
X1017127Y757873D01*
X1008300Y760700D02*
X1015158Y753842D01*
X1053232Y463700D02*
X1053247Y463684D01*
X1053232Y402700D02*
X1053247Y402684D01*
X1053212Y443684D02*
X1053247Y443720D01*
X1053212Y422720D02*
X1053247Y422684D01*
X904300Y724735D02*
Y732036D01*
X908964Y736700D01*
X995636D01*
X1005316Y625629D02*
Y737684D01*
X1002300Y740700D02*
X1005316Y737684D01*
X1023229Y619527D02*
X1054127D01*
X1059300Y624700D01*
X1007265Y573700D02*
X1007300Y573735D01*
X997442Y582842D02*
Y591771D01*
X994300Y579700D02*
X997442Y582842D01*
X989300Y579700D02*
X994300D01*
X816713Y446148D02*
Y459109D01*
X816300Y445735D02*
X816713Y446148D01*
X826713Y446322D02*
Y459109D01*
X1005316Y616716D02*
Y625629D01*
X1005300Y616700D02*
X1005316Y616716D01*
X1070300Y565700D02*
X1070300Y565700D01*
X998442Y599842D02*
X1023229D01*
X995473Y597873D02*
X1023229D01*
X1001379Y620806D02*
Y625629D01*
X1000273Y619700D02*
X1001379Y620806D01*
X997300Y619700D02*
X1000273D01*
X816713Y459109D02*
Y466113D01*
X820300Y469700D01*
X826713Y459109D02*
Y465878D01*
X822891Y469700D02*
X826713Y465878D01*
X827903Y599842D02*
X989371D01*
X995473Y591771D02*
Y617873D01*
X979300Y639665D02*
X979335Y639700D01*
X873473Y619527D02*
X989371D01*
X869078Y623922D02*
X873473Y619527D01*
X779442Y617558D02*
X989371D01*
X774078Y622922D02*
X779442Y617558D01*
X825410Y601810D02*
X989371D01*
X829473Y597873D02*
X989371D01*
X736300Y423700D02*
X746308D01*
D12*
X913300Y365665D02*
X938300D01*
X890300D02*
X913300D01*
X827300Y359700D02*
Y395700D01*
Y359700D02*
X835300Y351700D01*
X908300D01*
X913300Y356700D01*
Y365665D01*
X742300Y373700D02*
X747300Y368700D01*
Y335700D02*
Y368700D01*
X982300Y365665D02*
X1006300D01*
X958300D02*
X982300D01*
X747300Y335700D02*
X753300Y329700D01*
X981300D01*
X730013Y373700D02*
X742300D01*
X692300Y343700D02*
Y369700D01*
X696300Y373700D01*
X706587D01*
X989300Y467911D02*
Y486763D01*
X867702Y526684D02*
X868717Y527700D01*
X933300D01*
X939300Y521700D01*
X1025300D01*
X1031265Y515735D01*
Y483700D02*
Y515735D01*
X1005922Y374113D02*
X1006300Y373735D01*
X1005922Y374113D02*
Y395747D01*
X958300Y373735D02*
X958678Y374113D01*
Y395747D01*
X982300Y430700D02*
X1009300D01*
X958300D02*
X982300D01*
Y451653D01*
X1005922Y443779D02*
Y462078D01*
X1000298Y467702D02*
X1005922Y462078D01*
X989091Y467702D02*
X1000298D01*
X964295Y467695D02*
X975703D01*
X958678Y462078D02*
X964295Y467695D01*
X958678Y443779D02*
Y462078D01*
X1009300Y430700D02*
X1019300Y420700D01*
Y374700D02*
Y420700D01*
Y374700D02*
X1027316Y366684D01*
X914300Y430700D02*
X958300D01*
X958678Y431078D01*
Y443779D01*
X890678Y374358D02*
X891300Y373735D01*
X937922Y374113D02*
X938300Y373735D01*
X937922Y374113D02*
Y395747D01*
X890678Y374358D02*
Y395747D01*
X921091Y467702D02*
X921300Y467911D01*
Y486763D01*
X891300Y430700D02*
X914300D01*
Y451653D01*
X1027316Y366684D02*
X1053358D01*
X896294Y467695D02*
X907703D01*
X890678Y462078D02*
X896294Y467695D01*
X890678Y443779D02*
Y462078D01*
X937922Y443779D02*
Y462078D01*
X932298Y467702D02*
X937922Y462078D01*
X921091Y467702D02*
X932298D01*
X1031265Y402700D02*
Y463700D01*
Y483700D01*
X1039335D02*
X1053232D01*
X1039335Y402700D02*
X1053232D01*
X1039335Y463700D02*
X1053232D01*
X982300Y329735D02*
Y365665D01*
D13*
X797300Y459109D02*
Y606700D01*
X975300Y494735D02*
X975398Y494637D01*
X985560D01*
X989091Y467702D02*
X989300Y467911D01*
X867702Y496763D02*
X872639Y501700D01*
X919300D01*
X921300Y503700D01*
Y508763D01*
X793300Y610700D02*
X797300Y606700D01*
X778300Y610700D02*
X793300D01*
X1067300Y517735D02*
Y523665D01*
X1067202Y517637D02*
X1067300Y517735D01*
X1057040Y517637D02*
X1067202D01*
X975913Y591771D02*
X975956Y591728D01*
X775265Y607665D02*
X778300Y610700D01*
X762300Y607665D02*
X775265D01*
X686284Y582653D02*
X705284D01*
X686300Y625700D02*
X720249D01*
X1015335Y573700D02*
X1023300D01*
X747300Y601700D02*
X760300D01*
X744300Y598700D02*
X747300Y601700D01*
X744300Y576700D02*
Y598700D01*
X740300Y572700D02*
X744300Y576700D01*
X724300Y572700D02*
X740300D01*
X722284Y574716D02*
X724300Y572700D01*
X722284Y574716D02*
Y578617D01*
X762300Y603700D02*
Y607665D01*
X760300Y601700D02*
X762300Y603700D01*
X721989Y578913D02*
X722284Y578617D01*
X713221Y578913D02*
X721989D01*
X997335Y548700D02*
Y561700D01*
X1007265Y548700D02*
Y561700D01*
X1007300Y548700D02*
X1011300Y544700D01*
X993300D02*
X997300Y548700D01*
X705221Y752621D02*
X717300Y764700D01*
X715221Y748621D02*
X727300Y760700D01*
X735221Y741621D02*
X746300Y752700D01*
X785221Y739621D02*
X794300Y748700D01*
X725221Y744621D02*
X737300Y756700D01*
X813300Y744700D02*
X1002300D01*
X794300Y748700D02*
X1003300D01*
X746300Y752700D02*
X1004300D01*
X737300Y756700D02*
X1006300D01*
X717300Y764700D02*
X1010300D01*
X805221Y736621D02*
X813300Y744700D01*
X727300Y760700D02*
X1008300D01*
X705221Y730700D02*
Y752621D01*
X725221Y729700D02*
Y744621D01*
X735221Y729700D02*
Y741621D01*
X715221Y729700D02*
Y748621D01*
X785221Y728700D02*
Y739621D01*
X805221Y728430D02*
Y736621D01*
X796713Y440287D02*
Y459109D01*
Y440287D02*
X799300Y437700D01*
X805265D01*
X805300Y437665D01*
X816300D01*
X826300D01*
D14*
X1005922Y443779D02*
D03*
X958678D02*
D03*
X1005922Y395747D02*
D03*
X958678D02*
D03*
X982300Y451653D02*
D03*
X937922Y443779D02*
D03*
X890678D02*
D03*
X937922Y395747D02*
D03*
X890678D02*
D03*
X914300Y451653D02*
D03*
D15*
X813520Y395700D02*
D03*
X827300D02*
D03*
D16*
X860213Y392550D02*
D03*
X780213D02*
D03*
Y460109D02*
D03*
X860213D02*
D03*
D17*
X826713Y459109D02*
D03*
X816713D02*
D03*
X806713D02*
D03*
X796713D02*
D03*
D18*
X1067137Y366684D02*
D03*
D19*
X1053358D02*
D03*
D20*
X867702Y526684D02*
D03*
Y496763D02*
D03*
D21*
X815300Y696700D02*
D03*
X805457D02*
D03*
X825142D02*
D03*
D22*
X1053247Y473684D02*
D03*
Y463684D02*
D03*
Y483684D02*
D03*
Y412684D02*
D03*
Y402684D02*
D03*
Y422684D02*
D03*
D23*
X1070300Y577700D02*
D03*
Y597700D02*
D03*
Y587700D02*
D03*
Y567700D02*
D03*
D24*
X1128102Y724185D02*
D03*
Y869854D02*
D03*
X675346D02*
D03*
X675772Y724176D02*
D03*
D25*
X715221Y720239D02*
D03*
X705221D02*
D03*
X725221D02*
D03*
X735221D02*
D03*
X745221D02*
D03*
X755221D02*
D03*
X765221D02*
D03*
X775221D02*
D03*
X785221D02*
D03*
X795221D02*
D03*
X805221D02*
D03*
X815221D02*
D03*
X825221D02*
D03*
X835221D02*
D03*
X845221D02*
D03*
X855221D02*
D03*
D26*
X965276Y639887D02*
D03*
X947560Y665477D02*
D03*
X965276D02*
D03*
X947560Y639887D02*
D03*
X855040Y639887D02*
D03*
X837324Y665477D02*
D03*
X855040D02*
D03*
X837324Y639887D02*
D03*
X760552D02*
D03*
X742835Y665477D02*
D03*
X760552D02*
D03*
X742835Y639887D02*
D03*
X1059765D02*
D03*
X1042048Y665477D02*
D03*
X1059765D02*
D03*
X1042048Y639887D02*
D03*
D27*
X1024300Y686700D02*
D03*
X1001300D02*
D03*
X703300Y452700D02*
D03*
X690300D02*
D03*
X703300Y470700D02*
D03*
X690300D02*
D03*
X703300Y488700D02*
D03*
X690300D02*
D03*
X703300Y506700D02*
D03*
X690300D02*
D03*
X703300Y524700D02*
D03*
X690300D02*
D03*
X703300Y543700D02*
D03*
X690300D02*
D03*
X703300Y564700D02*
D03*
X690300D02*
D03*
Y437700D02*
D03*
X703300D02*
D03*
X697300Y430700D02*
D03*
X736300Y403700D02*
D03*
Y410700D02*
D03*
Y416700D02*
D03*
X707300Y403700D02*
D03*
Y410700D02*
D03*
Y416700D02*
D03*
X722300Y428700D02*
D03*
Y423700D02*
D03*
X736300D02*
D03*
X830300Y300700D02*
D03*
X710300Y299700D02*
D03*
X820300Y300700D02*
D03*
X815300Y300700D02*
D03*
X810300D02*
D03*
X805300D02*
D03*
X800300D02*
D03*
X795300Y300700D02*
D03*
X825300Y300700D02*
D03*
X700300Y299700D02*
D03*
X695300Y299700D02*
D03*
X690300D02*
D03*
X685300D02*
D03*
X680300D02*
D03*
X675300Y299700D02*
D03*
X705300Y299700D02*
D03*
X806300Y625700D02*
D03*
X845300D02*
D03*
X888300D02*
D03*
X936300D02*
D03*
X979300D02*
D03*
X1098300Y597700D02*
D03*
X975300Y478700D02*
D03*
X1010300Y580700D02*
D03*
X1000300Y494700D02*
D03*
X900300Y486700D02*
D03*
Y508700D02*
D03*
X1033300Y601700D02*
D03*
X845300Y608700D02*
D03*
X806300D02*
D03*
X936300D02*
D03*
X816300Y486700D02*
D03*
Y508700D02*
D03*
X931300Y494700D02*
D03*
Y516700D02*
D03*
X1069300Y443700D02*
D03*
X1099300D02*
D03*
X1094300D02*
D03*
X1089300D02*
D03*
X1084300D02*
D03*
X1079300D02*
D03*
X1074300D02*
D03*
X1023300Y592700D02*
D03*
X1134300Y331700D02*
D03*
X1134300Y336700D02*
D03*
X1134300Y341700D02*
D03*
X1134300Y346700D02*
D03*
X1134300Y351700D02*
D03*
Y356700D02*
D03*
Y326700D02*
D03*
X1128300D02*
D03*
X1122300D02*
D03*
X1116300D02*
D03*
X1128300Y356700D02*
D03*
X1122300D02*
D03*
X1116300D02*
D03*
X1110300Y326700D02*
D03*
Y356700D02*
D03*
Y351700D02*
D03*
X1110300Y346700D02*
D03*
X1110300Y341700D02*
D03*
X1110300Y336700D02*
D03*
X1110300Y331700D02*
D03*
X1041300Y538700D02*
D03*
Y517700D02*
D03*
X1023300Y561700D02*
D03*
Y573700D02*
D03*
X974300D02*
D03*
Y561700D02*
D03*
X988300Y583700D02*
D03*
X888300Y608700D02*
D03*
X979300D02*
D03*
X1008300Y609700D02*
D03*
X1016300D02*
D03*
X1000300D02*
D03*
X728300Y603700D02*
D03*
X734300D02*
D03*
X1010300Y306700D02*
D03*
Y312700D02*
D03*
Y318700D02*
D03*
Y324700D02*
D03*
Y330700D02*
D03*
X954300Y317700D02*
D03*
X948300D02*
D03*
X942300D02*
D03*
X936300D02*
D03*
X930300D02*
D03*
X1134300Y267700D02*
D03*
X1128300D02*
D03*
X1122300D02*
D03*
X1116300D02*
D03*
X1110300D02*
D03*
X806300Y556700D02*
D03*
X831300D02*
D03*
X788300D02*
D03*
X1076300Y520700D02*
D03*
X1101300D02*
D03*
D28*
X1124300Y686700D02*
D03*
X692300Y311700D02*
D03*
Y343700D02*
D03*
X686300Y667700D02*
D03*
Y625700D02*
D03*
X686284Y582653D02*
D03*
X1124300Y669700D02*
D03*
Y652700D02*
D03*
Y635700D02*
D03*
Y618700D02*
D03*
Y601700D02*
D03*
Y584700D02*
D03*
Y567700D02*
D03*
X813300Y344700D02*
D03*
Y312700D02*
D03*
D29*
X907703Y467695D02*
D03*
X921091Y467702D02*
D03*
X975703Y467695D02*
D03*
X989091Y467702D02*
D03*
D30*
X731294Y610297D02*
D03*
X731302Y596909D02*
D03*
X717295Y610297D02*
D03*
X717302Y596909D02*
D03*
X686528Y424874D02*
D03*
X686536Y411485D02*
D03*
X746308Y424073D02*
D03*
X746300Y437461D02*
D03*
D31*
X706793Y425340D02*
D03*
X710533Y433214D02*
D03*
X714274Y425340D02*
D03*
X993040Y494637D02*
D03*
X989300Y486763D02*
D03*
X985560Y494637D02*
D03*
X925040D02*
D03*
X921300Y486763D02*
D03*
X917560Y494637D02*
D03*
X1049560Y517637D02*
D03*
X1053300Y509763D02*
D03*
X1057040Y517637D02*
D03*
D32*
X718533Y406926D02*
D03*
X722274Y406926D02*
D03*
X714793D02*
D03*
Y415627D02*
D03*
X722274D02*
D03*
D33*
X697533Y425312D02*
D03*
Y417241D02*
D03*
X714300Y386665D02*
D03*
Y394735D02*
D03*
X722300Y386665D02*
D03*
Y394735D02*
D03*
X958300Y365665D02*
D03*
Y373735D02*
D03*
X1006300Y365665D02*
D03*
Y373735D02*
D03*
X975300Y494735D02*
D03*
Y486665D02*
D03*
X938300Y373735D02*
D03*
Y365665D02*
D03*
X890300Y373735D02*
D03*
Y365665D02*
D03*
X908300Y486665D02*
D03*
Y494735D02*
D03*
Y508665D02*
D03*
Y516735D02*
D03*
X1067300Y531735D02*
D03*
Y523665D02*
D03*
X694284Y597617D02*
D03*
Y605688D02*
D03*
X826300Y437665D02*
D03*
Y445735D02*
D03*
X805300D02*
D03*
Y437665D02*
D03*
X705284Y597617D02*
D03*
Y605688D02*
D03*
X722284Y578617D02*
D03*
Y586688D02*
D03*
X732284Y578617D02*
D03*
Y586688D02*
D03*
X762300Y607665D02*
D03*
Y615735D02*
D03*
X1067300Y516735D02*
D03*
Y508665D02*
D03*
X1042300Y597735D02*
D03*
Y589665D02*
D03*
X1052300Y589665D02*
D03*
Y597735D02*
D03*
X975956Y583657D02*
D03*
Y591728D02*
D03*
X845300Y702735D02*
D03*
Y694665D02*
D03*
X904300Y724735D02*
D03*
Y716665D02*
D03*
X816300Y437665D02*
D03*
Y445735D02*
D03*
X979300Y647735D02*
D03*
Y639665D02*
D03*
X869300Y647735D02*
D03*
Y639665D02*
D03*
X774300Y647735D02*
D03*
Y639665D02*
D03*
X982300Y321665D02*
D03*
Y329735D02*
D03*
D34*
X706587Y373700D02*
D03*
X730013D02*
D03*
D35*
X754335Y413700D02*
D03*
X746265D02*
D03*
X1070335Y555700D02*
D03*
X1062265D02*
D03*
X728335Y625700D02*
D03*
X720265D02*
D03*
X1039335Y483700D02*
D03*
X1031265D02*
D03*
X1039335Y463700D02*
D03*
X1031265D02*
D03*
X1039335Y402700D02*
D03*
X1031265D02*
D03*
X1053265Y497700D02*
D03*
X1061335D02*
D03*
X1090335Y567700D02*
D03*
X1082265D02*
D03*
X1090335Y577700D02*
D03*
X1082265D02*
D03*
X1007265Y561700D02*
D03*
X1015335D02*
D03*
X997335Y573700D02*
D03*
X989265D02*
D03*
X997335Y561700D02*
D03*
X989265D02*
D03*
X1015335Y573700D02*
D03*
X1007265D02*
D03*
X1051265Y625700D02*
D03*
X1059335D02*
D03*
X867265Y720700D02*
D03*
X875335D02*
D03*
X1061283Y443684D02*
D03*
X1053212D02*
D03*
D36*
X1103717Y312700D02*
D03*
X1080883D02*
D03*
X1103717Y293700D02*
D03*
X1080883D02*
D03*
D37*
X925040Y516637D02*
D03*
X921300Y508763D02*
D03*
X917560Y516637D02*
D03*
D38*
X713221Y586393D02*
D03*
X705347Y582653D02*
D03*
X713221Y578913D02*
D03*
X743347Y611913D02*
D03*
X751221Y615653D02*
D03*
X743347Y619393D02*
D03*
D39*
X1053300Y328952D02*
D03*
D40*
X1044245Y303558D02*
D03*
X1062355D02*
D03*
D41*
X985568Y544700D02*
D03*
X1019032D02*
D03*
D42*
X1017127Y625629D02*
D03*
X995473D02*
D03*
X997442D02*
D03*
X999410D02*
D03*
X1001379D02*
D03*
X1005316D02*
D03*
X1007284D02*
D03*
X1009253D02*
D03*
X1011221D02*
D03*
X1013190D02*
D03*
X1015158D02*
D03*
Y591771D02*
D03*
X1013190D02*
D03*
X1011221D02*
D03*
X1009253D02*
D03*
X1007284D02*
D03*
X1005316D02*
D03*
X1003347D02*
D03*
X1001379D02*
D03*
X999410D02*
D03*
X997442D02*
D03*
X995473D02*
D03*
X1017127D02*
D03*
X1003347Y625629D02*
D03*
D43*
X1023229Y599842D02*
D03*
Y601810D02*
D03*
Y603779D02*
D03*
Y607716D02*
D03*
Y609684D02*
D03*
Y611653D02*
D03*
Y613621D02*
D03*
X989371Y619527D02*
D03*
Y617558D02*
D03*
Y613621D02*
D03*
Y611653D02*
D03*
Y609684D02*
D03*
Y605747D02*
D03*
Y603779D02*
D03*
X1023229Y597873D02*
D03*
Y605747D02*
D03*
Y615590D02*
D03*
Y617558D02*
D03*
Y619527D02*
D03*
X989371Y597873D02*
D03*
Y615590D02*
D03*
Y607716D02*
D03*
Y601810D02*
D03*
Y599842D02*
D03*
D44*
X893237Y716960D02*
D03*
X885363Y720700D02*
D03*
X893237Y724440D02*
D03*
D45*
X1122300Y342700D02*
D03*
Y303700D02*
D03*
D46*
X1040300Y473700D02*
X1065300D01*
X1040300Y412700D02*
X1065300D01*
X835300Y710700D02*
Y732700D01*
X795300Y709700D02*
Y731700D01*
X806300Y452790D02*
Y469700D01*
X1080883Y303700D02*
Y312700D01*
Y293700D02*
Y303700D01*
X1080741Y303558D02*
X1080883Y303700D01*
X1062355Y303558D02*
X1080741D01*
X1103717Y293700D02*
X1104300Y294283D01*
X1080883Y293700D02*
X1081442Y294259D01*
X825221Y711700D02*
Y720239D01*
X845221Y712700D02*
Y720239D01*
X815221Y711700D02*
Y720239D01*
X1045442Y303700D02*
X1061300D01*
X1045300Y303558D02*
X1045442Y303700D01*
X805729Y452219D02*
X806300Y452790D01*
X705221Y720239D02*
Y730700D01*
X725221Y720239D02*
Y729700D01*
X735221Y720239D02*
Y729700D01*
X715221Y720239D02*
Y729700D01*
X785221Y720239D02*
Y728700D01*
X805221Y720239D02*
Y728430D01*
X1053247Y443720D02*
Y463684D01*
X1053212Y422720D02*
Y443684D01*
X1053300Y328952D02*
Y366627D01*
X1053358Y366684D01*
Y402574D01*
X1053247Y402684D02*
X1053358Y402574D01*
X760552Y639887D02*
Y665477D01*
X855040Y639887D02*
Y665477D01*
X965276Y639887D02*
Y665477D01*
X1059765Y639887D02*
Y665477D01*
Y632526D02*
Y639887D01*
X813520Y344920D02*
Y395700D01*
X1103717Y281117D02*
Y293700D01*
X1099300Y276700D02*
X1103717Y281117D01*
X989300Y276700D02*
X1099300D01*
X982300Y283700D02*
X989300Y276700D01*
X982300Y283700D02*
Y318700D01*
D47*
X1122300Y342700D02*
Y356700D01*
X1123332Y327731D02*
Y341700D01*
X1112331Y342700D02*
X1122300D01*
X1130300D01*
D48*
X1042335Y597700D02*
X1070300D01*
X1042320Y597716D02*
X1042335Y597700D01*
X890678Y419078D02*
Y443779D01*
X885300Y413700D02*
X890678Y419078D01*
X754335Y413700D02*
X885300D01*
X908300Y516735D02*
X917461D01*
Y494735D02*
X917560Y494637D01*
X908300Y494735D02*
X917461D01*
X855221Y720239D02*
X866803D01*
X1090335Y567700D02*
Y577700D01*
Y594665D01*
X1070300Y597700D02*
X1087300D01*
X825142Y696700D02*
X825221Y696778D01*
X845221Y702815D02*
X845300Y702735D01*
X815221Y696779D02*
X815300Y696700D01*
X815221Y696779D02*
Y711700D01*
X845221Y702815D02*
Y712700D01*
X825256Y702735D02*
X845300D01*
X825221Y702700D02*
X825256Y702735D01*
X825221Y696778D02*
Y702700D01*
Y711700D01*
X866803Y720239D02*
X867265Y720700D01*
X875335D02*
X885363D01*
X893237Y724440D02*
X894560D01*
X902335Y716665D01*
X904300D01*
X1053232Y483700D02*
X1053247Y483684D01*
X1053300Y497735D02*
Y509763D01*
X1053265Y497700D02*
X1053300Y497735D01*
X1053265Y483701D02*
Y497700D01*
X1053247Y483684D02*
X1053265Y483701D01*
X1087300Y597700D02*
X1090335Y594665D01*
X760552Y639887D02*
X774078D01*
X774300Y639665D01*
X855040Y639887D02*
X869078D01*
X869300Y639665D01*
D49*
X1103717Y303700D02*
Y312700D01*
Y293700D02*
Y303700D01*
X1122300D01*
D50*
X839300Y443595D02*
Y530700D01*
X847300Y538700D01*
X939300D01*
X946300Y531700D01*
X1067265D01*
X833370Y437665D02*
X839300Y443595D01*
X826300Y437665D02*
X833370D01*
X1083335Y531735D02*
X1090335Y538735D01*
X1067300Y531735D02*
X1083335D01*
X1067265Y531700D02*
X1067300Y531735D01*
X1090335Y538735D02*
Y567700D01*
X965276Y639887D02*
X979078D01*
M02*
