G04 Layer_Physical_Order=1*
G04 Layer_Color=128*
%FSLAX25Y25*%
%MOIN*%
G70*
G01*
G75*
%ADD10C,0.01000*%
%ADD11C,0.01200*%
%ADD12C,0.04000*%
%ADD13C,0.02000*%
G04:AMPARAMS|DCode=14|XSize=118.11mil|YSize=118.11mil|CornerRadius=29.53mil|HoleSize=0mil|Usage=FLASHONLY|Rotation=90.000|XOffset=0mil|YOffset=0mil|HoleType=Round|Shape=RoundedRectangle|*
%AMROUNDEDRECTD14*
21,1,0.11811,0.05906,0,0,90.0*
21,1,0.05906,0.11811,0,0,90.0*
1,1,0.05906,0.02953,0.02953*
1,1,0.05906,0.02953,-0.02953*
1,1,0.05906,-0.02953,-0.02953*
1,1,0.05906,-0.02953,0.02953*
%
%ADD14ROUNDEDRECTD14*%
%ADD15R,0.07087X0.09843*%
%ADD16C,0.12598*%
%ADD17R,0.06299X0.09843*%
%ADD18C,0.07874*%
G04:AMPARAMS|DCode=19|XSize=78.74mil|YSize=78.74mil|CornerRadius=19.69mil|HoleSize=0mil|Usage=FLASHONLY|Rotation=0.000|XOffset=0mil|YOffset=0mil|HoleType=Round|Shape=RoundedRectangle|*
%AMROUNDEDRECTD19*
21,1,0.07874,0.03937,0,0,0.0*
21,1,0.03937,0.07874,0,0,0.0*
1,1,0.03937,0.01969,-0.01969*
1,1,0.03937,-0.01969,-0.01969*
1,1,0.03937,-0.01969,0.01969*
1,1,0.03937,0.01969,0.01969*
%
%ADD19ROUNDEDRECTD19*%
%ADD20C,0.09055*%
%ADD21O,0.07087X0.07874*%
%ADD22R,0.11811X0.07087*%
%ADD23R,0.07874X0.05118*%
%ADD24C,0.19685*%
%ADD25R,0.07087X0.11811*%
%ADD26C,0.09843*%
%ADD27C,0.02362*%
G36*
X1122380Y880200D02*
X1121138Y879439D01*
X1119724Y878231D01*
X1118517Y876818D01*
X1117546Y875233D01*
X1116834Y873515D01*
X1116400Y871707D01*
X1116254Y869854D01*
X1116400Y868001D01*
X1116834Y866193D01*
X1117546Y864475D01*
X1118517Y862890D01*
X1119724Y861476D01*
X1121138Y860269D01*
X1122723Y859298D01*
X1124441Y858586D01*
X1126248Y858152D01*
X1128102Y858006D01*
X1129955Y858152D01*
X1131763Y858586D01*
X1133480Y859298D01*
X1135066Y860269D01*
X1136479Y861476D01*
X1137687Y862890D01*
X1138658Y864475D01*
X1139369Y866193D01*
X1139804Y868001D01*
X1140300Y867957D01*
Y726081D01*
X1139804Y726038D01*
X1139369Y727846D01*
X1138658Y729564D01*
X1137687Y731149D01*
X1136479Y732562D01*
X1135066Y733770D01*
X1133480Y734741D01*
X1131763Y735453D01*
X1129955Y735886D01*
X1128102Y736032D01*
X1126248Y735886D01*
X1124441Y735453D01*
X1122723Y734741D01*
X1121138Y733770D01*
X1119724Y732562D01*
X1118517Y731149D01*
X1117546Y729564D01*
X1116834Y727846D01*
X1116400Y726038D01*
X1116254Y724185D01*
X1116400Y722331D01*
X1116834Y720524D01*
X1117546Y718806D01*
X1118517Y717221D01*
X1119724Y715807D01*
X1121138Y714600D01*
X1122723Y713629D01*
X1124441Y712917D01*
X1126248Y712483D01*
X1128102Y712337D01*
X1129955Y712483D01*
X1131763Y712917D01*
X1133480Y713629D01*
X1135066Y714600D01*
X1136479Y715807D01*
X1137687Y717221D01*
X1138658Y718806D01*
X1139369Y720524D01*
X1139804Y722331D01*
X1140300Y722288D01*
Y263700D01*
X659300D01*
Y803700D01*
Y880700D01*
X669483D01*
X669624Y880200D01*
X668382Y879439D01*
X666968Y878231D01*
X665761Y876818D01*
X664790Y875233D01*
X664078Y873515D01*
X663644Y871707D01*
X663498Y869854D01*
X663644Y868001D01*
X664078Y866193D01*
X664790Y864475D01*
X665761Y862890D01*
X666968Y861476D01*
X668382Y860269D01*
X669967Y859298D01*
X671685Y858586D01*
X673493Y858152D01*
X675346Y858006D01*
X677199Y858152D01*
X679007Y858586D01*
X680725Y859298D01*
X682310Y860269D01*
X683723Y861476D01*
X684931Y862890D01*
X685902Y864475D01*
X686614Y866193D01*
X687048Y868001D01*
X687194Y869854D01*
X687048Y871707D01*
X686614Y873515D01*
X685902Y875233D01*
X684931Y876818D01*
X683723Y878231D01*
X682310Y879439D01*
X681068Y880200D01*
X681209Y880700D01*
X1122239D01*
X1122380Y880200D01*
D02*
G37*
%LPC*%
G36*
X1010300Y583877D02*
X1009478Y583769D01*
X1008712Y583451D01*
X1008054Y582946D01*
X1007549Y582288D01*
X1007232Y581522D01*
X1007123Y580700D01*
X1007232Y579878D01*
X1007549Y579112D01*
X1007709Y578902D01*
Y483773D01*
X1005227Y481291D01*
X977098D01*
X976888Y481451D01*
X976122Y481769D01*
X975300Y481877D01*
X974478Y481769D01*
X973712Y481451D01*
X973054Y480946D01*
X972549Y480288D01*
X972231Y479522D01*
X972123Y478700D01*
X972231Y477878D01*
X972549Y477112D01*
X973054Y476454D01*
X973712Y475949D01*
X974478Y475632D01*
X975300Y475523D01*
X976122Y475632D01*
X976888Y475949D01*
X977098Y476109D01*
X1006300D01*
X1006971Y476198D01*
X1007595Y476456D01*
X1008132Y476868D01*
X1012132Y480868D01*
X1012544Y481405D01*
X1012802Y482029D01*
X1012891Y482700D01*
Y578902D01*
X1013051Y579112D01*
X1013369Y579878D01*
X1013477Y580700D01*
X1013369Y581522D01*
X1013051Y582288D01*
X1012546Y582946D01*
X1011888Y583451D01*
X1011122Y583769D01*
X1010300Y583877D01*
D02*
G37*
G36*
X1061121Y472700D02*
X1053247D01*
X1045373D01*
Y468173D01*
Y458173D01*
X1061121D01*
Y468173D01*
Y472700D01*
D02*
G37*
G36*
X1081300Y742703D02*
X849300D01*
X848264Y742566D01*
X847299Y742167D01*
X846470Y741530D01*
X842390Y737451D01*
X841754Y736622D01*
X841354Y735657D01*
X841218Y734621D01*
Y728113D01*
X836205D01*
Y720238D01*
Y712364D01*
X860732D01*
Y728113D01*
X849223D01*
Y732963D01*
X850958Y734697D01*
X1079642D01*
X1082297Y732042D01*
Y491358D01*
X1078626Y487687D01*
X1061121D01*
Y489196D01*
X1045373D01*
Y478172D01*
Y474669D01*
X1053247D01*
X1061121D01*
Y478172D01*
Y479681D01*
X1080284D01*
X1081320Y479818D01*
X1082286Y480218D01*
X1083115Y480854D01*
X1089130Y486870D01*
X1089767Y487699D01*
X1090166Y488664D01*
X1090303Y489700D01*
Y733700D01*
X1090166Y734736D01*
X1089767Y735701D01*
X1089130Y736530D01*
X1084130Y741530D01*
X1083301Y742167D01*
X1082336Y742566D01*
X1081300Y742703D01*
D02*
G37*
G36*
X867702Y503291D02*
X866428Y503165D01*
X865204Y502794D01*
X864075Y502190D01*
X863086Y501379D01*
X862274Y500389D01*
X861671Y499261D01*
X861300Y498036D01*
X861174Y496763D01*
X861300Y495490D01*
X861671Y494265D01*
X862274Y493137D01*
X863086Y492147D01*
X864075Y491336D01*
X865204Y490732D01*
X866428Y490361D01*
X867702Y490236D01*
X868975Y490361D01*
X870199Y490732D01*
X871328Y491336D01*
X872317Y492147D01*
X873129Y493137D01*
X873732Y494265D01*
X874104Y495490D01*
X874229Y496763D01*
X874104Y498036D01*
X873732Y499261D01*
X873129Y500389D01*
X872317Y501379D01*
X871328Y502190D01*
X870199Y502794D01*
X868975Y503165D01*
X867702Y503291D01*
D02*
G37*
G36*
X900300Y489877D02*
X899478Y489769D01*
X898712Y489451D01*
X898502Y489291D01*
X818098D01*
X817888Y489451D01*
X817122Y489769D01*
X816300Y489877D01*
X815478Y489769D01*
X814712Y489451D01*
X814054Y488946D01*
X813549Y488288D01*
X813231Y487522D01*
X813123Y486700D01*
X813231Y485878D01*
X813549Y485112D01*
X814054Y484454D01*
X814712Y483949D01*
X815478Y483632D01*
X816300Y483523D01*
X817122Y483632D01*
X817888Y483949D01*
X818098Y484109D01*
X898502D01*
X898712Y483949D01*
X899478Y483632D01*
X900300Y483523D01*
X901122Y483632D01*
X901888Y483949D01*
X902546Y484454D01*
X903051Y485112D01*
X903368Y485878D01*
X903477Y486700D01*
X903368Y487522D01*
X903051Y488288D01*
X902546Y488946D01*
X901888Y489451D01*
X901122Y489769D01*
X900300Y489877D01*
D02*
G37*
G36*
X780213Y468417D02*
X778592Y468257D01*
X777034Y467784D01*
X775597Y467017D01*
X774339Y465983D01*
X773305Y464724D01*
X772538Y463288D01*
X772065Y461730D01*
X771905Y460109D01*
X772065Y458488D01*
X772538Y456930D01*
X773305Y455493D01*
X774339Y454235D01*
X775597Y453201D01*
X777034Y452434D01*
X778592Y451961D01*
X780213Y451801D01*
X781834Y451961D01*
X783392Y452434D01*
X784829Y453201D01*
X786087Y454235D01*
X787121Y455493D01*
X787888Y456930D01*
X788361Y458488D01*
X788521Y460109D01*
X788361Y461730D01*
X787888Y463288D01*
X787121Y464724D01*
X786087Y465983D01*
X784829Y467017D01*
X783392Y467784D01*
X781834Y468257D01*
X780213Y468417D01*
D02*
G37*
G36*
X985253Y459569D02*
X979347D01*
X978063Y459400D01*
X976865Y458904D01*
X975837Y458115D01*
X975049Y457087D01*
X974553Y455890D01*
X974384Y454605D01*
Y448700D01*
X974553Y447415D01*
X975049Y446218D01*
X975837Y445190D01*
X976865Y444401D01*
X978063Y443905D01*
X979347Y443736D01*
X985253D01*
X986537Y443905D01*
X987735Y444401D01*
X988763Y445190D01*
X989552Y446218D01*
X990047Y447415D01*
X990217Y448700D01*
Y454605D01*
X990047Y455890D01*
X989552Y457087D01*
X988763Y458115D01*
X987735Y458904D01*
X986537Y459400D01*
X985253Y459569D01*
D02*
G37*
G36*
X860213Y468417D02*
X858592Y468257D01*
X857034Y467784D01*
X855597Y467017D01*
X854339Y465983D01*
X853305Y464724D01*
X852538Y463288D01*
X852065Y461730D01*
X851905Y460109D01*
X852065Y458488D01*
X852538Y456930D01*
X853305Y455493D01*
X854339Y454235D01*
X855597Y453201D01*
X857034Y452434D01*
X858592Y451961D01*
X860213Y451801D01*
X861834Y451961D01*
X863392Y452434D01*
X864828Y453201D01*
X866087Y454235D01*
X867121Y455493D01*
X867888Y456930D01*
X868361Y458488D01*
X868521Y460109D01*
X868361Y461730D01*
X867888Y463288D01*
X867121Y464724D01*
X866087Y465983D01*
X864828Y467017D01*
X863392Y467784D01*
X861834Y468257D01*
X860213Y468417D01*
D02*
G37*
G36*
X831831Y465999D02*
X807697D01*
Y459109D01*
Y452219D01*
X831831D01*
Y465999D01*
D02*
G37*
G36*
X805729D02*
X791595D01*
Y452219D01*
X805729D01*
Y459109D01*
Y465999D01*
D02*
G37*
G36*
X900300Y511877D02*
X899478Y511768D01*
X898712Y511451D01*
X898502Y511291D01*
X818098D01*
X817888Y511451D01*
X817122Y511768D01*
X816300Y511877D01*
X815478Y511768D01*
X814712Y511451D01*
X814054Y510946D01*
X813549Y510288D01*
X813231Y509522D01*
X813123Y508700D01*
X813231Y507878D01*
X813549Y507112D01*
X814054Y506454D01*
X814712Y505949D01*
X815478Y505631D01*
X816300Y505523D01*
X817122Y505631D01*
X817888Y505949D01*
X818098Y506109D01*
X898502D01*
X898712Y505949D01*
X899478Y505631D01*
X900300Y505523D01*
X901122Y505631D01*
X901888Y505949D01*
X902546Y506454D01*
X903051Y507112D01*
X903368Y507878D01*
X903477Y508700D01*
X903368Y509522D01*
X903051Y510288D01*
X902546Y510946D01*
X901888Y511451D01*
X901122Y511768D01*
X900300Y511877D01*
D02*
G37*
G36*
X760552Y646810D02*
X759201Y646677D01*
X757903Y646283D01*
X756706Y645643D01*
X755657Y644782D01*
X754796Y643733D01*
X754156Y642536D01*
X753762Y641237D01*
X753629Y639887D01*
X753762Y638536D01*
X754156Y637237D01*
X754796Y636040D01*
X755657Y634991D01*
X756706Y634130D01*
X757903Y633491D01*
X759201Y633097D01*
X760552Y632964D01*
X761903Y633097D01*
X763201Y633491D01*
X764398Y634130D01*
X765447Y634991D01*
X766308Y636040D01*
X766948Y637237D01*
X767342Y638536D01*
X767475Y639887D01*
X767342Y641237D01*
X766948Y642536D01*
X766308Y643733D01*
X765447Y644782D01*
X764398Y645643D01*
X763201Y646283D01*
X761903Y646677D01*
X760552Y646810D01*
D02*
G37*
G36*
X1030300Y619291D02*
X703300D01*
X702630Y619202D01*
X702005Y618944D01*
X701468Y618532D01*
X695468Y612532D01*
X695056Y611995D01*
X694798Y611371D01*
X694709Y610700D01*
Y432498D01*
X694549Y432288D01*
X694232Y431522D01*
X694123Y430700D01*
X694232Y429878D01*
X694549Y429112D01*
X695054Y428454D01*
X695712Y427949D01*
X696478Y427632D01*
X697300Y427523D01*
X698122Y427632D01*
X698888Y427949D01*
X699546Y428454D01*
X700051Y429112D01*
X700368Y429878D01*
X700477Y430700D01*
X700368Y431522D01*
X700051Y432288D01*
X699891Y432498D01*
Y609627D01*
X704373Y614109D01*
X1029227D01*
X1030709Y612627D01*
Y603498D01*
X1030549Y603288D01*
X1030231Y602522D01*
X1030123Y601700D01*
X1030231Y600878D01*
X1030549Y600112D01*
X1031054Y599454D01*
X1031712Y598949D01*
X1032478Y598631D01*
X1033300Y598523D01*
X1034122Y598631D01*
X1034888Y598949D01*
X1035546Y599454D01*
X1036051Y600112D01*
X1036368Y600878D01*
X1036477Y601700D01*
X1036368Y602522D01*
X1036051Y603288D01*
X1035891Y603498D01*
Y613700D01*
X1035802Y614370D01*
X1035544Y614995D01*
X1035132Y615532D01*
X1032132Y618532D01*
X1031595Y618944D01*
X1030970Y619202D01*
X1030300Y619291D01*
D02*
G37*
G36*
X855040Y646810D02*
X853689Y646677D01*
X852391Y646283D01*
X851194Y645643D01*
X850145Y644782D01*
X849284Y643733D01*
X848644Y642536D01*
X848250Y641237D01*
X848117Y639887D01*
X848250Y638536D01*
X848644Y637237D01*
X849284Y636040D01*
X850145Y634991D01*
X851194Y634130D01*
X852391Y633491D01*
X853689Y633097D01*
X855040Y632964D01*
X856391Y633097D01*
X857689Y633491D01*
X858886Y634130D01*
X859935Y634991D01*
X860797Y636040D01*
X861436Y637237D01*
X861830Y638536D01*
X861963Y639887D01*
X861830Y641237D01*
X861436Y642536D01*
X860797Y643733D01*
X859935Y644782D01*
X858886Y645643D01*
X857689Y646283D01*
X856391Y646677D01*
X855040Y646810D01*
D02*
G37*
G36*
X965276Y646810D02*
X963926Y646677D01*
X962627Y646283D01*
X961430Y645643D01*
X960381Y644782D01*
X959520Y643733D01*
X958880Y642536D01*
X958486Y641237D01*
X958353Y639887D01*
X958486Y638536D01*
X958880Y637237D01*
X959520Y636040D01*
X960381Y634991D01*
X961430Y634130D01*
X962627Y633491D01*
X963926Y633097D01*
X965276Y632964D01*
X966627Y633097D01*
X967926Y633491D01*
X969123Y634130D01*
X970172Y634991D01*
X971033Y636040D01*
X971673Y637237D01*
X972066Y638536D01*
X972200Y639887D01*
X972066Y641237D01*
X971673Y642536D01*
X971033Y643733D01*
X970172Y644782D01*
X969123Y645643D01*
X967926Y646283D01*
X966627Y646677D01*
X965276Y646810D01*
D02*
G37*
G36*
X1059765Y646810D02*
X1058414Y646677D01*
X1057115Y646283D01*
X1055918Y645643D01*
X1054869Y644782D01*
X1054008Y643733D01*
X1053368Y642536D01*
X1052975Y641237D01*
X1052841Y639887D01*
X1052975Y638536D01*
X1053368Y637237D01*
X1054008Y636040D01*
X1054869Y634991D01*
X1055918Y634130D01*
X1057115Y633491D01*
X1058414Y633097D01*
X1059765Y632964D01*
X1061115Y633097D01*
X1062414Y633491D01*
X1063611Y634130D01*
X1064660Y634991D01*
X1065521Y636040D01*
X1066161Y637237D01*
X1066555Y638536D01*
X1066688Y639887D01*
X1066555Y641237D01*
X1066161Y642536D01*
X1065521Y643733D01*
X1064660Y644782D01*
X1063611Y645643D01*
X1062414Y646283D01*
X1061115Y646677D01*
X1059765Y646810D01*
D02*
G37*
G36*
X1076206Y572227D02*
X1064394D01*
Y563172D01*
X1076206D01*
Y572227D01*
D02*
G37*
G36*
X867702Y533212D02*
X866428Y533086D01*
X865204Y532715D01*
X864075Y532112D01*
X863086Y531300D01*
X862274Y530311D01*
X861671Y529182D01*
X861300Y527958D01*
X861174Y526684D01*
X861300Y525411D01*
X861671Y524186D01*
X862274Y523058D01*
X863086Y522069D01*
X864075Y521257D01*
X865204Y520654D01*
X866428Y520282D01*
X867702Y520157D01*
X868975Y520282D01*
X870199Y520654D01*
X871328Y521257D01*
X872317Y522069D01*
X873129Y523058D01*
X873732Y524186D01*
X874104Y525411D01*
X874229Y526684D01*
X874104Y527958D01*
X873732Y529182D01*
X873129Y530311D01*
X872317Y531300D01*
X871328Y532112D01*
X870199Y532715D01*
X868975Y533086D01*
X867702Y533212D01*
D02*
G37*
G36*
X1023300Y595877D02*
X1022478Y595768D01*
X1021712Y595451D01*
X1021054Y594946D01*
X1020549Y594288D01*
X1020232Y593522D01*
X1020123Y592700D01*
X1020232Y591878D01*
X1020306Y591698D01*
Y574702D01*
X1020232Y574522D01*
X1020123Y573700D01*
X1020232Y572878D01*
X1020549Y572112D01*
X1021054Y571454D01*
X1021712Y570949D01*
X1022478Y570632D01*
X1023300Y570523D01*
X1024122Y570632D01*
X1024888Y570949D01*
X1025546Y571454D01*
X1026051Y572112D01*
X1026369Y572878D01*
X1026477Y573700D01*
X1026369Y574522D01*
X1026294Y574702D01*
Y591698D01*
X1026369Y591878D01*
X1026477Y592700D01*
X1026369Y593522D01*
X1026051Y594288D01*
X1025546Y594946D01*
X1024888Y595451D01*
X1024122Y595768D01*
X1023300Y595877D01*
D02*
G37*
G36*
X1076206Y602227D02*
X1064394D01*
Y593173D01*
X1076206D01*
Y602227D01*
D02*
G37*
G36*
Y582228D02*
X1064394D01*
Y573173D01*
X1076206D01*
Y582228D01*
D02*
G37*
G36*
X860213Y400858D02*
X858592Y400698D01*
X857034Y400225D01*
X855597Y399458D01*
X854339Y398424D01*
X853305Y397165D01*
X852538Y395729D01*
X852065Y394171D01*
X851905Y392550D01*
X852065Y390929D01*
X852538Y389371D01*
X853305Y387934D01*
X854339Y386676D01*
X855597Y385642D01*
X857034Y384875D01*
X858592Y384402D01*
X860213Y384242D01*
X861834Y384402D01*
X863392Y384875D01*
X864828Y385642D01*
X866087Y386676D01*
X867121Y387934D01*
X867888Y389371D01*
X868361Y390929D01*
X868521Y392550D01*
X868361Y394171D01*
X867888Y395729D01*
X867121Y397165D01*
X866087Y398424D01*
X864828Y399458D01*
X863392Y400225D01*
X861834Y400698D01*
X860213Y400858D01*
D02*
G37*
G36*
X780213D02*
X778592Y400698D01*
X777034Y400225D01*
X775597Y399458D01*
X774339Y398424D01*
X773305Y397165D01*
X772538Y395729D01*
X772065Y394171D01*
X771905Y392550D01*
X772065Y390929D01*
X772538Y389371D01*
X773305Y387934D01*
X774339Y386676D01*
X775597Y385642D01*
X777034Y384875D01*
X778592Y384402D01*
X780213Y384242D01*
X781834Y384402D01*
X783392Y384875D01*
X784829Y385642D01*
X786087Y386676D01*
X787121Y387934D01*
X787888Y389371D01*
X788361Y390929D01*
X788521Y392550D01*
X788361Y394171D01*
X787888Y395729D01*
X787121Y397165D01*
X786087Y398424D01*
X784829Y399458D01*
X783392Y400225D01*
X781834Y400698D01*
X780213Y400858D01*
D02*
G37*
G36*
X893631Y403664D02*
X887725D01*
X886440Y403495D01*
X885243Y402999D01*
X884215Y402210D01*
X883426Y401182D01*
X882931Y399985D01*
X882761Y398700D01*
Y392794D01*
X882931Y391510D01*
X883426Y390313D01*
X884215Y389285D01*
X885243Y388496D01*
X886440Y388000D01*
X887725Y387831D01*
X893631D01*
X894915Y388000D01*
X896113Y388496D01*
X897141Y389285D01*
X897929Y390313D01*
X898425Y391510D01*
X898594Y392794D01*
Y398700D01*
X898425Y399985D01*
X897929Y401182D01*
X897141Y402210D01*
X896113Y402999D01*
X894915Y403495D01*
X893631Y403664D01*
D02*
G37*
G36*
X961631D02*
X955725D01*
X954440Y403495D01*
X953243Y402999D01*
X952215Y402210D01*
X951427Y401182D01*
X950931Y399985D01*
X950762Y398700D01*
Y392794D01*
X950931Y391510D01*
X951427Y390313D01*
X952215Y389285D01*
X953243Y388496D01*
X954440Y388000D01*
X955725Y387831D01*
X961631D01*
X962915Y388000D01*
X964113Y388496D01*
X965141Y389285D01*
X965929Y390313D01*
X966425Y391510D01*
X966594Y392794D01*
Y398700D01*
X966425Y399985D01*
X965929Y401182D01*
X965141Y402210D01*
X964113Y402999D01*
X962915Y403495D01*
X961631Y403664D01*
D02*
G37*
G36*
X940875D02*
X934969D01*
X933685Y403495D01*
X932487Y402999D01*
X931459Y402210D01*
X930671Y401182D01*
X930175Y399985D01*
X930006Y398700D01*
Y392794D01*
X930175Y391510D01*
X930671Y390313D01*
X931459Y389285D01*
X932487Y388496D01*
X933685Y388000D01*
X934969Y387831D01*
X940875D01*
X942159Y388000D01*
X943357Y388496D01*
X944385Y389285D01*
X945173Y390313D01*
X945669Y391510D01*
X945839Y392794D01*
Y398700D01*
X945669Y399985D01*
X945173Y401182D01*
X944385Y402210D01*
X943357Y402999D01*
X942159Y403495D01*
X940875Y403664D01*
D02*
G37*
G36*
X1066153Y365700D02*
X1061300D01*
X1061317Y365527D01*
X1061655Y364413D01*
X1062203Y363387D01*
X1062941Y362488D01*
X1063840Y361750D01*
X1064866Y361202D01*
X1065979Y360864D01*
X1066153Y360847D01*
Y365700D01*
D02*
G37*
G36*
X1055326Y372624D02*
X1051389D01*
X1050361Y372488D01*
X1049404Y372092D01*
X1048581Y371461D01*
X1047950Y370638D01*
X1047553Y369681D01*
X1047418Y368653D01*
Y364716D01*
X1047553Y363688D01*
X1047950Y362730D01*
X1048581Y361908D01*
X1049404Y361277D01*
X1050361Y360880D01*
X1051389Y360745D01*
X1055326D01*
X1056354Y360880D01*
X1057312Y361277D01*
X1058134Y361908D01*
X1058765Y362730D01*
X1059162Y363688D01*
X1059297Y364716D01*
Y368653D01*
X1059162Y369681D01*
X1058765Y370638D01*
X1058134Y371461D01*
X1057312Y372092D01*
X1056354Y372488D01*
X1055326Y372624D01*
D02*
G37*
G36*
X1072974Y365700D02*
X1068121D01*
Y360847D01*
X1068295Y360864D01*
X1069408Y361202D01*
X1070434Y361750D01*
X1071333Y362488D01*
X1072071Y363387D01*
X1072620Y364413D01*
X1072957Y365527D01*
X1072974Y365700D01*
D02*
G37*
G36*
X1068121Y372521D02*
Y367669D01*
X1072974D01*
X1072957Y367842D01*
X1072620Y368955D01*
X1072071Y369981D01*
X1071333Y370880D01*
X1070434Y371618D01*
X1069408Y372167D01*
X1068295Y372504D01*
X1068121Y372521D01*
D02*
G37*
G36*
X1066153D02*
X1065979Y372504D01*
X1064866Y372167D01*
X1063840Y371618D01*
X1062941Y370880D01*
X1062203Y369981D01*
X1061655Y368955D01*
X1061317Y367842D01*
X1061300Y367669D01*
X1066153D01*
Y372521D01*
D02*
G37*
G36*
X1008875Y403664D02*
X1002969D01*
X1001685Y403495D01*
X1000487Y402999D01*
X999459Y402210D01*
X998671Y401182D01*
X998175Y399985D01*
X998006Y398700D01*
Y392794D01*
X998175Y391510D01*
X998671Y390313D01*
X999459Y389285D01*
X1000487Y388496D01*
X1001685Y388000D01*
X1002969Y387831D01*
X1008875D01*
X1010159Y388000D01*
X1011357Y388496D01*
X1012385Y389285D01*
X1013173Y390313D01*
X1013669Y391510D01*
X1013838Y392794D01*
Y398700D01*
X1013669Y399985D01*
X1013173Y401182D01*
X1012385Y402210D01*
X1011357Y402999D01*
X1010159Y403495D01*
X1008875Y403664D01*
D02*
G37*
G36*
X940875Y451695D02*
X934969D01*
X933685Y451526D01*
X932487Y451030D01*
X931459Y450241D01*
X930671Y449213D01*
X930175Y448016D01*
X930006Y446732D01*
Y440826D01*
X930175Y439541D01*
X930671Y438344D01*
X931459Y437316D01*
X932487Y436527D01*
X933685Y436031D01*
X934969Y435862D01*
X940875D01*
X942159Y436031D01*
X943357Y436527D01*
X944385Y437316D01*
X945173Y438344D01*
X945669Y439541D01*
X945839Y440826D01*
Y446732D01*
X945669Y448016D01*
X945173Y449213D01*
X944385Y450241D01*
X943357Y451030D01*
X942159Y451526D01*
X940875Y451695D01*
D02*
G37*
G36*
X893631D02*
X887725D01*
X886440Y451526D01*
X885243Y451030D01*
X884215Y450241D01*
X883426Y449213D01*
X882931Y448016D01*
X882761Y446732D01*
Y440826D01*
X882931Y439541D01*
X883426Y438344D01*
X884215Y437316D01*
X885243Y436527D01*
X886440Y436031D01*
X887725Y435862D01*
X893631D01*
X894915Y436031D01*
X896113Y436527D01*
X897141Y437316D01*
X897929Y438344D01*
X898425Y439541D01*
X898594Y440826D01*
Y446732D01*
X898425Y448016D01*
X897929Y449213D01*
X897141Y450241D01*
X896113Y451030D01*
X894915Y451526D01*
X893631Y451695D01*
D02*
G37*
G36*
X961631D02*
X955725D01*
X954440Y451526D01*
X953243Y451030D01*
X952215Y450241D01*
X951427Y449213D01*
X950931Y448016D01*
X950762Y446732D01*
Y440826D01*
X950931Y439541D01*
X951427Y438344D01*
X952215Y437316D01*
X953243Y436527D01*
X954440Y436031D01*
X955725Y435862D01*
X961631D01*
X962915Y436031D01*
X964113Y436527D01*
X965141Y437316D01*
X965929Y438344D01*
X966425Y439541D01*
X966594Y440826D01*
Y446732D01*
X966425Y448016D01*
X965929Y449213D01*
X965141Y450241D01*
X964113Y451030D01*
X962915Y451526D01*
X961631Y451695D01*
D02*
G37*
G36*
X917253Y459569D02*
X911347D01*
X910063Y459400D01*
X908865Y458904D01*
X907837Y458115D01*
X907049Y457087D01*
X906553Y455890D01*
X906384Y454605D01*
Y448700D01*
X906553Y447415D01*
X907049Y446218D01*
X907837Y445190D01*
X908865Y444401D01*
X910063Y443905D01*
X911347Y443736D01*
X917253D01*
X918538Y443905D01*
X919735Y444401D01*
X920763Y445190D01*
X921552Y446218D01*
X922047Y447415D01*
X922217Y448700D01*
Y454605D01*
X922047Y455890D01*
X921552Y457087D01*
X920763Y458115D01*
X919735Y458904D01*
X918538Y459400D01*
X917253Y459569D01*
D02*
G37*
G36*
X1008875Y451695D02*
X1002969D01*
X1001685Y451526D01*
X1000487Y451030D01*
X999459Y450241D01*
X998671Y449213D01*
X998175Y448016D01*
X998006Y446732D01*
Y440826D01*
X998175Y439541D01*
X998671Y438344D01*
X999459Y437316D01*
X1000487Y436527D01*
X1001685Y436031D01*
X1002969Y435862D01*
X1008875D01*
X1010159Y436031D01*
X1011357Y436527D01*
X1012385Y437316D01*
X1013173Y438344D01*
X1013669Y439541D01*
X1013838Y440826D01*
Y446732D01*
X1013669Y448016D01*
X1013173Y449213D01*
X1012385Y450241D01*
X1011357Y451030D01*
X1010159Y451526D01*
X1008875Y451695D01*
D02*
G37*
G36*
X832812Y402590D02*
X821788D01*
Y388810D01*
X832812D01*
Y402590D01*
D02*
G37*
G36*
X819032D02*
X808008D01*
Y388810D01*
X819032D01*
Y402590D01*
D02*
G37*
G36*
X1061121Y411700D02*
X1053247D01*
X1045373D01*
Y407172D01*
Y397172D01*
X1061121D01*
Y407172D01*
Y411700D01*
D02*
G37*
G36*
X736300Y426877D02*
X735478Y426768D01*
X734712Y426451D01*
X734502Y426291D01*
X724098D01*
X723888Y426451D01*
X723122Y426768D01*
X722300Y426877D01*
X721478Y426768D01*
X720712Y426451D01*
X720054Y425946D01*
X719549Y425288D01*
X719232Y424522D01*
X719123Y423700D01*
X719232Y422878D01*
X719549Y422112D01*
X720054Y421454D01*
X720712Y420949D01*
X721478Y420632D01*
X722300Y420523D01*
X723122Y420632D01*
X723888Y420949D01*
X724098Y421109D01*
X734502D01*
X734712Y420949D01*
X735478Y420632D01*
X736300Y420523D01*
X737122Y420632D01*
X737888Y420949D01*
X738546Y421454D01*
X739051Y422112D01*
X739368Y422878D01*
X739477Y423700D01*
X739368Y424522D01*
X739051Y425288D01*
X738546Y425946D01*
X737888Y426451D01*
X737122Y426768D01*
X736300Y426877D01*
D02*
G37*
G36*
X1061121Y428196D02*
X1045373D01*
Y417172D01*
Y413668D01*
X1053247D01*
X1061121D01*
Y417172D01*
Y428196D01*
D02*
G37*
G36*
X749662Y638902D02*
X743820D01*
Y633060D01*
X744186Y633097D01*
X745485Y633491D01*
X746682Y634130D01*
X747731Y634991D01*
X748592Y636040D01*
X749231Y637237D01*
X749625Y638536D01*
X749662Y638902D01*
D02*
G37*
G36*
X741851Y672303D02*
X741485Y672267D01*
X740186Y671873D01*
X738989Y671234D01*
X737940Y670372D01*
X737079Y669323D01*
X736439Y668126D01*
X736045Y666828D01*
X736009Y666461D01*
X741851D01*
Y672303D01*
D02*
G37*
G36*
X946576Y664493D02*
X940734D01*
X940770Y664126D01*
X941164Y662828D01*
X941803Y661631D01*
X942665Y660582D01*
X943714Y659721D01*
X944911Y659081D01*
X946209Y658687D01*
X946576Y658651D01*
Y664493D01*
D02*
G37*
G36*
X743820Y672303D02*
Y666461D01*
X749662D01*
X749625Y666828D01*
X749231Y668126D01*
X748592Y669323D01*
X747731Y670372D01*
X746682Y671234D01*
X745485Y671873D01*
X744186Y672267D01*
X743820Y672303D01*
D02*
G37*
G36*
X1043032D02*
Y666461D01*
X1048874D01*
X1048838Y666828D01*
X1048444Y668126D01*
X1047804Y669323D01*
X1046943Y670372D01*
X1045894Y671234D01*
X1044697Y671873D01*
X1043399Y672267D01*
X1043032Y672303D01*
D02*
G37*
G36*
X1041064D02*
X1040697Y672267D01*
X1039399Y671873D01*
X1038202Y671234D01*
X1037153Y670372D01*
X1036292Y669323D01*
X1035652Y668126D01*
X1035258Y666828D01*
X1035222Y666461D01*
X1041064D01*
Y672303D01*
D02*
G37*
G36*
X1048874Y664493D02*
X1043032D01*
Y658651D01*
X1043399Y658687D01*
X1044697Y659081D01*
X1045894Y659721D01*
X1046943Y660582D01*
X1047804Y661631D01*
X1048444Y662828D01*
X1048838Y664126D01*
X1048874Y664493D01*
D02*
G37*
G36*
X1041064D02*
X1035222D01*
X1035258Y664126D01*
X1035652Y662828D01*
X1036292Y661631D01*
X1037153Y660582D01*
X1038202Y659721D01*
X1039399Y659081D01*
X1040697Y658687D01*
X1041064Y658651D01*
Y664493D01*
D02*
G37*
G36*
X741851Y664493D02*
X736009D01*
X736045Y664126D01*
X736439Y662828D01*
X737079Y661631D01*
X737940Y660582D01*
X738989Y659721D01*
X740186Y659081D01*
X741485Y658687D01*
X741851Y658651D01*
Y664493D01*
D02*
G37*
G36*
X844150Y664493D02*
X838308D01*
Y658651D01*
X838674Y658687D01*
X839973Y659081D01*
X841170Y659721D01*
X842219Y660582D01*
X843080Y661631D01*
X843720Y662828D01*
X844114Y664126D01*
X844150Y664493D01*
D02*
G37*
G36*
X954386Y664493D02*
X948544D01*
Y658651D01*
X948911Y658687D01*
X950209Y659081D01*
X951406Y659721D01*
X952455Y660582D01*
X953316Y661631D01*
X953956Y662828D01*
X954350Y664126D01*
X954386Y664493D01*
D02*
G37*
G36*
X836339Y672303D02*
X835973Y672267D01*
X834674Y671873D01*
X833477Y671234D01*
X832428Y670372D01*
X831567Y669323D01*
X830927Y668126D01*
X830534Y666828D01*
X830497Y666461D01*
X836339D01*
Y672303D01*
D02*
G37*
G36*
X825142Y702653D02*
X823704Y702464D01*
X822363Y701908D01*
X821212Y701025D01*
X820524Y700129D01*
X819918D01*
X819231Y701025D01*
X818080Y701908D01*
X816739Y702464D01*
X815300Y702653D01*
X813861Y702464D01*
X812520Y701908D01*
X811369Y701025D01*
X810682Y700129D01*
X810076D01*
X809389Y701025D01*
X808237Y701908D01*
X806896Y702464D01*
X806442Y702524D01*
Y696700D01*
Y690876D01*
X806896Y690936D01*
X808237Y691492D01*
X809389Y692375D01*
X810076Y693271D01*
X810682D01*
X811369Y692375D01*
X812520Y691492D01*
X813861Y690936D01*
X815300Y690747D01*
X816739Y690936D01*
X818080Y691492D01*
X819231Y692375D01*
X819918Y693271D01*
X820524D01*
X821212Y692375D01*
X822363Y691492D01*
X823704Y690936D01*
X825142Y690747D01*
X826581Y690936D01*
X827922Y691492D01*
X829074Y692375D01*
X829957Y693527D01*
X830513Y694867D01*
X830702Y696306D01*
Y697094D01*
X830513Y698533D01*
X829957Y699873D01*
X829074Y701025D01*
X827922Y701908D01*
X826581Y702464D01*
X825142Y702653D01*
D02*
G37*
G36*
X804473Y702524D02*
X804019Y702464D01*
X802678Y701908D01*
X801526Y701025D01*
X800643Y699873D01*
X800088Y698533D01*
X799976Y697684D01*
X804473D01*
Y702524D01*
D02*
G37*
G36*
X675772Y736023D02*
X673919Y735878D01*
X672111Y735443D01*
X670393Y734732D01*
X668808Y733761D01*
X667394Y732553D01*
X666187Y731140D01*
X665216Y729555D01*
X664504Y727837D01*
X664070Y726029D01*
X663924Y724176D01*
X664070Y722323D01*
X664504Y720515D01*
X665216Y718797D01*
X666187Y717212D01*
X667394Y715798D01*
X668808Y714591D01*
X670393Y713620D01*
X672111Y712908D01*
X673919Y712474D01*
X675772Y712328D01*
X677625Y712474D01*
X679433Y712908D01*
X681151Y713620D01*
X682736Y714591D01*
X684149Y715798D01*
X685357Y717212D01*
X686328Y718797D01*
X687040Y720515D01*
X687474Y722323D01*
X687619Y724176D01*
X687474Y726029D01*
X687040Y727837D01*
X686328Y729555D01*
X685357Y731140D01*
X684149Y732553D01*
X682736Y733761D01*
X681151Y734732D01*
X679433Y735443D01*
X677625Y735878D01*
X675772Y736023D01*
D02*
G37*
G36*
X834236Y728113D02*
X796205D01*
Y720238D01*
Y712364D01*
X834236D01*
Y720238D01*
Y728113D01*
D02*
G37*
G36*
X794236D02*
X699709D01*
Y712364D01*
X794236D01*
Y720238D01*
Y728113D01*
D02*
G37*
G36*
X946576Y672303D02*
X946209Y672267D01*
X944911Y671873D01*
X943714Y671234D01*
X942665Y670372D01*
X941803Y669323D01*
X941164Y668126D01*
X940770Y666828D01*
X940734Y666462D01*
X946576D01*
Y672303D01*
D02*
G37*
G36*
X838308Y672303D02*
Y666461D01*
X844150D01*
X844114Y666828D01*
X843720Y668126D01*
X843080Y669323D01*
X842219Y670372D01*
X841170Y671234D01*
X839973Y671873D01*
X838674Y672267D01*
X838308Y672303D01*
D02*
G37*
G36*
X948544Y672303D02*
Y666462D01*
X954386D01*
X954350Y666828D01*
X953956Y668126D01*
X953316Y669323D01*
X952455Y670372D01*
X951406Y671234D01*
X950209Y671873D01*
X948911Y672267D01*
X948544Y672303D01*
D02*
G37*
G36*
X804473Y695716D02*
X799976D01*
X800088Y694867D01*
X800643Y693527D01*
X801526Y692375D01*
X802678Y691492D01*
X804019Y690936D01*
X804473Y690876D01*
Y695716D01*
D02*
G37*
G36*
X1024300Y689877D02*
X1023478Y689769D01*
X1022712Y689451D01*
X1022406Y689217D01*
X1003194D01*
X1002888Y689451D01*
X1002122Y689769D01*
X1001300Y689877D01*
X1000478Y689769D01*
X999712Y689451D01*
X999054Y688946D01*
X998549Y688288D01*
X998232Y687522D01*
X998123Y686700D01*
X998232Y685878D01*
X998549Y685112D01*
X999054Y684454D01*
X999712Y683949D01*
X1000478Y683632D01*
X1001300Y683523D01*
X1002122Y683632D01*
X1002888Y683949D01*
X1003194Y684183D01*
X1022406D01*
X1022712Y683949D01*
X1023478Y683632D01*
X1024300Y683523D01*
X1025122Y683632D01*
X1025888Y683949D01*
X1026546Y684454D01*
X1027051Y685112D01*
X1027369Y685878D01*
X1027477Y686700D01*
X1027369Y687522D01*
X1027051Y688288D01*
X1026546Y688946D01*
X1025888Y689451D01*
X1025122Y689769D01*
X1024300Y689877D01*
D02*
G37*
G36*
X946576Y638902D02*
X940734D01*
X940770Y638536D01*
X941164Y637237D01*
X941803Y636040D01*
X942665Y634991D01*
X943714Y634130D01*
X944911Y633491D01*
X946209Y633097D01*
X946576Y633061D01*
Y638902D01*
D02*
G37*
G36*
X741851Y638902D02*
X736009D01*
X736045Y638536D01*
X736439Y637237D01*
X737079Y636040D01*
X737940Y634991D01*
X738989Y634130D01*
X740186Y633491D01*
X741485Y633097D01*
X741851Y633061D01*
Y638902D01*
D02*
G37*
G36*
Y646713D02*
X741485Y646677D01*
X740186Y646283D01*
X738989Y645643D01*
X737940Y644782D01*
X737079Y643733D01*
X736439Y642536D01*
X736045Y641237D01*
X736009Y640871D01*
X741851D01*
Y646713D01*
D02*
G37*
G36*
X1041064D02*
X1040697Y646677D01*
X1039399Y646283D01*
X1038202Y645643D01*
X1037153Y644782D01*
X1036292Y643733D01*
X1035652Y642536D01*
X1035258Y641237D01*
X1035222Y640871D01*
X1041064D01*
Y646713D01*
D02*
G37*
G36*
X743820Y646713D02*
Y640871D01*
X749662D01*
X749625Y641237D01*
X749231Y642536D01*
X748592Y643733D01*
X747731Y644782D01*
X746682Y645643D01*
X745485Y646283D01*
X744186Y646677D01*
X743820Y646713D01*
D02*
G37*
G36*
X836339Y638903D02*
X830497D01*
X830534Y638536D01*
X830927Y637237D01*
X831567Y636040D01*
X832428Y634991D01*
X833477Y634130D01*
X834674Y633491D01*
X835973Y633097D01*
X836339Y633061D01*
Y638903D01*
D02*
G37*
G36*
X1048874Y638902D02*
X1043032D01*
Y633061D01*
X1043399Y633097D01*
X1044697Y633491D01*
X1045894Y634130D01*
X1046943Y634991D01*
X1047804Y636040D01*
X1048444Y637237D01*
X1048838Y638536D01*
X1048874Y638902D01*
D02*
G37*
G36*
X844150Y638903D02*
X838308D01*
Y633061D01*
X838674Y633097D01*
X839973Y633491D01*
X841170Y634130D01*
X842219Y634991D01*
X843080Y636040D01*
X843720Y637237D01*
X844114Y638536D01*
X844150Y638903D01*
D02*
G37*
G36*
X954386Y638902D02*
X948544D01*
Y633061D01*
X948911Y633097D01*
X950209Y633491D01*
X951406Y634130D01*
X952455Y634991D01*
X953316Y636040D01*
X953956Y637237D01*
X954350Y638536D01*
X954386Y638902D01*
D02*
G37*
G36*
X1041064Y638902D02*
X1035222D01*
X1035258Y638536D01*
X1035652Y637237D01*
X1036292Y636040D01*
X1037153Y634991D01*
X1038202Y634130D01*
X1039399Y633491D01*
X1040697Y633097D01*
X1041064Y633061D01*
Y638902D01*
D02*
G37*
G36*
X1043032Y646713D02*
Y640871D01*
X1048874D01*
X1048838Y641237D01*
X1048444Y642536D01*
X1047804Y643733D01*
X1046943Y644782D01*
X1045894Y645643D01*
X1044697Y646283D01*
X1043399Y646677D01*
X1043032Y646713D01*
D02*
G37*
G36*
X1059765Y672400D02*
X1058414Y672267D01*
X1057115Y671873D01*
X1055918Y671234D01*
X1054869Y670372D01*
X1054008Y669323D01*
X1053368Y668126D01*
X1052975Y666828D01*
X1052841Y665477D01*
X1052975Y664126D01*
X1053368Y662828D01*
X1054008Y661631D01*
X1054869Y660582D01*
X1055918Y659721D01*
X1057115Y659081D01*
X1058414Y658687D01*
X1059765Y658554D01*
X1061115Y658687D01*
X1062414Y659081D01*
X1063611Y659721D01*
X1064660Y660582D01*
X1065521Y661631D01*
X1066161Y662828D01*
X1066555Y664126D01*
X1066688Y665477D01*
X1066555Y666828D01*
X1066161Y668126D01*
X1065521Y669323D01*
X1064660Y670372D01*
X1063611Y671234D01*
X1062414Y671873D01*
X1061115Y672267D01*
X1059765Y672400D01*
D02*
G37*
G36*
X855040D02*
X853689Y672267D01*
X852391Y671873D01*
X851194Y671234D01*
X850145Y670372D01*
X849284Y669323D01*
X848644Y668126D01*
X848250Y666828D01*
X848117Y665477D01*
X848250Y664126D01*
X848644Y662828D01*
X849284Y661631D01*
X850145Y660582D01*
X851194Y659721D01*
X852391Y659081D01*
X853689Y658687D01*
X855040Y658554D01*
X856391Y658687D01*
X857689Y659081D01*
X858886Y659721D01*
X859935Y660582D01*
X860797Y661631D01*
X861436Y662828D01*
X861830Y664126D01*
X861963Y665477D01*
X861830Y666828D01*
X861436Y668126D01*
X860797Y669323D01*
X859935Y670372D01*
X858886Y671234D01*
X857689Y671873D01*
X856391Y672267D01*
X855040Y672400D01*
D02*
G37*
G36*
X965276Y672400D02*
X963926Y672267D01*
X962627Y671873D01*
X961430Y671234D01*
X960381Y670372D01*
X959520Y669323D01*
X958880Y668126D01*
X958486Y666828D01*
X958353Y665477D01*
X958486Y664126D01*
X958880Y662828D01*
X959520Y661631D01*
X960381Y660582D01*
X961430Y659721D01*
X962627Y659081D01*
X963926Y658687D01*
X965276Y658554D01*
X966627Y658687D01*
X967926Y659081D01*
X969123Y659721D01*
X970172Y660582D01*
X971033Y661631D01*
X971673Y662828D01*
X972066Y664126D01*
X972200Y665477D01*
X972066Y666828D01*
X971673Y668126D01*
X971033Y669323D01*
X970172Y670372D01*
X969123Y671234D01*
X967926Y671873D01*
X966627Y672267D01*
X965276Y672400D01*
D02*
G37*
G36*
X749662Y664493D02*
X743820D01*
Y658651D01*
X744186Y658687D01*
X745485Y659081D01*
X746682Y659721D01*
X747731Y660582D01*
X748592Y661631D01*
X749231Y662828D01*
X749625Y664126D01*
X749662Y664493D01*
D02*
G37*
G36*
X836339Y664493D02*
X830497D01*
X830534Y664126D01*
X830927Y662828D01*
X831567Y661631D01*
X832428Y660582D01*
X833477Y659721D01*
X834674Y659081D01*
X835973Y658687D01*
X836339Y658651D01*
Y664493D01*
D02*
G37*
G36*
X948544Y646713D02*
Y640871D01*
X954386D01*
X954350Y641237D01*
X953956Y642536D01*
X953316Y643733D01*
X952455Y644782D01*
X951406Y645643D01*
X950209Y646283D01*
X948911Y646677D01*
X948544Y646713D01*
D02*
G37*
G36*
X946576D02*
X946209Y646677D01*
X944911Y646283D01*
X943714Y645643D01*
X942665Y644782D01*
X941803Y643733D01*
X941164Y642536D01*
X940770Y641237D01*
X940734Y640871D01*
X946576D01*
Y646713D01*
D02*
G37*
G36*
X836339Y646713D02*
X835973Y646677D01*
X834674Y646283D01*
X833477Y645643D01*
X832428Y644782D01*
X831567Y643733D01*
X830927Y642536D01*
X830534Y641237D01*
X830497Y640871D01*
X836339D01*
Y646713D01*
D02*
G37*
G36*
X760552Y672400D02*
X759201Y672267D01*
X757903Y671873D01*
X756706Y671234D01*
X755657Y670372D01*
X754796Y669323D01*
X754156Y668126D01*
X753762Y666828D01*
X753629Y665477D01*
X753762Y664126D01*
X754156Y662828D01*
X754796Y661631D01*
X755657Y660582D01*
X756706Y659721D01*
X757903Y659081D01*
X759201Y658687D01*
X760552Y658554D01*
X761903Y658687D01*
X763201Y659081D01*
X764398Y659721D01*
X765447Y660582D01*
X766308Y661631D01*
X766948Y662828D01*
X767342Y664126D01*
X767475Y665477D01*
X767342Y666828D01*
X766948Y668126D01*
X766308Y669323D01*
X765447Y670372D01*
X764398Y671234D01*
X763201Y671873D01*
X761903Y672267D01*
X760552Y672400D01*
D02*
G37*
G36*
X838308Y646713D02*
Y640871D01*
X844150D01*
X844114Y641237D01*
X843720Y642536D01*
X843080Y643733D01*
X842219Y644782D01*
X841170Y645643D01*
X839973Y646283D01*
X838674Y646677D01*
X838308Y646713D01*
D02*
G37*
%LPD*%
D10*
X1001300Y686700D02*
X1024300D01*
D11*
X697300Y430700D02*
Y610700D01*
X722300Y423700D02*
X736300D01*
X1010300Y482700D02*
Y580700D01*
X1006300Y478700D02*
X1010300Y482700D01*
X975300Y478700D02*
X1006300D01*
X816300Y486700D02*
X900300D01*
X816300Y508700D02*
X900300D01*
X697300Y610700D02*
X703300Y616700D01*
X1030300D01*
X1033300Y613700D01*
Y601700D02*
Y613700D01*
D12*
X1086300Y489700D02*
Y733700D01*
X1080284Y483684D02*
X1086300Y489700D01*
X1053247Y483684D02*
X1080284D01*
X845221Y720239D02*
Y734621D01*
X849300Y738700D01*
X1081300D01*
X1086300Y733700D01*
D13*
X1023300Y573700D02*
Y592700D01*
D14*
X1005922Y443779D02*
D03*
X958678D02*
D03*
X1005922Y395747D02*
D03*
X958678D02*
D03*
X982300Y451653D02*
D03*
X937922Y443779D02*
D03*
X890678D02*
D03*
X937922Y395747D02*
D03*
X890678D02*
D03*
X914300Y451653D02*
D03*
D15*
X813520Y395700D02*
D03*
X827300D02*
D03*
D16*
X860213Y392550D02*
D03*
X780213D02*
D03*
Y460109D02*
D03*
X860213D02*
D03*
D17*
X826713Y459109D02*
D03*
X816713D02*
D03*
X806713D02*
D03*
X796713D02*
D03*
D18*
X1067137Y366684D02*
D03*
D19*
X1053358D02*
D03*
D20*
X867702Y526684D02*
D03*
Y496763D02*
D03*
D21*
X815300Y696700D02*
D03*
X805457D02*
D03*
X825142D02*
D03*
D22*
X1053247Y473684D02*
D03*
Y463684D02*
D03*
Y483684D02*
D03*
Y412684D02*
D03*
Y402684D02*
D03*
Y422684D02*
D03*
D23*
X1070300Y577700D02*
D03*
Y597700D02*
D03*
Y587700D02*
D03*
Y567700D02*
D03*
D24*
X1128102Y724185D02*
D03*
Y869854D02*
D03*
X675346D02*
D03*
X675772Y724176D02*
D03*
D25*
X715221Y720239D02*
D03*
X705221D02*
D03*
X725221D02*
D03*
X735221D02*
D03*
X745221D02*
D03*
X755221D02*
D03*
X765221D02*
D03*
X775221D02*
D03*
X785221D02*
D03*
X795221D02*
D03*
X805221D02*
D03*
X815221D02*
D03*
X825221D02*
D03*
X835221D02*
D03*
X845221D02*
D03*
X855221D02*
D03*
D26*
X965276Y639887D02*
D03*
X947560Y665477D02*
D03*
X965276D02*
D03*
X947560Y639887D02*
D03*
X855040Y639887D02*
D03*
X837324Y665477D02*
D03*
X855040D02*
D03*
X837324Y639887D02*
D03*
X760552D02*
D03*
X742835Y665477D02*
D03*
X760552D02*
D03*
X742835Y639887D02*
D03*
X1059765D02*
D03*
X1042048Y665477D02*
D03*
X1059765D02*
D03*
X1042048Y639887D02*
D03*
D27*
X1024300Y686700D02*
D03*
X1001300D02*
D03*
X703300Y452700D02*
D03*
X690300D02*
D03*
X703300Y470700D02*
D03*
X690300D02*
D03*
X703300Y488700D02*
D03*
X690300D02*
D03*
X703300Y506700D02*
D03*
X690300D02*
D03*
X703300Y524700D02*
D03*
X690300D02*
D03*
X703300Y543700D02*
D03*
X690300D02*
D03*
X703300Y564700D02*
D03*
X690300D02*
D03*
Y437700D02*
D03*
X703300D02*
D03*
X697300Y430700D02*
D03*
X736300Y403700D02*
D03*
Y410700D02*
D03*
Y416700D02*
D03*
X707300Y403700D02*
D03*
Y410700D02*
D03*
Y416700D02*
D03*
X722300Y428700D02*
D03*
Y423700D02*
D03*
X736300D02*
D03*
X830300Y300700D02*
D03*
X710300Y299700D02*
D03*
X820300Y300700D02*
D03*
X815300Y300700D02*
D03*
X810300D02*
D03*
X805300D02*
D03*
X800300D02*
D03*
X795300Y300700D02*
D03*
X825300Y300700D02*
D03*
X700300Y299700D02*
D03*
X695300Y299700D02*
D03*
X690300D02*
D03*
X685300D02*
D03*
X680300D02*
D03*
X675300Y299700D02*
D03*
X705300Y299700D02*
D03*
X806300Y625700D02*
D03*
X845300D02*
D03*
X888300D02*
D03*
X936300D02*
D03*
X979300D02*
D03*
X1098300Y597700D02*
D03*
X975300Y478700D02*
D03*
X1010300Y580700D02*
D03*
X1000300Y494700D02*
D03*
X900300Y486700D02*
D03*
Y508700D02*
D03*
X1033300Y601700D02*
D03*
X845300Y608700D02*
D03*
X806300D02*
D03*
X936300D02*
D03*
X816300Y486700D02*
D03*
Y508700D02*
D03*
X931300Y494700D02*
D03*
Y516700D02*
D03*
X1069300Y443700D02*
D03*
X1099300D02*
D03*
X1094300D02*
D03*
X1089300D02*
D03*
X1084300D02*
D03*
X1079300D02*
D03*
X1074300D02*
D03*
X1023300Y592700D02*
D03*
X1134300Y331700D02*
D03*
X1134300Y336700D02*
D03*
X1134300Y341700D02*
D03*
X1134300Y346700D02*
D03*
X1134300Y351700D02*
D03*
Y356700D02*
D03*
Y326700D02*
D03*
X1128300D02*
D03*
X1122300D02*
D03*
X1116300D02*
D03*
X1128300Y356700D02*
D03*
X1122300D02*
D03*
X1116300D02*
D03*
X1110300Y326700D02*
D03*
Y356700D02*
D03*
Y351700D02*
D03*
X1110300Y346700D02*
D03*
X1110300Y341700D02*
D03*
X1110300Y336700D02*
D03*
X1110300Y331700D02*
D03*
X1041300Y538700D02*
D03*
Y517700D02*
D03*
X1023300Y561700D02*
D03*
Y573700D02*
D03*
X974300D02*
D03*
Y561700D02*
D03*
X988300Y583700D02*
D03*
X888300Y608700D02*
D03*
X979300D02*
D03*
X1008300Y609700D02*
D03*
X1016300D02*
D03*
X1000300D02*
D03*
X728300Y603700D02*
D03*
X734300D02*
D03*
X1010300Y306700D02*
D03*
Y312700D02*
D03*
Y318700D02*
D03*
Y324700D02*
D03*
Y330700D02*
D03*
X954300Y317700D02*
D03*
X948300D02*
D03*
X942300D02*
D03*
X936300D02*
D03*
X930300D02*
D03*
X1134300Y267700D02*
D03*
X1128300D02*
D03*
X1122300D02*
D03*
X1116300D02*
D03*
X1110300D02*
D03*
X806300Y556700D02*
D03*
X831300D02*
D03*
X788300D02*
D03*
X1076300Y520700D02*
D03*
X1101300D02*
D03*
M02*
