G04 Layer_Color=65535*
%FSLAX25Y25*%
%MOIN*%
G70*
G01*
G75*
%ADD10C,0.01000*%
%ADD51C,0.00984*%
G36*
X843258Y728409D02*
X842029D01*
Y733035D01*
X842019Y733025D01*
X841999Y733006D01*
X841960Y732976D01*
X841912Y732928D01*
X841843Y732879D01*
X841765Y732820D01*
X841677Y732752D01*
X841570Y732684D01*
X841463Y732606D01*
X841336Y732527D01*
X841072Y732381D01*
X840770Y732235D01*
X840438Y732108D01*
Y733220D01*
X840448D01*
X840457Y733230D01*
X840487Y733240D01*
X840526Y733250D01*
X840623Y733289D01*
X840750Y733357D01*
X840906Y733435D01*
X841082Y733542D01*
X841277Y733660D01*
X841482Y733816D01*
X841492Y733825D01*
X841511Y733835D01*
X841541Y733864D01*
X841570Y733894D01*
X841668Y733982D01*
X841794Y734108D01*
X841921Y734255D01*
X842048Y734431D01*
X842165Y734626D01*
X842253Y734840D01*
X843258D01*
Y728409D01*
D02*
G37*
G36*
X849124Y733572D02*
X846801D01*
X846606Y732488D01*
X846626Y732498D01*
X846674Y732518D01*
X846762Y732557D01*
X846870Y732596D01*
X846987Y732625D01*
X847133Y732664D01*
X847289Y732684D01*
X847445Y732693D01*
X847524D01*
X847582Y732684D01*
X847650Y732674D01*
X847738Y732664D01*
X847826Y732645D01*
X847924Y732615D01*
X848148Y732547D01*
X848256Y732498D01*
X848373Y732440D01*
X848490Y732371D01*
X848607Y732293D01*
X848724Y732205D01*
X848831Y732098D01*
X848841Y732088D01*
X848861Y732069D01*
X848880Y732039D01*
X848919Y731991D01*
X848968Y731932D01*
X849017Y731864D01*
X849066Y731776D01*
X849124Y731678D01*
X849173Y731571D01*
X849222Y731454D01*
X849271Y731327D01*
X849319Y731190D01*
X849358Y731044D01*
X849378Y730888D01*
X849397Y730722D01*
X849407Y730546D01*
Y730536D01*
Y730507D01*
Y730468D01*
X849397Y730409D01*
Y730341D01*
X849388Y730263D01*
X849368Y730175D01*
X849349Y730078D01*
X849300Y729853D01*
X849212Y729619D01*
X849105Y729375D01*
X849027Y729248D01*
X848948Y729131D01*
X848939Y729121D01*
X848919Y729092D01*
X848880Y729053D01*
X848831Y729004D01*
X848773Y728936D01*
X848695Y728867D01*
X848597Y728789D01*
X848500Y728711D01*
X848382Y728633D01*
X848246Y728555D01*
X848109Y728487D01*
X847953Y728418D01*
X847787Y728370D01*
X847602Y728331D01*
X847416Y728301D01*
X847211Y728292D01*
X847123D01*
X847065Y728301D01*
X846987D01*
X846899Y728321D01*
X846801Y728331D01*
X846694Y728350D01*
X846469Y728409D01*
X846225Y728487D01*
X845991Y728604D01*
X845874Y728682D01*
X845767Y728760D01*
X845757Y728770D01*
X845747Y728780D01*
X845718Y728809D01*
X845679Y728848D01*
X845630Y728897D01*
X845581Y728955D01*
X845533Y729024D01*
X845474Y729102D01*
X845357Y729287D01*
X845249Y729502D01*
X845162Y729765D01*
X845132Y729902D01*
X845103Y730048D01*
X846323Y730175D01*
Y730156D01*
X846333Y730107D01*
X846352Y730029D01*
X846382Y729931D01*
X846421Y729834D01*
X846469Y729716D01*
X846538Y729609D01*
X846626Y729511D01*
X846635Y729502D01*
X846674Y729472D01*
X846723Y729433D01*
X846801Y729394D01*
X846889Y729355D01*
X846987Y729316D01*
X847104Y729287D01*
X847221Y729277D01*
X847241D01*
X847289Y729287D01*
X847358Y729297D01*
X847445Y729316D01*
X847553Y729355D01*
X847660Y729414D01*
X847768Y729482D01*
X847875Y729590D01*
X847885Y729609D01*
X847914Y729648D01*
X847963Y729726D01*
X848012Y729824D01*
X848060Y729960D01*
X848109Y730117D01*
X848138Y730312D01*
X848148Y730527D01*
Y730536D01*
Y730556D01*
Y730585D01*
Y730624D01*
X848138Y730731D01*
X848119Y730858D01*
X848080Y731005D01*
X848031Y731151D01*
X847963Y731298D01*
X847875Y731415D01*
X847865Y731425D01*
X847826Y731463D01*
X847768Y731512D01*
X847690Y731571D01*
X847592Y731620D01*
X847475Y731669D01*
X847338Y731707D01*
X847192Y731717D01*
X847143D01*
X847104Y731707D01*
X846996Y731698D01*
X846870Y731659D01*
X846723Y731600D01*
X846557Y731522D01*
X846401Y731405D01*
X846313Y731327D01*
X846235Y731249D01*
X845249Y731386D01*
X845874Y734723D01*
X849124D01*
Y733572D01*
D02*
G37*
G36*
X703101Y728704D02*
X701871D01*
Y733330D01*
X701861Y733320D01*
X701842Y733301D01*
X701803Y733272D01*
X701754Y733223D01*
X701686Y733174D01*
X701608Y733115D01*
X701520Y733047D01*
X701412Y732979D01*
X701305Y732901D01*
X701178Y732823D01*
X700915Y732676D01*
X700612Y732530D01*
X700280Y732403D01*
Y733516D01*
X700290D01*
X700300Y733525D01*
X700329Y733535D01*
X700368Y733545D01*
X700466Y733584D01*
X700593Y733652D01*
X700749Y733730D01*
X700924Y733838D01*
X701120Y733955D01*
X701325Y734111D01*
X701334Y734121D01*
X701354Y734130D01*
X701383Y734160D01*
X701412Y734189D01*
X701510Y734277D01*
X701637Y734404D01*
X701764Y734550D01*
X701891Y734726D01*
X702008Y734921D01*
X702096Y735136D01*
X703101D01*
Y728704D01*
D02*
G37*
G36*
X708528Y731066D02*
X709318D01*
Y729992D01*
X708528D01*
Y728704D01*
X707337D01*
Y729992D01*
X704711D01*
Y731056D01*
X707493Y735136D01*
X708528D01*
Y731066D01*
D02*
G37*
G36*
X858764Y734732D02*
X858822D01*
X858890Y734723D01*
X859066Y734693D01*
X859251Y734645D01*
X859457Y734566D01*
X859661Y734469D01*
X859847Y734332D01*
X859857D01*
X859866Y734313D01*
X859925Y734254D01*
X860003Y734166D01*
X860101Y734030D01*
X860208Y733864D01*
X860306Y733659D01*
X860394Y733415D01*
X860462Y733141D01*
X859271Y733015D01*
Y733034D01*
X859261Y733073D01*
X859242Y733141D01*
X859222Y733219D01*
X859193Y733307D01*
X859154Y733395D01*
X859105Y733483D01*
X859037Y733551D01*
X859027Y733561D01*
X859008Y733581D01*
X858969Y733610D01*
X858910Y733639D01*
X858842Y733669D01*
X858764Y733698D01*
X858676Y733717D01*
X858568Y733727D01*
X858549D01*
X858500Y733717D01*
X858432Y733708D01*
X858344Y733688D01*
X858237Y733639D01*
X858119Y733581D01*
X858012Y733493D01*
X857905Y733376D01*
X857895Y733356D01*
X857875Y733337D01*
X857866Y733307D01*
X857846Y733259D01*
X857817Y733210D01*
X857788Y733141D01*
X857768Y733063D01*
X857739Y732975D01*
X857710Y732868D01*
X857680Y732751D01*
X857651Y732614D01*
X857631Y732468D01*
X857612Y732302D01*
X857592Y732117D01*
X857573Y731921D01*
X857583Y731931D01*
X857592Y731941D01*
X857622Y731970D01*
X857651Y732009D01*
X857758Y732097D01*
X857885Y732195D01*
X858051Y732292D01*
X858246Y732380D01*
X858471Y732448D01*
X858588Y732458D01*
X858715Y732468D01*
X858793D01*
X858842Y732458D01*
X858910Y732448D01*
X858988Y732439D01*
X859164Y732390D01*
X859369Y732322D01*
X859476Y732273D01*
X859583Y732214D01*
X859700Y732146D01*
X859808Y732068D01*
X859915Y731980D01*
X860023Y731873D01*
X860032Y731863D01*
X860042Y731843D01*
X860071Y731814D01*
X860110Y731765D01*
X860149Y731707D01*
X860198Y731638D01*
X860247Y731560D01*
X860306Y731463D01*
X860354Y731365D01*
X860403Y731248D01*
X860452Y731121D01*
X860491Y730984D01*
X860530Y730848D01*
X860559Y730692D01*
X860569Y730526D01*
X860579Y730360D01*
Y730350D01*
Y730321D01*
Y730262D01*
X860569Y730194D01*
X860559Y730116D01*
X860550Y730018D01*
X860530Y729911D01*
X860511Y729794D01*
X860433Y729540D01*
X860394Y729413D01*
X860335Y729277D01*
X860267Y729150D01*
X860188Y729023D01*
X860101Y728896D01*
X859993Y728779D01*
X859984Y728769D01*
X859964Y728749D01*
X859935Y728720D01*
X859886Y728691D01*
X859837Y728642D01*
X859769Y728593D01*
X859681Y728545D01*
X859593Y728486D01*
X859496Y728427D01*
X859378Y728379D01*
X859261Y728330D01*
X859125Y728281D01*
X858988Y728252D01*
X858842Y728222D01*
X858685Y728203D01*
X858519Y728193D01*
X858480D01*
X858422Y728203D01*
X858354D01*
X858276Y728213D01*
X858178Y728232D01*
X858071Y728252D01*
X857953Y728291D01*
X857827Y728330D01*
X857700Y728379D01*
X857563Y728437D01*
X857436Y728515D01*
X857300Y728593D01*
X857163Y728701D01*
X857036Y728808D01*
X856919Y728945D01*
X856909Y728954D01*
X856890Y728984D01*
X856860Y729023D01*
X856821Y729091D01*
X856773Y729169D01*
X856724Y729277D01*
X856665Y729394D01*
X856616Y729540D01*
X856558Y729696D01*
X856499Y729882D01*
X856450Y730077D01*
X856402Y730301D01*
X856363Y730545D01*
X856333Y730819D01*
X856314Y731102D01*
X856304Y731414D01*
Y731424D01*
Y731433D01*
Y731492D01*
Y731580D01*
X856314Y731707D01*
X856324Y731843D01*
X856343Y732019D01*
X856363Y732195D01*
X856382Y732400D01*
X856460Y732810D01*
X856509Y733024D01*
X856577Y733239D01*
X856646Y733434D01*
X856734Y733629D01*
X856831Y733805D01*
X856948Y733961D01*
X856958Y733971D01*
X856977Y733991D01*
X857016Y734030D01*
X857065Y734088D01*
X857134Y734147D01*
X857212Y734205D01*
X857300Y734283D01*
X857407Y734352D01*
X857524Y734420D01*
X857651Y734498D01*
X857788Y734557D01*
X857934Y734625D01*
X858100Y734674D01*
X858266Y734713D01*
X858451Y734732D01*
X858637Y734742D01*
X858705D01*
X858764Y734732D01*
D02*
G37*
G36*
X854479Y728310D02*
X853249D01*
Y732936D01*
X853239Y732927D01*
X853220Y732907D01*
X853181Y732878D01*
X853132Y732829D01*
X853064Y732780D01*
X852986Y732722D01*
X852898Y732653D01*
X852790Y732585D01*
X852683Y732507D01*
X852556Y732429D01*
X852293Y732283D01*
X851990Y732136D01*
X851658Y732009D01*
Y733122D01*
X851668D01*
X851678Y733132D01*
X851707Y733141D01*
X851746Y733151D01*
X851844Y733190D01*
X851971Y733259D01*
X852127Y733337D01*
X852302Y733444D01*
X852498Y733561D01*
X852703Y733717D01*
X852712Y733727D01*
X852732Y733737D01*
X852761Y733766D01*
X852790Y733795D01*
X852888Y733883D01*
X853015Y734010D01*
X853142Y734157D01*
X853269Y734332D01*
X853386Y734527D01*
X853474Y734742D01*
X854479D01*
Y728310D01*
D02*
G37*
G36*
X836565Y728606D02*
X835336D01*
Y733232D01*
X835326Y733222D01*
X835306Y733203D01*
X835267Y733173D01*
X835219Y733124D01*
X835150Y733076D01*
X835072Y733017D01*
X834984Y732949D01*
X834877Y732880D01*
X834770Y732802D01*
X834643Y732724D01*
X834379Y732578D01*
X834077Y732431D01*
X833745Y732305D01*
Y733417D01*
X833755D01*
X833764Y733427D01*
X833794Y733437D01*
X833833Y733447D01*
X833930Y733486D01*
X834057Y733554D01*
X834213Y733632D01*
X834389Y733739D01*
X834584Y733856D01*
X834789Y734013D01*
X834799Y734022D01*
X834818Y734032D01*
X834848Y734061D01*
X834877Y734091D01*
X834975Y734178D01*
X835102Y734305D01*
X835228Y734452D01*
X835355Y734627D01*
X835472Y734823D01*
X835560Y735037D01*
X836565D01*
Y728606D01*
D02*
G37*
%LPC*%
G36*
X707337Y733262D02*
X705853Y731066D01*
X707337D01*
Y733262D01*
D02*
G37*
G36*
X858519Y731560D02*
X858461D01*
X858393Y731551D01*
X858315Y731521D01*
X858217Y731492D01*
X858119Y731443D01*
X858022Y731375D01*
X857924Y731277D01*
X857914Y731267D01*
X857885Y731228D01*
X857846Y731160D01*
X857807Y731072D01*
X857758Y730955D01*
X857719Y730819D01*
X857690Y730653D01*
X857680Y730457D01*
Y730448D01*
Y730428D01*
Y730399D01*
Y730360D01*
X857700Y730253D01*
X857719Y730116D01*
X857749Y729969D01*
X857797Y729813D01*
X857866Y729667D01*
X857953Y729530D01*
X857963Y729521D01*
X858002Y729481D01*
X858061Y729433D01*
X858139Y729374D01*
X858227Y729306D01*
X858334Y729257D01*
X858451Y729218D01*
X858578Y729208D01*
X858637D01*
X858695Y729218D01*
X858773Y729237D01*
X858871Y729277D01*
X858959Y729316D01*
X859056Y729384D01*
X859144Y729472D01*
X859154Y729481D01*
X859183Y729521D01*
X859222Y729589D01*
X859261Y729677D01*
X859300Y729804D01*
X859339Y729950D01*
X859369Y730135D01*
X859378Y730350D01*
Y730360D01*
Y730379D01*
Y730409D01*
Y730457D01*
X859369Y730565D01*
X859349Y730701D01*
X859320Y730848D01*
X859271Y731004D01*
X859212Y731141D01*
X859125Y731267D01*
X859115Y731277D01*
X859086Y731316D01*
X859027Y731365D01*
X858959Y731414D01*
X858871Y731472D01*
X858764Y731511D01*
X858646Y731551D01*
X858519Y731560D01*
D02*
G37*
%LPD*%
D10*
X1040366Y677132D02*
X1039699Y677799D01*
X1038367D01*
X1037700Y677132D01*
Y676466D01*
X1038367Y675799D01*
X1039699D01*
X1040366Y675133D01*
Y674466D01*
X1039699Y673800D01*
X1038367D01*
X1037700Y674466D01*
X1041699Y677799D02*
Y673800D01*
X1043032Y675133D01*
X1044364Y673800D01*
Y677799D01*
X1047697Y673800D02*
Y677799D01*
X1045697Y675799D01*
X1048363D01*
X741166Y677132D02*
X740499Y677799D01*
X739166D01*
X738500Y677132D01*
Y676466D01*
X739166Y675799D01*
X740499D01*
X741166Y675133D01*
Y674466D01*
X740499Y673800D01*
X739166D01*
X738500Y674466D01*
X742499Y677799D02*
Y673800D01*
X743832Y675133D01*
X745164Y673800D01*
Y677799D01*
X746497Y673800D02*
X747830D01*
X747164D01*
Y677799D01*
X746497Y677132D01*
X835666D02*
X834999Y677799D01*
X833667D01*
X833000Y677132D01*
Y676466D01*
X833667Y675799D01*
X834999D01*
X835666Y675133D01*
Y674466D01*
X834999Y673800D01*
X833667D01*
X833000Y674466D01*
X836999Y677799D02*
Y673800D01*
X838332Y675133D01*
X839664Y673800D01*
Y677799D01*
X843663Y673800D02*
X840997D01*
X843663Y676466D01*
Y677132D01*
X842997Y677799D01*
X841664D01*
X840997Y677132D01*
X945866D02*
X945199Y677799D01*
X943867D01*
X943200Y677132D01*
Y676466D01*
X943867Y675799D01*
X945199D01*
X945866Y675133D01*
Y674466D01*
X945199Y673800D01*
X943867D01*
X943200Y674466D01*
X947199Y677799D02*
Y673800D01*
X948532Y675133D01*
X949864Y673800D01*
Y677799D01*
X951197Y677132D02*
X951864Y677799D01*
X953197D01*
X953863Y677132D01*
Y676466D01*
X953197Y675799D01*
X952530D01*
X953197D01*
X953863Y675133D01*
Y674466D01*
X953197Y673800D01*
X951864D01*
X951197Y674466D01*
X712663Y765299D02*
Y761300D01*
X714662D01*
X715329Y761966D01*
Y764632D01*
X714662Y765299D01*
X712663D01*
X716662D02*
X717995D01*
X717328D01*
Y761300D01*
X716662D01*
X717995D01*
X722660Y764632D02*
X721993Y765299D01*
X720660D01*
X719994Y764632D01*
Y763966D01*
X720660Y763299D01*
X721993D01*
X722660Y762633D01*
Y761966D01*
X721993Y761300D01*
X720660D01*
X719994Y761966D01*
X723993Y761300D02*
Y765299D01*
X725992D01*
X726658Y764632D01*
Y763299D01*
X725992Y762633D01*
X723993D01*
X727991Y761300D02*
X729324D01*
X728658D01*
Y765299D01*
X727991Y764632D01*
D51*
X963308Y652682D02*
G03*
X963308Y652682I-6890J0D01*
G01*
X853072Y652682D02*
G03*
X853072Y652682I-6890J0D01*
G01*
X758583D02*
G03*
X758583Y652682I-6890J0D01*
G01*
X1057796D02*
G03*
X1057796Y652682I-6890J0D01*
G01*
X1142898Y709905D02*
Y884314D01*
X661402Y709905D02*
Y884314D01*
Y709905D02*
X1142898D01*
X661402Y884314D02*
X1142800D01*
X695654Y872995D02*
X1108745D01*
X695654Y737661D02*
Y872995D01*
Y737661D02*
X1108745D01*
Y872995D01*
X706875Y852326D02*
X1097229D01*
Y757543D02*
Y852326D01*
X706875Y757543D02*
X1097229D01*
X706875D02*
Y852326D01*
X956418Y652682D02*
Y654650D01*
Y650713D02*
Y652682D01*
X954450D02*
X956418D01*
X958387D01*
X944300Y646700D02*
Y658700D01*
X955300Y640700D02*
X957300D01*
X968300Y646700D02*
Y658700D01*
X955300Y664700D02*
X957300D01*
X846182Y652682D02*
Y654650D01*
Y650713D02*
Y652682D01*
X844213D02*
X846182D01*
X848150D01*
X834300Y646700D02*
Y658700D01*
X844300Y640700D02*
X848300D01*
X858300Y646700D02*
Y658700D01*
X844300Y664700D02*
X848300D01*
X751694Y652682D02*
Y654650D01*
Y650713D02*
Y652682D01*
X749725D02*
X751694D01*
X753662D01*
X739300Y646700D02*
Y658700D01*
X750300Y640700D02*
X753300D01*
X764300Y646700D02*
Y658700D01*
X750300Y664700D02*
X753300D01*
X1050906Y652682D02*
Y654650D01*
Y650713D02*
Y652682D01*
X1048938D02*
X1050906D01*
X1052875D01*
X1038300Y646700D02*
Y658700D01*
X1049300Y640700D02*
X1052300D01*
X1063300Y646700D02*
Y658700D01*
X1049300Y664700D02*
X1052300D01*
M02*
