G04 Layer_Color=8388736*
%FSLAX25Y25*%
%MOIN*%
G70*
G01*
G75*
G04:AMPARAMS|DCode=52|XSize=126.11mil|YSize=126.11mil|CornerRadius=33.53mil|HoleSize=0mil|Usage=FLASHONLY|Rotation=90.000|XOffset=0mil|YOffset=0mil|HoleType=Round|Shape=RoundedRectangle|*
%AMROUNDEDRECTD52*
21,1,0.12611,0.05906,0,0,90.0*
21,1,0.05906,0.12611,0,0,90.0*
1,1,0.06706,0.02953,0.02953*
1,1,0.06706,0.02953,-0.02953*
1,1,0.06706,-0.02953,-0.02953*
1,1,0.06706,-0.02953,0.02953*
%
%ADD52ROUNDEDRECTD52*%
%ADD53R,0.07887X0.10642*%
%ADD54C,0.13398*%
%ADD55R,0.07099X0.10642*%
%ADD56C,0.08674*%
G04:AMPARAMS|DCode=57|XSize=86.74mil|YSize=86.74mil|CornerRadius=23.69mil|HoleSize=0mil|Usage=FLASHONLY|Rotation=0.000|XOffset=0mil|YOffset=0mil|HoleType=Round|Shape=RoundedRectangle|*
%AMROUNDEDRECTD57*
21,1,0.08674,0.03937,0,0,0.0*
21,1,0.03937,0.08674,0,0,0.0*
1,1,0.04737,0.01969,-0.01969*
1,1,0.04737,-0.01969,-0.01969*
1,1,0.04737,-0.01969,0.01969*
1,1,0.04737,0.01969,0.01969*
%
%ADD57ROUNDEDRECTD57*%
%ADD58C,0.09855*%
%ADD59O,0.07887X0.08674*%
%ADD60R,0.12611X0.07887*%
%ADD61R,0.08674X0.05918*%
%ADD62C,0.20485*%
%ADD63R,0.07887X0.12611*%
%ADD64C,0.10642*%
D52*
X1005922Y443779D02*
D03*
X958678D02*
D03*
X1005922Y395747D02*
D03*
X958678D02*
D03*
X982300Y451653D02*
D03*
X937922Y443779D02*
D03*
X890678D02*
D03*
X937922Y395747D02*
D03*
X890678D02*
D03*
X914300Y451653D02*
D03*
D53*
X813520Y395700D02*
D03*
X827300D02*
D03*
D54*
X860213Y392550D02*
D03*
X780213D02*
D03*
Y460109D02*
D03*
X860213D02*
D03*
D55*
X826713Y459109D02*
D03*
X816713D02*
D03*
X806713D02*
D03*
X796713D02*
D03*
D56*
X1067137Y366684D02*
D03*
D57*
X1053358D02*
D03*
D58*
X867702Y526684D02*
D03*
Y496763D02*
D03*
D59*
X815300Y696700D02*
D03*
X805457D02*
D03*
X825142D02*
D03*
D60*
X1053247Y473684D02*
D03*
Y463684D02*
D03*
Y483684D02*
D03*
Y412684D02*
D03*
Y402684D02*
D03*
Y422684D02*
D03*
D61*
X1070300Y577700D02*
D03*
Y597700D02*
D03*
Y587700D02*
D03*
Y567700D02*
D03*
D62*
X1128102Y724185D02*
D03*
Y869854D02*
D03*
X675346D02*
D03*
X675772Y724176D02*
D03*
D63*
X715221Y720239D02*
D03*
X705221D02*
D03*
X725221D02*
D03*
X735221D02*
D03*
X745221D02*
D03*
X755221D02*
D03*
X765221D02*
D03*
X775221D02*
D03*
X785221D02*
D03*
X795221D02*
D03*
X805221D02*
D03*
X815221D02*
D03*
X825221D02*
D03*
X835221D02*
D03*
X845221D02*
D03*
X855221D02*
D03*
D64*
X965276Y639887D02*
D03*
X947560Y665477D02*
D03*
X965276D02*
D03*
X947560Y639887D02*
D03*
X855040Y639887D02*
D03*
X837324Y665477D02*
D03*
X855040D02*
D03*
X837324Y639887D02*
D03*
X760552D02*
D03*
X742835Y665477D02*
D03*
X760552D02*
D03*
X742835Y639887D02*
D03*
X1059765D02*
D03*
X1042048Y665477D02*
D03*
X1059765D02*
D03*
X1042048Y639887D02*
D03*
M02*
